SplineFontDB: 3.2
FontName: GGF_Korean
FullName: GGF_Korean
FamilyName: GGF_Korean
Weight: Book
Copyright: GeftGames (c) 2020
Version: 1
ItalicAngle: 0
UnderlinePosition: -96
UnderlineWidth: 49
Ascent: 780
Descent: 200
InvalidEm: 0
sfntRevision: 0x00010000
LayerCount: 2
Layer: 0 1 "Back" 1
Layer: 1 1 "Fore" 0
XUID: [1021 67 -1579941666 7296]
StyleMap: 0x0040
FSType: 0
OS2Version: 4
OS2_WeightWidthSlopeOnly: 0
OS2_UseTypoMetrics: 1
CreationTime: 1577040872
ModificationTime: 1598725589
PfmFamily: 17
TTFWeight: 400
TTFWidth: 5
LineGap: 88
VLineGap: 0
Panose: 2 0 5 3 0 0 0 0 0 0
OS2TypoAscent: 780
OS2TypoAOffset: 0
OS2TypoDescent: -200
OS2TypoDOffset: 0
OS2TypoLinegap: 88
OS2WinAscent: 1011
OS2WinAOffset: 0
OS2WinDescent: 262
OS2WinDOffset: 0
HheadAscent: 1011
HheadAOffset: 0
HheadDescent: -262
HheadDOffset: 0
OS2SubXSize: 637
OS2SubYSize: 685
OS2SubXOff: 0
OS2SubYOff: 137
OS2SupXSize: 637
OS2SupYSize: 685
OS2SupXOff: 0
OS2SupYOff: 470
OS2StrikeYSize: 48
OS2StrikeYPos: 253
OS2CapHeight: 780
OS2XHeight: 388
OS2Vendor: 'PfEd'
OS2CodePages: 00080002.00000000
OS2UnicodeRanges: 80000027.09100022.00000020.00000000
Lookup: 258 0 0 "'kern' Horizontal Kerning in Latin lookup 0" { "'kern' Horizontal Kerning in Latin lookup 0 subtable"  } ['kern' ('latn' <'dflt' > ) ]
DEI: 91125
ShortTable: maxp 16
  1
  0
  2618
  91
  6
  70
  5
  2
  0
  1
  1
  0
  64
  0
  3
  3
EndShort
LangName: 1033 "" "" "Regular" "FontForge 2.0 : GGF_Korean : 28-8-2020"
GaspTable: 1 65535 2 0
Encoding: UnicodeBmp
UnicodeInterp: none
NameList: AGL For New Fonts
DisplaySize: -48
AntiAlias: 1
FitToEm: 0
WinInfo: 32 16 5
BeginChars: 65537 2657

StartChar: exclam
Encoding: 33 33 4
Width: 215
Flags: W
LayerCount: 2
Fore
SplineSet
102 110 m 1,0,1
 67 436 67 436 65 629 c 2,2,3
 65 629 65 629 65 686 c 0,4,5
 65 707 65 707 100.5 710 c 128,-1,6
 136 713 136 713 147 695 c 0,7,8
 149 690 149 690 149 686 c 0,9,10
 149 485 149 485 110 169 c 0,11,12
 106 141 106 141 102 110 c 1,0,1
104 0 m 0,13,14
 72 0 72 0 66 28.5 c 128,-1,15
 60 57 60 57 84 71 c 0,16,17
 94 76 94 76 105 76 c 0,18,19
 136 76 136 76 142 47.5 c 128,-1,20
 148 19 148 19 125 5 c 0,21,22
 115 0 115 0 104 0 c 0,13,14
EndSplineSet
EndChar

StartChar: numbersign
Encoding: 35 35 6
Width: 707
Flags: W
LayerCount: 2
Fore
SplineSet
88 250 m 1,0,-1
 559 250 l 1,1,-1
 548 208 l 1,2,-1
 77 208 l 1,3,-1
 88 250 l 1,0,-1
204 566 m 1,4,-1
 675 566 l 1,5,-1
 664 525 l 1,6,-1
 193 525 l 1,7,-1
 204 566 l 1,4,-1
630 778 m 2,8,9
 633 782 633 782 643.5 775 c 128,-1,10
 654 768 654 768 654 765 c 2,11,-1
 331 0 l 2,12,13
 328 -5 328 -5 309 9 c 0,14,15
 302 15 302 15 302 18 c 2,16,-1
 630 778 l 2,8,9
429 779 m 2,17,18
 432 783 432 783 442.5 776 c 128,-1,19
 453 769 453 769 453 766 c 2,20,-1
 130 1 l 2,21,22
 127 -4 127 -4 108 10 c 0,23,24
 101 16 101 16 101 19 c 2,25,-1
 429 779 l 2,17,18
EndSplineSet
EndChar

StartChar: dollar
Encoding: 36 36 7
Width: 539
Flags: W
LayerCount: 2
Fore
SplineSet
272 -56 m 1,0,-1
 235 -56 l 1,1,-1
 235 816 l 1,2,-1
 272 816 l 1,3,-1
 272 -56 l 1,0,-1
417.5 633 m 128,-1,5
 412 633 412 633 412 637 c 0,6,7
 397 703 397 703 337 732 c 0,8,9
 306 747 306 747 272 747 c 0,10,11
 194 747 194 747 155 688 c 0,12,13
 139 664 139 664 134 634 c 0,14,15
 114 497 114 497 219 441 c 0,16,17
 253 422 253 422 302 410 c 0,18,19
 371 392 371 392 414 326 c 0,20,21
 471 236 471 236 427.5 137.5 c 128,-1,22
 384 39 384 39 305 10 c 0,23,24
 277 0 277 0 248 0 c 0,25,26
 163 0 163 0 101 73 c 0,27,28
 80 98 80 98 70 122 c 0,29,30
 66 131 66 131 86 140 c 0,31,32
 100 146 100 146 104 141 c 0,33,34
 147 38 147 38 253 38 c 0,35,36
 319 39 319 39 378 134 c 0,37,38
 431 217 431 217 384 296 c 0,39,40
 349 355 349 355 286 371 c 0,41,42
 283 372 283 372 281 372 c 0,43,44
 121 405 121 405 97 539 c 0,45,46
 86 598 86 598 104 666 c 0,47,48
 126 748 126 748 211 772 c 0,49,50
 240 780 240 780 272 780 c 0,51,52
 409 780 409 780 447 643 c 0,53,54
 447 639 447 639 435 636 c 128,-1,4
 423 633 423 633 417.5 633 c 128,-1,5
EndSplineSet
EndChar

StartChar: percent
Encoding: 37 37 8
Width: 619
Flags: W
LayerCount: 2
Fore
SplineSet
481 72 m 0,0,1
 454 1 454 1 388 0.5 c 128,-1,2
 322 0 322 0 297 67.5 c 128,-1,3
 272 135 272 135 298 201 c 0,4,5
 329 270 329 270 390 272 c 0,6,7
 450 272 450 272 477 205 c 128,-1,8
 504 138 504 138 481 72 c 0,0,1
390 230 m 128,-1,10
 366 230 366 230 349.5 210.5 c 128,-1,11
 333 191 333 191 329.5 163 c 128,-1,12
 326 135 326 135 329.5 107 c 128,-1,13
 333 79 333 79 349 59.5 c 128,-1,14
 365 40 365 40 387.5 40 c 128,-1,15
 410 40 410 40 426 59.5 c 128,-1,16
 442 79 442 79 446.5 107 c 128,-1,17
 451 135 451 135 448.5 163 c 128,-1,18
 446 191 446 191 430 210.5 c 128,-1,9
 414 230 414 230 390 230 c 128,-1,10
198 780 m 0,19,20
 260 780 260 780 288 713 c 128,-1,21
 316 646 316 646 292 580 c 0,22,23
 264 510 264 510 198 508 c 0,24,25
 132 508 132 508 105.5 575.5 c 128,-1,26
 79 643 79 643 105 709 c 0,27,28
 134 778 134 778 198 780 c 0,19,20
198 547 m 2,29,30
 235 547 235 547 251 601.5 c 128,-1,31
 267 656 267 656 246 703 c 0,32,33
 228 736 228 736 198 737 c 0,34,35
 158 737 158 737 142 689.5 c 128,-1,36
 126 642 126 642 142 594.5 c 128,-1,37
 158 547 158 547 196 547 c 2,38,-1
 198 547 l 2,29,30
430 779 m 2,39,40
 433 783 433 783 443.5 776 c 128,-1,41
 454 769 454 769 454 766 c 2,42,-1
 131 1 l 2,43,44
 128 -4 128 -4 109 10 c 0,45,46
 102 16 102 16 102 19 c 2,47,-1
 430 779 l 2,39,40
EndSplineSet
EndChar

StartChar: ampersand
Encoding: 38 38 9
Width: 497
Flags: W
LayerCount: 2
Fore
SplineSet
270 399 m 0,0,1
 269 357 269 357 192 274 c 1,2,-1
 294 179 l 1,3,4
 294 179 294 179 344 241 c 0,5,6
 345 242 345 242 346 243 c 0,7,8
 350 248 350 248 367 234 c 0,9,10
 374 226 374 226 373 222 c 2,11,-1
 320 157 l 1,12,-1
 469 23 l 1,13,-1
 441 -3 l 1,14,-1
 301 128 l 1,15,16
 296 123 296 123 284 107 c 0,17,18
 219 24 219 24 176 4 c 0,19,20
 123 -19 123 -19 81 22 c 0,21,22
 -4 107 -4 107 107 234 c 0,23,24
 120 250 120 250 141 271 c 1,25,26
 93 319 93 319 83 346 c 128,-1,27
 73 373 73 373 73 409 c 0,28,29
 73 468 73 468 125.5 489.5 c 128,-1,30
 178 511 178 511 224 484 c 0,31,32
 269 456 269 456 270 399 c 0,0,1
107 398 m 0,33,34
 107 356 107 356 154 306 c 0,35,36
 161 299 161 299 162 297 c 1,37,38
 166 302 166 302 178 314 c 0,39,40
 230 372 230 372 231 401 c 0,41,42
 231 445 231 445 192 456.5 c 128,-1,43
 153 468 153 468 126 442 c 0,44,45
 107 424 107 424 107 398 c 0,33,34
139 36 m 0,46,47
 185 36 185 36 237 107 c 2,48,-1
 269 149 l 1,49,-1
 166 249 l 1,50,51
 113 192 113 192 91 149 c 128,-1,52
 69 106 69 106 89 68 c 0,53,54
 106 37 106 37 139 36 c 0,46,47
EndSplineSet
EndChar

StartChar: quotesingle
Encoding: 39 39 10
Width: 209
Flags: W
LayerCount: 2
Fore
SplineSet
126 682 m 2,0,1
 124 680 124 680 116 680 c 2,2,-1
 101 680 l 2,3,4
 94 680 94 680 90 682 c 2,5,-1
 89 682 l 1,6,-1
 89 832 l 1,7,-1
 90 832 l 2,8,9
 94 834 94 834 101 834 c 2,10,-1
 118 834 l 2,11,12
 124 834 124 834 126 832 c 2,13,-1
 128 832 l 1,14,-1
 128 682 l 1,15,-1
 126 682 l 2,0,1
EndSplineSet
EndChar

StartChar: parenright
Encoding: 41 41 12
Width: 207
Flags: W
LayerCount: 2
Fore
SplineSet
113 381 m 0,0,1
 113 199 113 199 94.5 133 c 128,-1,2
 76 67 76 67 50 24 c 0,3,4
 44 14 44 14 59 4 c 0,5,6
 70 -2 70 -2 75 3 c 0,7,8
 138 84 138 84 147 223 c 0,9,10
 149 262 149 262 149 416 c 128,-1,11
 149 570 149 570 127 647.5 c 128,-1,12
 105 725 105 725 72 777 c 0,13,14
 66 786 66 786 52 773 c 0,15,16
 44 763 44 763 47 756 c 0,17,18
 104 657 104 657 111 497 c 0,19,20
 113 452 113 452 113 381 c 0,0,1
EndSplineSet
EndChar

StartChar: asterisk
Encoding: 42 42 13
Width: 441
Flags: W
LayerCount: 2
Fore
SplineSet
144 616 m 2,0,1
 126 589 126 589 99.5 610.5 c 128,-1,2
 73 632 73 632 75 658 c 0,3,4
 79 676 79 676 97 683 c 2,5,-1
 193 715 l 1,6,-1
 86 764 l 2,7,8
 50 781 50 781 65 814 c 0,9,10
 76 840 76 840 102 844 c 0,11,12
 121 845 121 845 133 829 c 2,13,-1
 202 729 l 1,14,-1
 202 845 l 2,15,16
 202 880 202 880 236.5 879 c 128,-1,17
 271 878 271 878 292 854 c 0,18,19
 308 832 308 832 293 813 c 2,20,-1
 220 725 l 1,21,-1
 322 758 l 2,22,23
 357 769 357 769 370 736 c 128,-1,24
 383 703 383 703 367 680 c 0,25,26
 352 661 352 661 325 671 c 2,27,-1
 218 710 l 1,28,-1
 286 625 l 2,29,30
 312 593 312 593 283.5 570 c 128,-1,31
 255 547 255 547 229.5 557 c 128,-1,32
 204 567 204 567 204 598 c 2,33,-1
 203 705 l 1,34,-1
 144 616 l 2,0,1
EndSplineSet
EndChar

StartChar: hyphen
Encoding: 45 45 16
Width: 376
Flags: W
LayerCount: 2
Fore
SplineSet
309 309 m 2,0,1
 317 309 317 309 315 326 c 128,-1,2
 313 343 313 343 309 344 c 2,3,-1
 68 344 l 2,4,5
 61 344 61 344 63.5 327 c 128,-1,6
 66 310 66 310 68 309 c 2,7,-1
 309 309 l 2,0,1
EndSplineSet
EndChar

StartChar: period
Encoding: 46 46 17
Width: 156
Flags: W
LayerCount: 2
Fore
SplineSet
81 0 m 0,0,1
 49 0 49 0 43 28.5 c 128,-1,2
 37 57 37 57 61 71 c 0,3,4
 71 76 71 76 82 76 c 0,5,6
 113 76 113 76 119 47.5 c 128,-1,7
 125 19 125 19 102 5 c 0,8,9
 92 0 92 0 81 0 c 0,0,1
EndSplineSet
EndChar

StartChar: slash
Encoding: 47 47 18
Width: 458
Flags: W
LayerCount: 2
Fore
SplineSet
389 779 m 2,0,1
 392 783 392 783 402.5 776 c 128,-1,2
 413 769 413 769 413 766 c 2,3,-1
 90 1 l 2,4,5
 87 -4 87 -4 68 10 c 0,6,7
 61 16 61 16 61 19 c 2,8,-1
 389 779 l 2,0,1
EndSplineSet
EndChar

StartChar: zero
Encoding: 48 48 19
Width: 511
Flags: W
LayerCount: 2
Fore
SplineSet
259 0 m 0,0,1
 63 0 63 0 63 391 c 0,2,3
 63 570 63 570 125 683 c 0,4,5
 178 779 178 779 259 780 c 0,6,7
 376 780 376 780 427 616 c 0,8,9
 456 520 456 520 456 391 c 0,10,11
 456 163 456 163 376 61 c 0,12,13
 328 1 328 1 259 0 c 0,0,1
387 182 m 0,14,15
 416 279 416 279 416 408.5 c 128,-1,16
 416 538 416 538 371 642 c 128,-1,17
 326 746 326 746 259 747 c 0,18,19
 177 747 177 747 134 600 c 0,20,21
 105 502 105 502 105 391 c 0,22,23
 105 175 105 175 170 84 c 0,24,25
 207 35 207 35 259 34 c 0,26,27
 343 34 343 34 387 182 c 0,14,15
EndSplineSet
EndChar

StartChar: one
Encoding: 49 49 20
Width: 254
Flags: W
LayerCount: 2
Fore
SplineSet
43 616 m 2,0,-1
 194 773 l 1,1,-1
 194 0 l 1,2,-1
 165 0 l 1,3,-1
 166 704 l 1,4,-1
 63 593 l 2,5,6
 60 589 60 589 51 601 c 128,-1,7
 42 613 42 613 43 616 c 2,0,-1
EndSplineSet
EndChar

StartChar: two
Encoding: 50 50 21
Width: 605
Flags: W
LayerCount: 2
Fore
SplineSet
502 107 m 0,0,1
 506 112 506 112 526 98 c 0,2,3
 534 91 534 91 533 87 c 0,4,5
 500 34 500 34 441 11 c 0,6,7
 413 0 413 0 386 0 c 0,8,9
 317 1 317 1 272 62 c 0,10,11
 247 96 247 96 231 97 c 1,12,13
 211 39 211 39 186 15 c 0,14,15
 183 12 183 12 181 11 c 0,16,17
 152 -9 152 -9 116.5 6 c 128,-1,18
 81 21 81 21 75 47 c 0,19,20
 58 122 58 122 120 141 c 0,21,22
 156 151 156 151 208 139 c 1,23,24
 226 175 226 175 282.5 292 c 128,-1,25
 339 409 339 409 384.5 490 c 128,-1,26
 430 571 430 571 412 648 c 0,27,28
 390 742 390 742 292 742 c 0,29,30
 210 741 210 741 166 652 c 0,31,32
 162 644 162 644 142 658 c 0,33,34
 134 665 134 665 134 669 c 0,35,36
 158 731 158 731 221 762 c 0,37,38
 258 780 258 780 297 780 c 0,39,40
 371 780 371 780 420 725 c 0,41,42
 456 684 456 684 456 634 c 0,43,44
 456 542 456 542 404 454 c 0,45,46
 399 445 399 445 393 435 c 0,47,48
 349 361 349 361 246 129 c 1,49,50
 263 125 263 125 290.5 96 c 128,-1,51
 318 67 318 67 327 59 c 0,52,53
 391 -1 391 -1 478 82 c 0,54,55
 491 94 491 94 502 107 c 0,0,1
157 41 m 0,56,57
 166 47 166 47 179.5 74.5 c 128,-1,58
 193 102 193 102 194 104 c 1,59,60
 133 125 133 125 113 92 c 0,61,62
 100 69 100 69 115.5 49.5 c 128,-1,63
 131 30 131 30 157 41 c 0,56,57
EndSplineSet
EndChar

StartChar: three
Encoding: 51 51 22
Width: 438
Flags: W
LayerCount: 2
Fore
SplineSet
260 396 m 1,0,1
 288 414 288 414 318.5 493.5 c 128,-1,2
 349 573 349 573 349 632 c 0,3,4
 349 716 349 716 292 757 c 0,5,6
 259 780 259 780 214 780 c 0,7,8
 138 780 138 780 104 718 c 0,9,10
 85 682 85 682 85 632 c 0,11,12
 85 624 85 624 105 626 c 128,-1,13
 125 628 125 628 126 632 c 0,14,15
 128 736 128 736 212 737 c 0,16,17
 305 735 305 735 306 633 c 0,18,19
 306 552 306 552 253 463 c 0,20,21
 224 416 224 416 197 397 c 1,22,23
 242 366 242 366 275 284.5 c 128,-1,24
 308 203 308 203 308 148 c 1,25,26
 299 48 299 48 214 43 c 1,27,28
 129 45 129 45 128 153 c 0,29,30
 128 159 128 159 108 157 c 128,-1,31
 88 155 88 155 87 152 c 0,32,33
 87 44 87 44 164 11 c 0,34,35
 189 1 189 1 216 1 c 0,36,37
 302 1 302 1 336 76 c 0,38,39
 351 110 351 110 351 149 c 0,40,41
 351 231 351 231 302 333 c 0,42,43
 278 384 278 384 260 396 c 1,0,1
EndSplineSet
EndChar

StartChar: four
Encoding: 52 52 23
Width: 565
Flags: W
LayerCount: 2
Fore
SplineSet
329 778 m 2,0,1
 333 785 333 785 349 772 c 128,-1,2
 365 759 365 759 363 754 c 2,3,-1
 154 353 l 1,4,-1
 318 353 l 1,5,-1
 318 510 l 2,6,7
 318 513 318 513 328 514.5 c 128,-1,8
 338 516 338 516 348 515 c 128,-1,9
 358 514 358 514 358 511 c 2,10,-1
 358 353 l 1,11,-1
 511 353 l 2,12,13
 518 353 518 353 516 326 c 0,14,15
 514 315 514 315 511 313 c 2,16,-1
 359 313 l 1,17,-1
 358 6 l 2,18,19
 358 -2 358 -2 339 0 c 128,-1,20
 320 2 320 2 318 6 c 2,21,-1
 318 313 l 1,22,-1
 81 313 l 1,23,-1
 329 778 l 2,0,1
EndSplineSet
EndChar

StartChar: five
Encoding: 53 53 24
Width: 529
Flags: W
LayerCount: 2
Fore
SplineSet
323 407 m 0,0,1
 416 372 416 372 416 230 c 0,2,3
 416 144 416 144 361 87 c 0,4,5
 316 42 316 42 256.5 42 c 128,-1,6
 197 42 197 42 153 102 c 0,7,8
 137 122 137 122 131 141 c 0,9,10
 130 145 130 145 112 136 c 128,-1,11
 94 127 94 127 94 124 c 0,12,13
 117 57 117 57 177 22 c 0,14,15
 214 0 214 0 253 0 c 0,16,17
 329 0 329 0 383 47.5 c 128,-1,18
 437 95 437 95 452.5 162.5 c 128,-1,19
 468 230 468 230 459 298 c 128,-1,20
 450 366 450 366 399.5 413.5 c 128,-1,21
 349 461 349 461 271 461 c 0,22,23
 176 460 176 460 129 414 c 1,24,-1
 129 739 l 1,25,-1
 436 739 l 2,26,27
 444 739 444 739 442.5 759 c 128,-1,28
 441 779 441 779 436 780 c 2,29,-1
 88 780 l 1,30,-1
 88 312 l 1,31,32
 106 357 106 357 170 391 c 0,33,34
 256 436 256 436 323 407 c 0,0,1
EndSplineSet
EndChar

StartChar: six
Encoding: 54 54 25
Width: 495
Flags: W
LayerCount: 2
Fore
SplineSet
249 0 m 0,0,1
 71 2 71 2 69 242 c 0,2,3
 69 453 69 453 80 535 c 0,4,5
 110 755 110 755 245 777 c 0,6,7
 261 780 261 780 278 780 c 0,8,9
 351 780 351 780 391 728 c 0,10,11
 413 698 413 698 413 663 c 0,12,13
 413 661 413 661 404.5 659.5 c 128,-1,14
 396 658 396 658 387 658.5 c 128,-1,15
 378 659 378 659 378 661 c 0,16,17
 378 710 378 710 329 735 c 0,18,19
 304 747 304 747 277 747 c 0,20,21
 110 747 110 747 108 389 c 2,22,23
 108 389 108 389 108 378 c 1,24,25
 174 442 174 442 256 443 c 0,26,27
 304 443 304 443 342.5 418.5 c 128,-1,28
 381 394 381 394 401.5 355 c 128,-1,29
 422 316 422 316 431.5 269 c 128,-1,30
 441 222 441 222 431.5 174.5 c 128,-1,31
 422 127 422 127 401.5 88 c 128,-1,32
 381 49 381 49 341 24.5 c 128,-1,33
 301 0 301 0 249 0 c 0,0,1
255 402 m 0,34,35
 174 402 174 402 131 328 c 0,36,37
 104 281 104 281 104 225 c 0,38,39
 104 119 104 119 162 68 c 0,40,41
 196 38 196 38 243 38 c 0,42,43
 334 38 334 38 376 129 c 128,-1,44
 418 220 418 220 383.5 311 c 128,-1,45
 349 402 349 402 255 402 c 0,34,35
EndSplineSet
EndChar

StartChar: seven
Encoding: 55 55 26
Width: 454
Flags: W
LayerCount: 2
Fore
SplineSet
122 780 m 2,0,-1
 402 780 l 1,1,-1
 171 0 l 1,2,-1
 135 0 l 1,3,-1
 362 749 l 1,4,-1
 122 749 l 2,5,6
 116 749 116 749 117.5 764 c 128,-1,7
 119 779 119 779 122 780 c 2,0,-1
EndSplineSet
EndChar

StartChar: eight
Encoding: 56 56 27
Width: 332
Flags: W
LayerCount: 2
Fore
SplineSet
230 613 m 0,0,1
 227 734 227 734 173 738 c 0,2,3
 131 738 131 738 122 650 c 0,4,5
 120 634 120 634 120 619 c 0,6,7
 121 536 121 536 172 468 c 1,8,9
 230 536 230 536 230 613 c 0,0,1
172 42 m 0,10,11
 218 42 218 42 238 134 c 0,12,13
 247 173 247 173 247 219.5 c 128,-1,14
 247 266 247 266 221 319 c 128,-1,15
 195 372 195 372 172 391 c 1,16,17
 126 356 126 356 102 284 c 0,18,19
 90 247 90 247 90 214 c 0,20,21
 90 129 90 129 123 76 c 0,22,23
 144 43 144 43 172 42 c 0,10,11
148 429 m 1,24,25
 81 506 81 506 81 630 c 0,26,27
 81 715 81 715 121 757 c 0,28,29
 144 780 144 780 172 780 c 0,30,31
 223 780 223 780 252 711 c 0,32,33
 270 668 270 668 270 615 c 0,34,35
 270 532 270 532 217 457 c 0,36,37
 205 440 205 440 193 429 c 1,38,39
 241 390 241 390 271 299 c 0,40,41
 288 245 288 245 288 197 c 0,42,43
 288 106 288 106 248 46 c 0,44,45
 216 1 216 1 172 0 c 0,46,47
 105 0 105 0 71 99 c 0,48,49
 52 154 52 154 52 215 c 0,50,51
 52 315 52 315 118 397 c 0,52,53
 133 416 133 416 148 429 c 1,24,25
EndSplineSet
EndChar

StartChar: nine
Encoding: 57 57 28
Width: 369
Flags: W
LayerCount: 2
Fore
SplineSet
193 474 m 0,0,1
 236 474 236 474 263 518 c 0,2,3
 279 544 279 544 279 571 c 2,4,-1
 279 716 l 2,5,6
 276 735 276 735 230 739 c 0,7,8
 223 740 223 740 218 740 c 0,9,10
 157 740 157 740 127.5 673.5 c 128,-1,11
 98 607 98 607 117.5 540.5 c 128,-1,12
 137 474 137 474 193 474 c 0,0,1
218 780 m 0,13,14
 263 780 263 780 295 758 c 0,15,16
 312 745 312 745 313 732 c 2,17,-1
 313 7 l 2,18,19
 313 -1 313 -1 297 0.5 c 128,-1,20
 281 2 281 2 280 7 c 2,21,-1
 280 485 l 1,22,23
 238 440 238 440 190 439 c 0,24,25
 116 439 116 439 88 515.5 c 128,-1,26
 60 592 60 592 90 675 c 256,27,28
 120 758 120 758 187 776 c 0,29,30
 202 780 202 780 218 780 c 0,13,14
EndSplineSet
EndChar

StartChar: greater
Encoding: 62 62 33
Width: 301
Flags: W
LayerCount: 2
Fore
SplineSet
50 444 m 2,0,-1
 267 293 l 1,1,-1
 52 152 l 2,2,3
 48 149 48 149 41.5 161 c 128,-1,4
 35 173 35 173 37 176 c 2,5,-1
 220 293 l 1,6,-1
 35 419 l 2,7,8
 29 423 29 423 37.5 435 c 128,-1,9
 46 447 46 447 50 444 c 2,0,-1
EndSplineSet
EndChar

StartChar: question
Encoding: 63 63 34
Width: 447
Flags: W
LayerCount: 2
Fore
SplineSet
80 590 m 0,0,1
 125 711 125 711 261 711 c 0,2,3
 351 711 351 711 389 622 c 0,4,5
 404 586 404 586 404 554 c 0,6,7
 404 483 404 483 321 404 c 0,8,9
 270 355 270 355 267 352 c 0,10,11
 245 325 245 325 238 274 c 0,12,13
 237 264 237 264 237 255 c 0,14,15
 237 250 237 250 219 251.5 c 128,-1,16
 201 253 201 253 200 255 c 0,17,18
 202 332 202 332 248 382 c 0,19,20
 253 387 253 387 306 438 c 0,21,22
 366 496 366 496 366 555 c 128,-1,23
 366 614 366 614 323 651 c 0,24,25
 294 676 294 676 255 676 c 0,26,27
 184 676 184 676 138 614 c 0,28,29
 123 592 123 592 120 577 c 0,30,31
 119 570 119 570 92 580 c 0,32,33
 80 586 80 586 80 590 c 0,0,1
218 20 m 0,34,35
 186 20 186 20 180 48.5 c 128,-1,36
 174 77 174 77 198 91 c 0,37,38
 208 96 208 96 219 96 c 0,39,40
 250 96 250 96 256 67.5 c 128,-1,41
 262 39 262 39 239 25 c 0,42,43
 230 20 230 20 218 20 c 0,34,35
EndSplineSet
EndChar

StartChar: at
Encoding: 64 64 35
Width: 832
Flags: W
LayerCount: 2
Fore
SplineSet
436 0 m 0,0,1
 243 0 243 0 135 136 c 0,2,3
 47 248 47 248 50.5 402 c 128,-1,4
 54 556 54 556 150 662 c 0,5,6
 258 780 258 780 436 780 c 0,7,8
 643 780 643 780 721 605 c 0,9,10
 761 515 761 515 761 389 c 0,11,12
 761 309 761 309 692 253 c 0,13,14
 666 233 666 233 639 222 c 0,15,16
 562 191 562 191 482 273 c 0,17,18
 479 277 479 277 477 279 c 1,19,20
 459 243 459 243 402 232 c 0,21,22
 384 228 384 228 357 228 c 128,-1,23
 330 228 330 228 303 242.5 c 128,-1,24
 276 257 276 257 263.5 279.5 c 128,-1,25
 251 302 251 302 245.5 330 c 128,-1,26
 240 358 240 358 247.5 385.5 c 128,-1,27
 255 413 255 413 269 435.5 c 128,-1,28
 283 458 283 458 308 472.5 c 128,-1,29
 333 487 333 487 363 487 c 0,30,31
 441 487 441 487 484 475 c 1,32,33
 497 362 497 362 495 322 c 1,34,35
 530 279 530 279 552 265.5 c 128,-1,36
 574 252 574 252 601 252 c 0,37,38
 648 252 648 252 693 305 c 0,39,40
 728 349 728 349 729 389 c 0,41,42
 729 579 729 579 626 676 c 0,43,44
 550 746 550 746 436 746 c 0,45,46
 259 746 259 746 161 617 c 0,47,48
 80 511 80 511 87.5 366.5 c 128,-1,49
 95 222 95 222 189 128 c 0,50,51
 285 34 285 34 437 34 c 0,52,53
 520 34 520 34 617.5 77.5 c 128,-1,54
 715 121 715 121 738 154 c 0,55,56
 746 162 746 162 759 146 c 0,57,58
 763 139 763 139 762 135 c 0,59,60
 726 84 726 84 618 42 c 128,-1,61
 510 0 510 0 436 0 c 0,0,1
451 313 m 0,62,63
 460 358 460 358 447 428 c 0,64,65
 445 438 445 438 443 445 c 1,66,67
 353 471 353 471 305 414 c 0,68,69
 270 373 270 373 283 323 c 0,70,71
 298 266 298 266 361 266 c 128,-1,72
 424 266 424 266 444 293 c 0,73,74
 451 303 451 303 451 313 c 0,62,63
EndSplineSet
EndChar

StartChar: A
Encoding: 65 65 36
Width: 651
Flags: W
LayerCount: 2
Fore
SplineSet
321 780 m 1,0,-1
 576 8 l 2,1,2
 578 3 578 3 559.5 1 c 128,-1,3
 541 -1 541 -1 539 2 c 2,4,-1
 423 348 l 1,5,-1
 224 348 l 1,6,-1
 120 3 l 2,7,8
 118 -4 118 -4 98.5 1.5 c 128,-1,9
 79 7 79 7 79 11 c 2,10,-1
 321 780 l 1,0,-1
319 667 m 1,11,-1
 233 385 l 1,12,-1
 412 385 l 1,13,-1
 319 667 l 1,11,-1
EndSplineSet
EndChar

StartChar: B
Encoding: 66 66 37
Width: 529
Flags: W
LayerCount: 2
Fore
SplineSet
256 410 m 1,0,1
 370 407 370 407 430 319 c 0,2,3
 469 261 469 261 469 189 c 0,4,5
 469 50 469 50 316 15 c 0,6,7
 248 0 248 0 80 0 c 2,8,9
 80 0 80 0 63 0 c 1,10,-1
 63 780 l 1,11,-1
 144 780 l 2,12,13
 405 778 405 778 406 594 c 0,14,15
 404 415 404 415 256 410 c 1,0,1
104 743 m 1,16,-1
 104 431 l 1,17,18
 241 431 241 431 292 453 c 0,19,20
 366 487 366 487 367 589 c 0,21,22
 367 712 367 712 213 736 c 0,23,24
 168 743 168 743 104 743 c 1,16,-1
104 393 m 1,25,-1
 104 37 l 1,26,27
 254 37 254 37 310 50 c 0,28,29
 428 79 428 79 429 186 c 0,30,31
 429 329 429 329 297 371 c 0,32,33
 226 393 226 393 104 393 c 1,25,-1
EndSplineSet
EndChar

StartChar: C
Encoding: 67 67 38
Width: 667
Flags: W
LayerCount: 2
Fore
SplineSet
538 664 m 1,0,1
 522 722 522 722 397 737 c 0,2,3
 366 741 366 741 334 741 c 0,4,5
 221 741 221 741 150 621 c 0,6,7
 90 518 90 518 90 390 c 0,8,9
 90 141 90 141 212 73 c 0,10,11
 265 44 265 44 340 44 c 0,12,13
 488 44 488 44 536 110 c 0,14,15
 555 137 555 137 562 175 c 0,16,17
 564 182 564 182 584.5 179.5 c 128,-1,18
 605 177 605 177 605 173 c 0,19,20
 582 54 582 54 478 19 c 0,21,22
 423 1 423 1 337 1 c 0,23,24
 138 1 138 1 76 203 c 0,25,26
 52 284 52 284 52 389 c 0,27,28
 52 550 52 550 127 662 c 0,29,30
 207 778 207 778 337 779 c 0,31,32
 551 778 551 778 577 670 c 0,33,34
 579 666 579 666 570 664 c 0,35,36
 548 659 548 659 538 664 c 1,0,1
EndSplineSet
EndChar

StartChar: D
Encoding: 68 68 39
Width: 606
Flags: W
LayerCount: 2
Fore
SplineSet
545 372 m 0,0,1
 545 121 545 121 376 39 c 0,2,3
 365 34 365 34 354 30 c 0,4,5
 287 2 287 2 136 -1 c 2,6,7
 136 -1 136 -1 111 -1 c 0,8,9
 76 -2 76 -2 59 -2 c 1,10,-1
 59 780 l 1,11,12
 251 780 251 780 348 740 c 0,13,14
 541 658 541 658 545 372 c 0,0,1
509 375 m 0,15,16
 509 534 509 534 450 618 c 1,17,18
 380 709 380 709 255 732 c 0,19,20
 192 744 192 744 99 744 c 1,21,-1
 99 34 l 1,22,23
 247 34 247 34 321 54 c 0,24,25
 445 86 445 86 489 234 c 0,26,27
 508 298 508 298 509 375 c 0,15,16
EndSplineSet
EndChar

StartChar: E
Encoding: 69 69 40
Width: 439
Flags: W
LayerCount: 2
Fore
SplineSet
60 780 m 1,0,-1
 373 780 l 2,1,2
 380 780 380 780 377.5 764.5 c 128,-1,3
 375 749 375 749 373 748 c 2,4,-1
 94 748 l 1,5,-1
 94 416 l 1,6,-1
 160 416 l 2,7,8
 165 416 165 416 163 399.5 c 128,-1,9
 161 383 161 383 159 382 c 2,10,-1
 95 382 l 1,11,-1
 95 35 l 1,12,-1
 373 35 l 2,13,14
 379 35 379 35 377 18 c 128,-1,15
 375 1 375 1 373 0 c 2,16,-1
 61 0 l 1,17,-1
 60 780 l 1,0,-1
EndSplineSet
EndChar

StartChar: F
Encoding: 70 70 41
Width: 366
Flags: W
LayerCount: 2
Fore
SplineSet
153 418 m 2,0,1
 158 418 158 418 157 401.5 c 128,-1,2
 156 385 156 385 154 385 c 2,3,-1
 94 385 l 1,4,-1
 94 1 l 2,5,6
 94 -1 94 -1 85.5 -2 c 128,-1,7
 77 -3 77 -3 68.5 -2 c 128,-1,8
 60 -1 60 -1 60 0 c 2,9,-1
 60 780 l 1,10,-1
 312 780 l 2,11,12
 317 780 317 780 316 763 c 128,-1,13
 315 746 315 746 313 746 c 2,14,-1
 95 746 l 1,15,-1
 95 418 l 1,16,-1
 153 418 l 2,0,1
EndSplineSet
EndChar

StartChar: G
Encoding: 71 71 42
Width: 632
Flags: W
LayerCount: 2
Fore
SplineSet
591 387 m 1,0,1
 602 184 602 184 504 79 c 0,2,3
 429 1 429 1 307.5 1 c 128,-1,4
 186 1 186 1 113 109 c 128,-1,5
 40 217 40 217 40 376.5 c 128,-1,6
 40 536 40 536 104 647 c 0,7,8
 182 779 182 779 322 780 c 0,9,10
 482 780 482 780 543 689 c 0,11,12
 550 678 550 678 529 668 c 0,13,14
 517 662 517 662 512 665 c 0,15,16
 469 719 469 719 411 732 c 0,17,18
 376 740 376 740 322 740 c 0,19,20
 202 740 202 740 133 614 c 0,21,22
 79 515 79 515 79 387 c 0,23,24
 79 182 79 182 181 90 c 0,25,26
 238 40 238 40 308 40 c 0,27,28
 458 40 458 40 521 180 c 0,29,30
 556 258 556 258 553 348 c 1,31,-1
 322 348 l 2,32,33
 320 348 320 348 319 358 c 128,-1,34
 318 368 318 368 319 377.5 c 128,-1,35
 320 387 320 387 321 387 c 2,36,-1
 591 387 l 1,0,1
EndSplineSet
EndChar

StartChar: H
Encoding: 72 72 43
Width: 477
Flags: W
LayerCount: 2
Fore
SplineSet
56 774 m 2,0,1
 56 778 56 778 66 779.5 c 128,-1,2
 76 781 76 781 86.5 779.5 c 128,-1,3
 97 778 97 778 97 775 c 2,4,-1
 97 390 l 1,5,-1
 373 390 l 1,6,-1
 373 776 l 2,7,8
 373 782 373 782 393.5 780 c 128,-1,9
 414 778 414 778 415 776 c 2,10,-1
 415 5 l 2,11,12
 415 -2 415 -2 393.5 0 c 128,-1,13
 372 2 372 2 371 5 c 2,14,-1
 371 350 l 1,15,-1
 97 350 l 1,16,-1
 97 4 l 2,17,18
 97 -2 97 -2 77 0 c 128,-1,19
 57 2 57 2 56 4 c 2,20,-1
 56 774 l 2,0,1
EndSplineSet
EndChar

StartChar: I
Encoding: 73 73 44
Width: 266
Flags: W
LayerCount: 2
Fore
SplineSet
194 780 m 2,0,1
 200 780 200 780 197 756 c 0,2,3
 195 751 195 751 194 750 c 2,4,-1
 152 750 l 1,5,-1
 152 27 l 1,6,-1
 194 27 l 2,7,8
 199 27 199 27 197 7 c 0,9,10
 195 1 195 1 194 0 c 2,11,-1
 74 0 l 2,12,13
 70 0 70 0 71.5 13 c 128,-1,14
 73 26 73 26 74 27 c 2,15,-1
 120 27 l 1,16,-1
 120 750 l 1,17,-1
 74 750 l 2,18,19
 72 750 72 750 71 757.5 c 128,-1,20
 70 765 70 765 71 772.5 c 128,-1,21
 72 780 72 780 73 780 c 2,22,-1
 194 780 l 2,0,1
EndSplineSet
EndChar

StartChar: J
Encoding: 74 74 45
Width: 349
Flags: W
LayerCount: 2
Fore
SplineSet
180 36 m 0,0,1
 253 36 253 36 253 121 c 2,2,-1
 253 775 l 2,3,4
 253 782 253 782 269.5 780 c 128,-1,5
 286 778 286 778 287 775 c 2,6,-1
 287 107 l 2,7,8
 285 1 285 1 180 0 c 0,9,10
 69 2 69 2 68 119 c 0,11,12
 68 129 68 129 86 127 c 128,-1,13
 104 125 104 125 105 117 c 0,14,15
 105 52 105 52 148 40 c 0,16,17
 162 36 162 36 180 36 c 0,0,1
EndSplineSet
EndChar

StartChar: K
Encoding: 75 75 46
Width: 559
Flags: W
LayerCount: 2
Fore
SplineSet
489 748 m 2,0,-1
 196 424 l 1,1,-1
 466 23 l 2,2,3
 469 17 469 17 451 7.5 c 128,-1,4
 433 -2 433 -2 428 2 c 2,5,-1
 164 393 l 1,6,-1
 104 333 l 1,7,-1
 104 5 l 2,8,9
 104 -3 104 -3 84.5 -0.5 c 128,-1,10
 65 2 65 2 64 5 c 2,11,-1
 63 774 l 2,12,13
 63 782 63 782 82 780 c 128,-1,14
 101 778 101 778 102 774 c 2,15,-1
 102 383 l 1,16,-1
 461 776 l 2,17,18
 468 783 468 783 481 768.5 c 128,-1,19
 494 754 494 754 489 748 c 2,0,-1
EndSplineSet
EndChar

StartChar: L
Encoding: 76 76 47
Width: 420
Flags: W
LayerCount: 2
Fore
SplineSet
376 39 m 2,0,1
 383 39 383 39 381 20 c 128,-1,2
 379 1 379 1 376 0 c 2,3,-1
 52 0 l 1,4,-1
 52 775 l 2,5,6
 52 782 52 782 69.5 780 c 128,-1,7
 87 778 87 778 88 775 c 2,8,-1
 88 39 l 1,9,-1
 376 39 l 2,0,1
EndSplineSet
EndChar

StartChar: M
Encoding: 77 77 48
Width: 625
Flags: W
LayerCount: 2
Fore
SplineSet
62 3 m 2,0,-1
 62 780 l 1,1,-1
 306 467 l 1,2,-1
 569 780 l 1,3,-1
 569 5 l 2,4,5
 569 -1 569 -1 553.5 0.5 c 128,-1,6
 538 2 538 2 537 5 c 2,7,-1
 538 693 l 1,8,-1
 304 417 l 1,9,-1
 95 686 l 1,10,-1
 94 3 l 2,11,12
 94 -2 94 -2 78 -0.5 c 128,-1,13
 62 1 62 1 62 3 c 2,0,-1
EndSplineSet
EndChar

StartChar: N
Encoding: 78 78 49
Width: 577
Flags: W
LayerCount: 2
Fore
SplineSet
73 780 m 1,0,-1
 474 129 l 1,1,-1
 473 776 l 2,2,3
 473 782 473 782 489.5 780 c 128,-1,4
 506 778 506 778 507 776 c 2,5,-1
 508 4 l 1,6,-1
 107 665 l 1,7,-1
 107 6 l 2,8,9
 107 3 107 3 98.5 1.5 c 128,-1,10
 90 0 90 0 81.5 1 c 128,-1,11
 73 2 73 2 73 5 c 2,12,-1
 73 780 l 1,0,-1
EndSplineSet
EndChar

StartChar: O
Encoding: 79 79 50
Width: 661
Flags: W
LayerCount: 2
Fore
SplineSet
329 779 m 0,0,1
 469 779 469 779 545 644 c 0,2,3
 602 542 602 542 602 401 c 0,4,5
 602 222 602 222 526.5 111 c 128,-1,6
 451 0 451 0 329 -1 c 0,7,8
 166 -1 166 -1 102 181 c 0,9,10
 69 276 69 276 69 401 c 0,11,12
 69 581 69 581 150 687 c 0,13,14
 220 778 220 778 329 779 c 0,0,1
329 747 m 0,15,16
 207 747 207 747 142 617 c 0,17,18
 97 524 97 524 97 401 c 0,19,20
 97 237 97 237 162 130 c 0,21,22
 226 29 226 29 329 28 c 0,23,24
 455 28 455 28 521 170 c 0,25,26
 569 271 569 271 569 401 c 0,27,28
 569 556 569 556 498 656 c 0,29,30
 432 747 432 747 329 747 c 0,15,16
EndSplineSet
EndChar

StartChar: P
Encoding: 80 80 51
Width: 409
Flags: W
LayerCount: 2
Fore
SplineSet
65 780 m 1,0,1
 281 780 281 780 332 668 c 0,2,3
 351 628 351 628 351 573 c 0,4,5
 351 446 351 446 249 409 c 0,6,7
 195 390 195 390 101 390 c 1,8,-1
 101 4 l 2,9,10
 101 -3 101 -3 84 -0.5 c 128,-1,11
 67 2 67 2 66 4 c 2,12,-1
 65 780 l 1,0,1
101 740 m 1,13,-1
 102 426 l 1,14,15
 299 426 299 426 315 552 c 0,16,17
 316 563 316 563 316 573 c 0,18,19
 316 680 316 680 208 721 c 0,20,21
 159 740 159 740 101 740 c 1,13,-1
EndSplineSet
EndChar

StartChar: Q
Encoding: 81 81 52
Width: 669
Flags: W
LayerCount: 2
Fore
SplineSet
575 -2 m 1,0,1
 498.092773438 74.9072265625 l 1,2,3
 429 -0 429 -0 329 -1 c 0,4,5
 166.571178274 -2.62428821726 166.571178274 -2.62428821726 102 181 c 0,6,7
 69 276 69 276 69 401 c 0,8,9
 69 581 69 581 150 687 c 0,10,11
 220 778 220 778 329 779 c 0,12,13
 469 779 469 779 545 644 c 0,14,15
 602 542 602 542 602 401 c 0,16,17
 602 209 602 209 522 96 c 0,18,-1
 599 23 l 2,19,20
 602 20 602 20 591 6 c 0,21,22
 580 -7 580 -7 575 -2 c 1,0,1
496.5703125 125.4296875 m 1,23,-1
 510 146 510 146 521 170 c 0,45,46
 569 275 569 275 569 401 c 0,43,44
 569 558 569 558 498 656 c 0,41,42
 432 747 432 747 329 747 c 0,39,40
 205 747 205 747 142 617 c 0,37,38
 97 524 97 524 97 401 c 0,35,36
 97 233 97 233 162 130 c 0,33,34
 234 17 234 17 329 28 c 0,31,32
 426 39 426 39 472 99 c 0,29,30
 404 169 l 1,28,-1
 404 173 404 173 409 179 c 0,26,27
 425 197 425 197 429 193 c 2,24,25
 496.5703125 125.4296875 l 1,23,-1
EndSplineSet
EndChar

StartChar: R
Encoding: 82 82 53
Width: 431
Flags: W
LayerCount: 2
Fore
SplineSet
165 393 m 1,0,1
 165 393 165 393 208 361 c 0,2,3
 241 334 241 334 262 308 c 0,4,5
 362 182 362 182 362 7 c 0,6,7
 362 -1 362 -1 343.5 1.5 c 128,-1,8
 325 4 325 4 323 7 c 0,9,10
 307 118 307 118 296 154 c 0,11,12
 255 285 255 285 101 390 c 1,13,-1
 165 393 l 1,0,1
65 780 m 1,14,15
 281 780 281 780 332 668 c 0,16,17
 351 628 351 628 351 573 c 0,18,19
 351 446 351 446 249 409 c 0,20,21
 195 390 195 390 101 390 c 1,22,-1
 101 4 l 2,23,24
 101 -3 101 -3 84 -0.5 c 128,-1,25
 67 2 67 2 66 4 c 2,26,-1
 65 780 l 1,14,15
101 740 m 1,27,-1
 102 426 l 1,28,29
 299 426 299 426 315 552 c 0,30,31
 316 563 316 563 316 573 c 0,32,33
 316 680 316 680 208 721 c 0,34,35
 159 740 159 740 101 740 c 1,27,-1
EndSplineSet
EndChar

StartChar: S
Encoding: 83 83 54
Width: 539
Flags: W
LayerCount: 2
Fore
SplineSet
417.5 633 m 128,-1,1
 412 633 412 633 412 637 c 0,2,3
 397 703 397 703 337 732 c 0,4,5
 306 747 306 747 272 747 c 0,6,7
 194 747 194 747 155 688 c 0,8,9
 139 664 139 664 134 634 c 0,10,11
 114 497 114 497 219 441 c 0,12,13
 253 422 253 422 302 410 c 0,14,15
 371 392 371 392 414 326 c 0,16,17
 471 236 471 236 427.5 137.5 c 128,-1,18
 384 39 384 39 305 10 c 0,19,20
 277 0 277 0 248 0 c 0,21,22
 163 0 163 0 101 73 c 0,23,24
 80 98 80 98 70 122 c 0,25,26
 66 131 66 131 86 140 c 0,27,28
 100 146 100 146 104 141 c 0,29,30
 147 38 147 38 253 38 c 0,31,32
 319 39 319 39 378 134 c 0,33,34
 431 217 431 217 384 296 c 0,35,36
 349 355 349 355 286 371 c 0,37,38
 283 372 283 372 281 372 c 0,39,40
 121 405 121 405 97 539 c 0,41,42
 86 598 86 598 104 666 c 0,43,44
 126 748 126 748 211 772 c 0,45,46
 240 780 240 780 272 780 c 0,47,48
 409 780 409 780 447 643 c 0,49,50
 447 639 447 639 435 636 c 128,-1,0
 423 633 423 633 417.5 633 c 128,-1,1
EndSplineSet
EndChar

StartChar: T
Encoding: 84 84 55
Width: 470
Flags: W
LayerCount: 2
Fore
SplineSet
46 780 m 2,0,-1
 408 780 l 2,1,2
 415 780 415 780 413 763.5 c 128,-1,3
 411 747 411 747 408 746 c 2,4,-1
 245 746 l 1,5,-1
 245 5 l 2,6,7
 245 -2 245 -2 229 0 c 128,-1,8
 213 2 213 2 212 5 c 2,9,-1
 212 746 l 1,10,-1
 46 746 l 2,11,12
 39 746 39 746 41 762.5 c 128,-1,13
 43 779 43 779 46 780 c 2,0,-1
EndSplineSet
EndChar

StartChar: U
Encoding: 85 85 56
Width: 471
Flags: W
LayerCount: 2
Fore
SplineSet
237 0 m 0,0,1
 125 0 125 0 80 75 c 0,2,3
 58 112 58 112 58 160 c 2,4,-1
 58 775 l 2,5,6
 58 782 58 782 76.5 780 c 128,-1,7
 95 778 95 778 96 775 c 2,8,-1
 96 157 l 2,9,10
 96 67 96 67 184 45 c 0,11,12
 208 39 208 39 235 39 c 0,13,14
 308 39 308 39 352 86 c 0,15,16
 381 118 381 118 381 159 c 2,17,-1
 381 776 l 2,18,19
 381 782 381 782 398.5 780 c 128,-1,20
 416 778 416 778 417 776 c 2,21,-1
 417 160 l 2,22,23
 417 74 417 74 344 29 c 0,24,25
 297 0 297 0 237 0 c 0,0,1
EndSplineSet
EndChar

StartChar: V
Encoding: 86 86 57
Width: 581
Flags: W
LayerCount: 2
Fore
SplineSet
73 778 m 1,0,-1
 290 90 l 1,1,-1
 497 778 l 2,2,3
 499 785 499 785 513 779 c 128,-1,4
 527 773 527 773 527 770 c 2,5,-1
 291 1 l 1,6,-1
 46 772 l 2,7,8
 45 775 45 775 51 777 c 0,9,10
 67 783 67 783 73 778 c 1,0,-1
EndSplineSet
EndChar

StartChar: W
Encoding: 87 87 58
Width: 648
Flags: W
LayerCount: 2
Fore
SplineSet
31 773 m 2,0,1
 31 777 31 777 44 779 c 0,2,3
 66 781 66 781 66 777 c 2,4,-1
 185 108 l 1,5,-1
 324 460 l 1,6,-1
 447 96 l 1,7,-1
 574 776 l 2,8,9
 576 784 576 784 594.5 780 c 128,-1,10
 613 776 613 776 614 773 c 2,11,-1
 451 2 l 1,12,-1
 324 388 l 1,13,-1
 175 2 l 1,14,-1
 31 773 l 2,0,1
EndSplineSet
EndChar

StartChar: X
Encoding: 88 88 59
Width: 478
Flags: W
LayerCount: 2
Fore
SplineSet
234 363.368164062 m 0,0,-1
 82 1 l 2,21,-1
 79.0471166236 -6.03967715667 79.0471166236 -6.03967715667 60 10 c 0,19,20
 52 17 52 17 53 19 c 1,17,18
 218.494140625 403.461914062 l 0,16,-1
 65 766 l 2,15,-1
 64.1189011459 768.081068963 64.1189011459 768.081068963 75.059450573 775.540534482 c 128,-1,14
 86 783 86 783 88 778 c 1,12,13
 235 440.70703125 l 1,11,-1
 381 779 l 2,10,-1
 383.121434736 783.915523662 383.121434736 783.915523662 394.5 776 c 128,-1,9
 406 768 406 768 405 766 c 1,7,8
 251.505859375 402.461914062 l 1,6,-1
 417 19 l 2,5,-1
 418.222664303 16.1669982271 418.222664303 16.1669982271 410 10 c 0,3,4
 391 -4 391 -4 388 1 c 0,1,2
 234 363.368164062 l 0,0,-1
EndSplineSet
EndChar

StartChar: Y
Encoding: 89 89 60
Width: 468
Flags: W
LayerCount: 2
Fore
SplineSet
270 5 m 2,0,1
 270 -2 270 -2 252.5 0 c 128,-1,2
 235 2 235 2 234 5 c 2,3,-1
 234 508 l 1,4,-1
 50 759 l 2,5,6
 47 763 47 763 61 772 c 128,-1,7
 75 781 75 781 78 779 c 2,8,-1
 252 550 l 1,9,-1
 417 779 l 2,10,11
 421 784 421 784 433 772 c 128,-1,12
 445 760 445 760 445 758 c 2,13,-1
 270 507 l 1,14,-1
 270 5 l 2,0,1
EndSplineSet
EndChar

StartChar: Z
Encoding: 90 90 61
Width: 629
Flags: W
LayerCount: 2
Fore
SplineSet
579 34 m 2,0,1
 583 34 583 34 581 17.5 c 128,-1,2
 579 1 579 1 578 0 c 2,3,-1
 66 0 l 1,4,-1
 520 745 l 1,5,-1
 75 745 l 2,6,7
 70 745 70 745 72 772 c 0,8,9
 74 779 74 779 75 780 c 2,10,-1
 580 780 l 1,11,-1
 126 34 l 1,12,-1
 579 34 l 2,0,1
EndSplineSet
EndChar

StartChar: bracketleft
Encoding: 91 91 62
Width: 245
Flags: W
LayerCount: 2
Fore
SplineSet
60 780 m 1,0,-1
 186 780 l 2,1,2
 194 780 194 780 192 759 c 0,3,4
 190 750 190 750 186 749 c 2,5,-1
 85 749 l 1,6,-1
 85 29 l 1,7,-1
 172 29 l 2,8,9
 179 29 179 29 177 9 c 0,10,11
 175 1 175 1 172 0 c 2,12,-1
 60 0 l 1,13,-1
 60 780 l 1,0,-1
EndSplineSet
EndChar

StartChar: underscore
Encoding: 95 95 65
Width: 481
Flags: W
LayerCount: 2
Fore
SplineSet
68 35 m 2,0,-1
 413 35 l 2,1,2
 419 35 419 35 417.5 18 c 128,-1,3
 416 1 416 1 413 0 c 2,4,-1
 68 0 l 2,5,6
 63 0 63 0 64.5 17 c 128,-1,7
 66 34 66 34 68 35 c 2,0,-1
EndSplineSet
EndChar

StartChar: a
Encoding: 97 97 67
Width: 382
Flags: W
LayerCount: 2
Fore
SplineSet
270 48 m 1,0,1
 222 0 222 0 152.5 0 c 128,-1,2
 83 0 83 0 56 62 c 0,3,4
 43 94 43 94 43 135 c 0,5,6
 43 198 43 198 102 226 c 0,7,8
 129 239 129 239 157 239 c 128,-1,9
 185 239 185 239 239 234 c 1,10,11
 244 258 244 258 240 297 c 0,12,13
 233 353 233 353 161 354 c 0,14,15
 101 354 101 354 80 315 c 0,16,17
 75 307 75 307 62.5 313.5 c 128,-1,18
 50 320 50 320 49 324 c 0,19,20
 65 369 65 369 127 382 c 0,21,22
 143 385 143 385 161 385 c 0,23,24
 226 385 226 385 258 346 c 0,25,26
 276 323 276 323 274 296 c 0,27,28
 269 216 269 216 278 146.5 c 128,-1,29
 287 77 287 77 295 61 c 0,30,31
 312 28 312 28 326 32.5 c 128,-1,32
 340 37 340 37 344 44 c 128,-1,33
 348 51 348 51 360 37 c 0,34,35
 367 27 367 27 364 21 c 0,36,37
 350 0 350 0 324 -1 c 0,38,39
 285 1 285 1 270 48 c 1,0,1
241 197 m 1,40,41
 78 229 78 229 77 122 c 0,42,43
 77 49 77 49 140 35 c 0,44,45
 152 33 152 33 164 33 c 0,46,47
 204 34 204 34 256 80 c 1,48,49
 244 119 244 119 241 197 c 1,40,41
EndSplineSet
EndChar

StartChar: c
Encoding: 99 99 69
Width: 349
Flags: W
LayerCount: 2
Fore
SplineSet
198 386 m 0,0,1
 279 386 279 386 312 336 c 0,2,3
 314 334 314 334 300 324 c 128,-1,4
 286 314 286 314 283 316 c 0,5,6
 257 350 257 350 202 350 c 128,-1,7
 147 350 147 350 108 294 c 0,8,9
 76 250 76 250 76 196 c 0,10,11
 76 101 76 101 127 55 c 0,12,13
 153 33 153 33 182 33 c 0,14,15
 235 33 235 33 263 66 c 0,16,17
 268 72 268 72 279 87 c 0,18,19
 285 95 285 95 298 83.5 c 128,-1,20
 311 72 311 72 309 68 c 0,21,22
 277 25 277 25 249.5 12.5 c 128,-1,23
 222 0 222 0 183 0 c 0,24,25
 103 0 103 0 64 84 c 0,26,27
 42 134 42 134 42 206.5 c 128,-1,28
 42 279 42 279 89.5 332.5 c 128,-1,29
 137 386 137 386 198 386 c 0,0,1
EndSplineSet
EndChar

StartChar: d
Encoding: 100 100 70
Width: 450
Flags: W
LayerCount: 2
Fore
SplineSet
354 777 m 2,0,1
 354 782 354 782 379 780 c 0,2,3
 385 778 385 778 386 777 c 2,4,-1
 386 3 l 2,5,6
 386 -2 386 -2 361 0 c 0,7,8
 355 2 355 2 354 3 c 2,9,-1
 354 49 l 1,10,11
 297 4 297 4 223 0 c 1,12,13
 223 0 223 0 205 0 c 0,14,15
 144 0 144 0 97 70 c 0,16,17
 59 129 59 129 59 196.5 c 128,-1,18
 59 264 59 264 101 321 c 0,19,20
 151 386 151 386 238 387 c 0,21,22
 290 387 290 387 346 351 c 0,23,24
 351 348 351 348 355 345 c 1,25,-1
 354 777 l 2,0,1
206 32 m 0,26,27
 290 33 290 33 354 88 c 1,28,-1
 354 291 l 1,29,30
 334 325 334 325 282 346 c 0,31,32
 258 355 258 355 238 355 c 0,33,34
 143 355 143 355 105 258 c 0,35,36
 90 221 90 221 90 191 c 0,37,38
 90 101 90 101 155 53 c 0,39,40
 184 32 184 32 206 32 c 0,26,27
EndSplineSet
EndChar

StartChar: e
Encoding: 101 101 71
Width: 374
Flags: W
LayerCount: 2
Fore
SplineSet
332 241 m 1,0,-1
 88 241 l 1,1,2
 72 163 72 163 106 96 c 0,3,4
 139 35 139 35 195 34 c 0,5,6
 267 34 267 34 288 77 c 0,7,8
 294 92 294 92 298 112 c 1,9,10
 307 117 307 117 320.5 112 c 128,-1,11
 334 107 334 107 335 105 c 0,12,13
 319 19 319 19 240 4 c 0,14,15
 219 0 219 0 195 0 c 0,16,17
 85 0 85 0 57 134 c 0,18,19
 31 250 31 250 87 339 c 1,20,21
 123 385 123 385 190 387 c 0,22,23
 270 387 270 387 310 340 c 0,24,25
 332 313 332 313 332 279 c 2,26,-1
 332 241 l 1,0,-1
294 276 m 1,27,28
 294 321 294 321 241 343 c 0,29,30
 216 353 216 353 190 353 c 0,31,32
 145 353 145 353 114 317 c 0,33,34
 96 296 96 296 96 276 c 1,35,-1
 294 276 l 1,27,28
EndSplineSet
EndChar

StartChar: f
Encoding: 102 102 72
Width: 281
Flags: W
LayerCount: 2
Fore
SplineSet
194 334 m 2,0,1
 202 334 202 334 200 351 c 128,-1,2
 198 368 198 368 194 369 c 2,3,-1
 134 369 l 1,4,-1
 134 670 l 1,5,6
 138 738 138 738 171 742 c 0,7,8
 191 741 191 741 208 725 c 0,9,10
 213 720 213 720 226 738 c 0,11,12
 234 752 234 752 231 756 c 0,13,14
 198 780 198 780 170 780 c 0,15,16
 113 780 113 780 102 713 c 0,17,18
 100 700 100 700 100 687 c 2,19,-1
 100 369 l 1,20,-1
 51 369 l 2,21,22
 44 369 44 369 46.5 352 c 128,-1,23
 49 335 49 335 51 334 c 2,24,-1
 100 334 l 1,25,-1
 100 5 l 2,26,27
 100 -2 100 -2 116.5 0 c 128,-1,28
 133 2 133 2 134 5 c 2,29,-1
 134 334 l 1,30,-1
 194 334 l 2,0,1
EndSplineSet
EndChar

StartChar: g
Encoding: 103 103 73
Width: 440
Flags: W
LayerCount: 2
Fore
SplineSet
374 -24 m 2,0,1
 374 -103 374 -103 301 -141 c 0,2,3
 259 -163 259 -163 207 -163 c 0,4,5
 120 -163 120 -163 61 -89 c 0,6,7
 58 -82 58 -82 66 -73 c 0,8,9
 76 -60 76 -60 83 -57 c 1,10,11
 127 -101 127 -101 151.5 -112.5 c 128,-1,12
 176 -124 176 -124 207 -124 c 0,13,14
 272 -124 272 -124 312 -87 c 0,15,16
 338 -60 338 -60 339 -24 c 2,17,-1
 340 61 l 1,18,19
 297 15 297 15 234 3 c 0,20,21
 220 0 220 0 207 0 c 0,22,23
 124 0 124 0 83 82.5 c 128,-1,24
 42 165 42 165 63 257 c 128,-1,25
 84 349 84 349 157 375 c 0,26,27
 180 384 180 384 207 384 c 0,28,29
 289 383 289 383 339 331 c 1,30,-1
 339 378 l 2,31,32
 339 385 339 385 356.5 383 c 128,-1,33
 374 381 374 381 374 379 c 2,34,-1
 374 -24 l 2,0,1
207 348 m 0,35,36
 134 348 134 348 106 271 c 0,37,38
 79 199 79 199 106 124 c 0,39,40
 136 37 136 37 207 37 c 0,41,42
 267 37 267 37 307 82 c 0,43,44
 336 115 336 115 336 157 c 2,45,-1
 336 263 l 2,46,47
 336 294 336 294 300 321 c 0,48,49
 263 348 263 348 207 348 c 0,35,36
EndSplineSet
EndChar

StartChar: h
Encoding: 104 104 74
Width: 373
Flags: W
LayerCount: 2
Fore
SplineSet
184 354 m 2,0,1
 120 354 120 354 92 319 c 0,2,3
 80 303 80 303 80 285 c 2,4,-1
 80 3 l 1,5,-1
 80 2 l 2,6,7
 80 -1.94773925886 80 -1.94773925886 63.4413144155 -0.538256710986 c 0,8,9
 58.8556269712 -0.433750146015 58.8556269712 -0.433750146015 53 0 c 0,10,11
 51.4095856346 0.454404104386 51.4095856346 0.454404104386 50.1288957398 0.857186239232 c 0,12,13
 45.5071160207 1.49288534099 45.5071160207 1.49288534099 45 2 c 2,14,-1
 45 3 l 1,15,-1
 45 296 l 1,16,-1
 45 777 l 2,17,18
 45 781 45 781 62 779.5 c 128,-1,19
 79 778 79 778 80 777 c 2,20,-1
 80 358.342737764 l 1,21,22
 93.0624593628 367.205477031 93.0624593628 367.205477031 111 374 c 0,23,24
 145 386 145 386 184 386 c 0,25,26
 288 386 288 386 315 331 c 0,27,28
 322 315 322 315 322 298 c 2,29,-1
 322 4 l 2,30,31
 322 -2 322 -2 305 0 c 128,-1,32
 288 2 288 2 287 4 c 2,33,-1
 287 288 l 2,34,35
 287 351 287 351 189 354 c 2,36,-1
 184 354 l 2,0,1
EndSplineSet
EndChar

StartChar: j
Encoding: 106 106 76
Width: 289
Flags: W
LayerCount: 2
Fore
SplineSet
104 -220 m 0,0,1
 175 -220 175 -220 175 -113 c 2,2,-1
 175 373 l 2,3,4
 175 378 175 378 195 376.5 c 128,-1,5
 215 375 215 375 216 373 c 2,6,-1
 216 -114 l 2,7,8
 216 -221 216 -221 169 -248 c 0,9,10
 144 -262 144 -262 105 -262 c 0,11,12
 18 -262 18 -262 3 -167 c 0,13,14
 0 -144 0 -144 0 -117 c 0,15,16
 0 -111 0 -111 20.5 -113 c 128,-1,17
 41 -115 41 -115 42 -117 c 0,18,19
 43 -219 43 -219 104 -220 c 0,0,1
192 472 m 0,20,21
 160 472 160 472 154 500.5 c 128,-1,22
 148 529 148 529 172 543 c 0,23,24
 182 548 182 548 193 548 c 0,25,26
 224 548 224 548 230 519.5 c 128,-1,27
 236 491 236 491 213 477 c 0,28,29
 204 472 204 472 192 472 c 0,20,21
EndSplineSet
EndChar

StartChar: k
Encoding: 107 107 77
Width: 344
Flags: W
LayerCount: 2
Fore
SplineSet
96 4 m 2,0,1
 96 -2 96 -2 81 0 c 128,-1,2
 66 2 66 2 65 4 c 2,3,-1
 65 776 l 2,4,5
 65 782 65 782 80 780 c 128,-1,6
 95 778 95 778 96 776 c 2,7,-1
 96 227 l 1,8,-1
 247 389 l 2,9,10
 252 394 252 394 266 379 c 0,11,12
 272 371 272 371 270 368 c 2,13,-1
 119 204 l 1,14,-1
 309 25 l 2,15,16
 314 20 314 20 302.5 10.5 c 128,-1,17
 291 1 291 1 288 2 c 2,18,-1
 96 181 l 1,19,-1
 96 4 l 2,0,1
EndSplineSet
EndChar

StartChar: l
Encoding: 108 108 78
Width: 228
Flags: W
LayerCount: 2
Fore
SplineSet
122 0 m 0,0,1
 65 0 65 0 54 67 c 0,2,3
 52 80 52 80 52 93 c 2,4,-1
 52 775 l 2,5,6
 52 782 52 782 68.5 780 c 128,-1,7
 85 778 85 778 86 775 c 2,8,-1
 86 110 l 1,9,10
 90 42 90 42 123 38 c 0,11,12
 143 39 143 39 160 55 c 0,13,14
 165 60 165 60 178 42 c 0,15,16
 186 28 186 28 183 24 c 0,17,18
 150 0 150 0 122 0 c 0,0,1
EndSplineSet
EndChar

StartChar: m
Encoding: 109 109 79
Width: 611
Flags: W
LayerCount: 2
Fore
SplineSet
429 354 m 2,0,1
 365 354 365 354 337 319 c 0,2,3
 325 303 325 303 325 285 c 2,4,-1
 325 4 l 1,5,-1
 325 3 l 2,6,7
 325 1.56586594528 325 1.56586594528 322.778720296 0.70761917474 c 0,8,9
 320.268040133 -0.56229769605 320.268040133 -0.56229769605 314.919574665 -0.49678623056 c 0,10,11
 308.502379443 -0.777954032839 308.502379443 -0.777954032839 298 0 c 0,12,13
 291 2 291 2 290 3 c 2,14,-1
 290 4 l 1,15,-1
 290 288 l 2,16,17
 290 351 290 351 192 354 c 2,18,-1
 187 354 l 2,19,20
 123 354 123 354 95 319 c 0,21,22
 83 303 83 303 83 285 c 2,23,-1
 83 3 l 2,24,25
 83 -2 83 -2 56 0 c 0,26,27
 49 2 49 2 48 3 c 2,28,-1
 48 296 l 2,29,30
 48 349 48 349 114 374 c 0,31,32
 148 386 148 386 187 386 c 0,33,34
 276.785912964 386 276.785912964 386 309.181267233 345.006743789 c 1,35,36
 325.580382761 362.477417712 325.580382761 362.477417712 356 374 c 0,37,38
 390 386 390 386 429 386 c 0,39,40
 533 386 533 386 560 331 c 0,41,42
 567 315 567 315 567 298 c 2,43,-1
 567 4 l 2,44,45
 567 -2 567 -2 550 0 c 128,-1,46
 533 2 533 2 532 4 c 2,47,-1
 532 288 l 2,48,49
 532 351 532 351 434 354 c 2,50,-1
 429 354 l 2,0,1
EndSplineSet
EndChar

StartChar: n
Encoding: 110 110 80
Width: 392
Flags: W
LayerCount: 2
Fore
SplineSet
199 354 m 2,0,1
 135 354 135 354 107 319 c 0,2,3
 95 303 95 303 95 285 c 2,4,-1
 95 3 l 2,5,6
 95 -2 95 -2 68 0 c 0,7,8
 61 2 61 2 60 3 c 2,9,-1
 60 296 l 2,10,11
 60 349 60 349 126 374 c 0,12,13
 160 386 160 386 199 386 c 0,14,15
 303 386 303 386 330 331 c 0,16,17
 337 315 337 315 337 298 c 2,18,-1
 337 4 l 2,19,20
 337 -2 337 -2 320 0 c 128,-1,21
 303 2 303 2 302 4 c 2,22,-1
 302 288 l 2,23,24
 302 351 302 351 204 354 c 2,25,-1
 199 354 l 2,0,1
EndSplineSet
EndChar

StartChar: o
Encoding: 111 111 81
Width: 392
Flags: W
LayerCount: 2
Fore
SplineSet
365 187 m 0,0,1
 365 0 365 0 198 0 c 0,2,3
 88 0 88 0 47 97 c 0,4,5
 30 138 30 138 30 187 c 0,6,7
 30 317 30 317 112 365 c 0,8,9
 149 386 149 386 198 386 c 0,10,11
 321 386 321 386 354 269 c 0,12,13
 365 232 365 232 365 187 c 0,0,1
63 187 m 0,14,15
 63 109 63 109 120 63 c 0,16,17
 156 34 156 34 198 34 c 0,18,19
 288 34 288 34 319 112 c 0,20,21
 332 145 332 145 332 187 c 0,22,23
 332 290 332 290 271 331 c 0,24,25
 240 352 240 352 199 352 c 0,26,27
 112 352 112 352 78 269 c 0,28,29
 63 232 63 232 63 187 c 0,14,15
EndSplineSet
EndChar

StartChar: p
Encoding: 112 112 82
Width: 452
Flags: W
LayerCount: 2
Fore
SplineSet
113 -242 m 2,0,1
 113 -247 113 -247 86 -245 c 0,2,3
 79 -243 79 -243 78 -242 c 2,4,-1
 78 388 l 1,5,-1
 133 388 l 2,6,7
 304 388 304 388 365 327 c 0,8,9
 411 280 411 280 411 194 c 0,10,11
 411 59 411 59 296 20 c 0,12,13
 234 0 234 0 113 0 c 1,14,-1
 113 -242 l 2,0,1
114 353 m 1,15,-1
 114 36 l 1,16,17
 302 36 302 36 352 108 c 0,18,19
 375 141 375 141 375 189 c 0,20,21
 375 298 375 298 284 332 c 0,22,23
 226 353 226 353 114 353 c 1,15,-1
EndSplineSet
EndChar

StartChar: r
Encoding: 114 114 84
Width: 354
Flags: W
LayerCount: 2
Fore
SplineSet
44 4 m 2,0,-1
 44 382 l 2,1,2
 44 388 44 388 61 386 c 128,-1,3
 78 384 78 384 79 382 c 2,4,-1
 79 297 l 1,5,6
 120 356 120 356 148.5 371 c 128,-1,7
 177 386 177 386 207 386 c 0,8,9
 276 386 276 386 318 334 c 0,10,11
 328 323 328 323 313 312 c 128,-1,12
 298 301 298 301 290 308 c 0,13,14
 261 337 261 337 244.5 343 c 128,-1,15
 228 349 228 349 207 349 c 0,16,17
 149 349 149 349 100 263 c 0,18,19
 79 228 79 228 79 207 c 2,20,-1
 79 4 l 2,21,22
 79 -2 79 -2 62 -0.5 c 128,-1,23
 45 1 45 1 44 4 c 2,0,-1
EndSplineSet
EndChar

StartChar: s
Encoding: 115 115 85
Width: 306
Flags: W
LayerCount: 2
Fore
SplineSet
268 108 m 2,0,1
 268 49 268 49 220 17 c 0,2,3
 195 0 195 0 167 0 c 0,4,5
 100 0 100 0 75 38 c 0,6,7
 66 54 66 54 58 79 c 0,8,9
 56 86 56 86 69 90 c 0,10,11
 86 94 86 94 92 89 c 0,12,13
 110 51 110 51 125.5 43 c 128,-1,14
 141 35 141 35 165 35 c 0,15,16
 203 35 203 35 225 72 c 0,17,18
 235 90 235 90 235 108 c 0,19,20
 233 161 233 161 135 179 c 0,21,22
 66 191 66 191 53 249 c 0,23,24
 50 267 50 267 50 288 c 0,25,26
 50 369 50 369 121 384 c 0,27,28
 135 387 135 387 150 387 c 0,29,30
 243 385 243 385 254 296 c 0,31,32
 254 291 254 291 246 288 c 128,-1,33
 238 285 238 285 229.5 286.5 c 128,-1,34
 221 288 221 288 221 293 c 0,35,36
 212 338 212 338 193 346.5 c 128,-1,37
 174 355 174 355 150 355 c 0,38,39
 100 355 100 355 87 310 c 0,40,41
 84 299 84 299 84 288 c 0,42,43
 84 234 84 234 125 218 c 0,44,45
 141 212 141 212 185 204.5 c 128,-1,46
 229 197 229 197 255 156 c 0,47,48
 268 134 268 134 268 110 c 2,49,-1
 268 108 l 2,0,1
EndSplineSet
EndChar

StartChar: t
Encoding: 116 116 86
Width: 374
Flags: W
LayerCount: 2
Fore
SplineSet
61 348 m 2,0,1
 56 348 56 348 58 365.5 c 128,-1,2
 60 383 60 383 62 384 c 2,3,-1
 161 384 l 1,4,-1
 161 386 l 1,5,-1
 161 519 l 2,6,7
 161 524 161 524 189 522 c 0,8,9
 196 520 196 520 197 519 c 2,10,-1
 197 386 l 1,11,-1
 197 384 l 1,12,-1
 297 384 l 2,13,14
 303 384 303 384 300 356 c 0,15,16
 298 349 298 349 297 348 c 2,17,-1
 197 348 l 1,18,-1
 197 64 l 2,19,20
 197 44 197 44 216 39 c 0,21,22
 219 38 219 38 222 38 c 0,23,24
 239 38 239 38 248 47.5 c 128,-1,25
 257 57 257 57 260 59 c 0,26,27
 267 65 267 65 277.5 51 c 128,-1,28
 288 37 288 37 286 33 c 0,29,30
 258 0 258 0 222 0 c 0,31,32
 172 0 172 0 162 50 c 0,33,34
 161 58 161 58 161 64 c 2,35,-1
 161 348 l 1,36,-1
 61 348 l 2,0,1
EndSplineSet
EndChar

StartChar: v
Encoding: 118 118 88
Width: 428
Flags: W
LayerCount: 2
Fore
SplineSet
52 377 m 2,0,1
 51 379 51 379 65 385 c 128,-1,2
 79 391 79 391 86 386 c 1,3,-1
 231 86 l 1,4,-1
 354 384 l 2,5,6
 356 390 356 390 369.5 381.5 c 128,-1,7
 383 373 383 373 383 371 c 2,8,-1
 233 2 l 1,9,-1
 52 377 l 2,0,1
EndSplineSet
EndChar

StartChar: w
Encoding: 119 119 89
Width: 650
Flags: W
LayerCount: 2
Fore
SplineSet
28 368 m 2,0,1
 27 370 27 370 35 375 c 0,2,3
 56 388 56 388 61 383 c 2,4,-1
 201 87 l 1,5,-1
 339 384 l 1,6,-1
 471 90 l 1,7,-1
 570 384 l 2,8,9
 572 390 572 390 587.5 382 c 128,-1,10
 603 374 603 374 604 373 c 2,11,-1
 474 1 l 1,12,-1
 337 303 l 1,13,-1
 201 1 l 1,14,-1
 28 368 l 2,0,1
EndSplineSet
EndChar

StartChar: x
Encoding: 120 120 90
Width: 404
Flags: W
LayerCount: 2
Fore
SplineSet
99 390 m 2,0,-1
 218 231 l 1,1,-1
 333 388 l 2,2,3
 336 394 336 394 350 382 c 128,-1,4
 364 370 364 370 364 367 c 2,5,-1
 245 198 l 1,6,-1
 374 28 l 2,7,8
 377 24 377 24 360 11.5 c 128,-1,9
 343 -1 343 -1 341 2 c 2,10,-1
 218 164 l 1,11,-1
 103 3 l 2,12,13
 99 -2 99 -2 84 7.5 c 128,-1,14
 69 17 69 17 69 20 c 2,15,-1
 190 196 l 1,16,-1
 66 367 l 2,17,18
 63 370 63 370 79.5 381 c 128,-1,19
 96 392 96 392 99 390 c 2,0,-1
EndSplineSet
EndChar

StartChar: y
Encoding: 121 121 91
Width: 486
Flags: W
LayerCount: 2
Fore
SplineSet
430 364 m 1,0,-1
 132 -256 l 2,1,2
 129 -262 129 -262 115 -252 c 128,-1,3
 101 -242 101 -242 101 -240 c 2,4,-1
 211 -10 l 1,5,-1
 58 359 l 2,6,7
 53 364 53 364 79 374 c 0,8,9
 95 380 95 380 95 375 c 2,10,-1
 235 32 l 1,11,-1
 397 375 l 2,12,13
 397 376 397 376 399.5 376 c 128,-1,14
 402 376 402 376 405 375.5 c 128,-1,15
 408 375 408 375 411.5 373.5 c 128,-1,16
 415 372 415 372 418 370.5 c 128,-1,17
 421 369 421 369 424 368 c 128,-1,18
 427 367 427 367 430 364 c 1,0,-1
EndSplineSet
EndChar

StartChar: z
Encoding: 122 122 92
Width: 468
Flags: W
LayerCount: 2
Fore
SplineSet
80 386 m 2,0,-1
 419 386 l 1,1,-1
 149 35 l 1,2,-1
 416 35 l 2,3,4
 420 35 420 35 418.5 18 c 128,-1,5
 417 1 417 1 416 0 c 2,6,-1
 77 0 l 1,7,-1
 349 352 l 1,8,-1
 80 352 l 2,9,10
 73 352 73 352 75.5 368.5 c 128,-1,11
 78 385 78 385 80 386 c 2,0,-1
EndSplineSet
EndChar

StartChar: braceleft
Encoding: 123 123 93
Width: 304
Flags: W
LayerCount: 2
Fore
SplineSet
262 42 m 0,0,1
 268 42 268 42 266 21 c 128,-1,2
 264 0 264 0 263 0 c 0,3,4
 133 1 133 1 110 74 c 0,5,6
 94 130 94 130 125 225 c 0,7,8
 130 239 130 239 134 248 c 0,9,10
 171 329 171 329 91 376 c 0,11,12
 69 388 69 388 68 392 c 0,13,14
 68 403 68 403 102 420 c 0,15,16
 150 448 150 448 162 484 c 0,17,18
 165 492 165 492 165 499 c 0,19,20
 165 522 165 522 133 591 c 128,-1,21
 101 660 101 660 101 677 c 0,22,23
 101 756 101 756 181 773 c 0,24,25
 213 780 213 780 262 780 c 0,26,27
 268 780 268 780 265 751 c 0,28,29
 263 744 263 744 262 743 c 0,30,31
 141 743 141 743 142 682 c 0,32,33
 143 658 143 658 159 625 c 0,34,35
 205 539 205 539 205 500 c 0,36,37
 204 446 204 446 137 391 c 1,38,39
 209 348 209 348 172 237 c 0,40,41
 125 97 125 97 167 65 c 0,42,43
 200 42 200 42 262 42 c 0,0,1
EndSplineSet
EndChar

StartChar: bar
Encoding: 124 124 94
Width: 196
Flags: W
LayerCount: 2
Fore
SplineSet
60 2 m 2,0,-1
 60 777 l 2,1,2
 60 781 60 781 77 779.5 c 128,-1,3
 94 778 94 778 95 777 c 2,4,-1
 95 2 l 2,5,6
 95 -2 95 -2 78 -0.5 c 128,-1,7
 61 1 61 1 60 2 c 2,0,-1
EndSplineSet
EndChar

StartChar: asciitilde
Encoding: 126 126 96
Width: 478
Flags: W
LayerCount: 2
Fore
SplineSet
327 472 m 0,0,1
 313 469 313 469 294 469 c 128,-1,2
 275 469 275 469 236 492 c 128,-1,3
 197 515 197 515 172 514.5 c 128,-1,4
 147 514 147 514 105 470 c 0,5,6
 101 465 101 465 86 480 c 0,7,8
 79 489 79 489 81 493 c 0,9,10
 130 546 130 546 177 547 c 0,11,12
 202 547 202 547 242 523 c 128,-1,13
 282 499 282 499 299 499 c 0,14,15
 358 500 358 500 385 545 c 0,16,17
 389 551 389 551 401.5 543 c 128,-1,18
 414 535 414 535 414 532 c 0,19,20
 389 485 389 485 327 472 c 0,0,1
EndSplineSet
EndChar

StartChar: copyright
Encoding: 169 169 100
Width: 558
Flags: W
LayerCount: 2
Fore
SplineSet
283 733 m 0,0,1
 412 733 412 733 477 638 c 0,2,3
 531 557 531 557 511.5 457.5 c 128,-1,4
 492 358 492 358 406 310 c 0,5,6
 351 280 351 280 280 280 c 0,7,8
 156 280 156 280 95 377 c 0,9,10
 44 459 44 459 66 560.5 c 128,-1,11
 88 662 88 662 173 707 c 0,12,13
 221 733 221 733 283 733 c 0,0,1
362 681 m 0,14,15
 325 696 325 696 278 696 c 128,-1,16
 231 696 231 696 191.5 675 c 128,-1,17
 152 654 152 654 131.5 620.5 c 128,-1,18
 111 587 111 587 101 546.5 c 128,-1,19
 91 506 91 506 100.5 465.5 c 128,-1,20
 110 425 110 425 130 391.5 c 128,-1,21
 150 358 150 358 190.5 337 c 128,-1,22
 231 316 231 316 282 316 c 0,23,24
 398 316 398 316 450 403 c 0,25,26
 494 476 494 476 468 562 c 256,27,28
 442 648 442 648 362 681 c 0,14,15
231 425.5 m 128,-1,30
 253 405 253 405 284 405.5 c 128,-1,31
 315 406 315 406 335 440 c 0,32,33
 339 447 339 447 356 439 c 128,-1,34
 373 431 373 431 373 427 c 0,35,36
 347 382 347 382 310 374 c 0,37,38
 297 372 297 372 283 372 c 0,39,40
 209 372 209 372 178.5 438 c 128,-1,41
 148 504 148 504 174 572 c 0,42,43
 204 646 204 646 286 646 c 0,44,45
 334 645 334 645 361 602 c 0,46,47
 367 595 367 595 349 587 c 128,-1,48
 331 579 331 579 329 581 c 0,49,50
 314 605 314 605 280.5 605.5 c 128,-1,51
 247 606 247 606 225 585.5 c 128,-1,52
 203 565 203 565 199.5 535.5 c 128,-1,53
 196 506 196 506 202.5 476 c 128,-1,29
 209 446 209 446 231 425.5 c 128,-1,30
EndSplineSet
EndChar

StartChar: AE
Encoding: 198 198 108
Width: 755
Flags: W
LayerCount: 2
Fore
SplineSet
420 712 m 1,0,-1
 278 415 l 1,1,-1
 421 415 l 1,2,-1
 421 382 l 1,3,-1
 264 382 l 1,4,-1
 77 2 l 2,5,6
 74 -4 74 -4 58.5 6 c 128,-1,7
 43 16 43 16 43 19 c 2,8,-1
 420 780 l 1,9,-1
 420 712 l 1,0,-1
420 780 m 1,10,-1
 733 780 l 2,11,12
 740 780 740 780 737.5 764.5 c 128,-1,13
 735 749 735 749 733 748 c 2,14,-1
 454 748 l 1,15,-1
 454 416 l 1,16,-1
 520 416 l 2,17,18
 525 416 525 416 523 399.5 c 128,-1,19
 521 383 521 383 519 382 c 2,20,-1
 455 382 l 1,21,-1
 455 35 l 1,22,-1
 733 35 l 2,23,24
 739 35 739 35 737 18 c 128,-1,25
 735 1 735 1 733 0 c 2,26,-1
 421 0 l 1,27,-1
 420 780 l 1,10,-1
EndSplineSet
EndChar

StartChar: germandbls
Encoding: 223 223 130
Width: 488
Flags: W
LayerCount: 2
Fore
SplineSet
254 343 m 0,0,1
 362 311 362 311 379 206 c 0,2,3
 389 145 389 145 354 88 c 0,4,5
 312 21 312 21 244 37 c 0,6,7
 231 40 231 40 220 45 c 256,8,9
 209 50 209 50 204 35 c 128,-1,10
 199 20 199 20 207 15 c 0,11,12
 300 -28 300 -28 367 46 c 0,13,14
 394 77 394 77 408 117 c 0,15,16
 446 223 446 223 377 306 c 0,17,18
 339 352 339 352 283 372 c 1,19,20
 366 391 366 391 413.5 464.5 c 128,-1,21
 461 538 461 538 440 624 c 128,-1,22
 419 710 419 710 345 735 c 0,23,24
 320 743 320 743 293 743 c 0,25,26
 180 743 180 743 157 668 c 0,27,28
 132 571 132 571 79 -27 c 0,29,30
 67 -158 67 -158 67 -176 c 0,31,32
 67 -182 67 -182 75.5 -184.5 c 128,-1,33
 84 -187 84 -187 92.5 -185 c 128,-1,34
 101 -183 101 -183 101 -179 c 0,35,36
 169 518 169 518 186 626 c 0,37,38
 194 677 194 677 243 697 c 0,39,40
 263 704 263 704 284 704 c 0,41,42
 360 704 360 704 391 643 c 0,43,44
 452 514 452 514 315 427 c 0,45,46
 276 404 276 404 229 387 c 0,47,48
 204 378 204 378 225 359 c 0,49,50
 237 348 237 348 254 343 c 0,0,1
EndSplineSet
EndChar

StartChar: ae
Encoding: 230 230 135
Width: 556
Flags: W
LayerCount: 2
Fore
SplineSet
502 277 m 1,0,1
 502 322 502 322 449 344 c 0,2,3
 424 354 424 354 398 354 c 0,4,5
 353 354 353 354 322 318 c 0,6,7
 304 297 304 297 304 277 c 1,8,-1
 502 277 l 1,0,1
540 242 m 1,9,-1
 296 242 l 1,10,11
 280 164 280 164 314 97 c 0,12,13
 347 36 347 36 403 35 c 0,14,15
 475 35 475 35 496 78 c 0,16,17
 502 93 502 93 506 113 c 1,18,19
 515 118 515 118 528.5 113 c 128,-1,20
 542 108 542 108 543 106 c 0,21,22
 527 20 527 20 448 5 c 0,23,24
 427 1 427 1 403 1 c 0,25,26
 329.719603773 1 329.719603773 1 292.831054706 60.4696038961 c 1,27,-1
 293 55 l 1,28,29
 279 26 279 26 227 8 c 0,30,31
 201 0 201 0 179 0 c 0,32,33
 57 0 57 0 49 111 c 1,34,35
 48 203 48 203 130 228 c 0,36,37
 156 235 156 235 188.5 235 c 128,-1,38
 221 235 221 235 256 231 c 1,39,40
 257 237 257 237 257 267 c 0,41,42
 257 333 257 333 227 347 c 0,43,44
 214 353 214 353 195 353 c 0,45,46
 145 353 145 353 111 320 c 0,47,48
 101 311 101 311 80 287 c 1,49,50
 72 287 72 287 63.5 298.5 c 128,-1,51
 55 310 55 310 55 312 c 0,52,53
 123 390 123 390 200 390 c 0,54,55
 262 390 262 390 281 334 c 0,56,57
 282.916100238 326.974299128 282.916100238 326.974299128 284.016324915 320.764473826 c 1,58,59
 289.044446463 330.534923889 289.044446463 330.534923889 295 340 c 0,60,61
 331 386 331 386 398 388 c 0,62,63
 478 388 478 388 518 341 c 0,64,65
 540 314 540 314 540 280 c 2,66,-1
 540 242 l 1,9,-1
166 38 m 0,67,68
 245 42 245 42 259 84 c 0,69,70
 262 99 262 99 257 141.5 c 128,-1,71
 252 184 252 184 252 190 c 1,72,73
 190 198 190 198 179.5 197 c 128,-1,74
 169 196 169 196 152 194 c 0,75,76
 111 190 111 190 93 149 c 0,77,78
 85 131 85 131 85 113 c 0,79,80
 85 64 85 64 131 45 c 0,81,82
 148 38 148 38 166 38 c 0,67,68
EndSplineSet
EndChar

StartChar: dotlessi
Encoding: 305 305 168
Width: 225
Flags: W
LayerCount: 2
Fore
SplineSet
69 386 m 2,0,1
 71 388 71 388 78.5 388 c 128,-1,2
 86 388 86 388 93.5 388 c 128,-1,3
 101 388 101 388 103 386 c 2,4,-1
 104 386 l 1,5,-1
 104 64 l 2,6,7
 104 44 104 44 123 39 c 0,8,9
 126 38 126 38 129 38 c 0,10,11
 146 38 146 38 155 47.5 c 128,-1,12
 164 57 164 57 167 59 c 0,13,14
 174 65 174 65 184.5 51 c 128,-1,15
 195 37 195 37 193 33 c 0,16,17
 165 0 165 0 129 0 c 0,18,19
 79 0 79 0 69 50 c 0,20,21
 68 58 68 58 68 64 c 2,22,-1
 68 386 l 1,23,-1
 69 386 l 2,0,1
EndSplineSet
EndChar

StartChar: Lacute
Encoding: 313 313 169
Width: 420
Flags: W
LayerCount: 2
Fore
SplineSet
122 605 m 2,0,-1
 143 743 l 2,1,2
 144 750 144 750 172 745 c 0,3,4
 184 741 184 741 185 738 c 2,5,-1
 163 596 l 2,6,7
 162 588 162 588 135 596 c 0,8,9
 123 601 123 601 122 605 c 2,0,-1
376 39 m 2,10,11
 383 39 383 39 381 20 c 128,-1,12
 379 1 379 1 376 0 c 2,13,-1
 52 0 l 1,14,-1
 52 775 l 2,15,16
 52 782 52 782 69.5 780 c 128,-1,17
 87 778 87 778 88 775 c 2,18,-1
 88 39 l 1,19,-1
 376 39 l 2,10,11
EndSplineSet
EndChar

StartChar: OE
Encoding: 338 338 179
Width: 759
Flags: W
LayerCount: 2
Fore
SplineSet
371 0 m 2,0,1
 303 0 303 0 245.5 26.5 c 128,-1,2
 188 53 188 53 151 98.5 c 128,-1,3
 114 144 114 144 88.5 202.5 c 128,-1,4
 63 261 63 261 57.5 325.5 c 128,-1,5
 52 390 52 390 57.5 454.5 c 128,-1,6
 63 519 63 519 89 577.5 c 128,-1,7
 115 636 115 636 151.5 681.5 c 128,-1,8
 188 727 188 727 245 753.5 c 128,-1,9
 302 780 302 780 370 780 c 1,10,-1
 370 749 l 1,11,12
 228 749 228 749 151 620 c 0,13,14
 83 506 83 506 94.5 352 c 128,-1,15
 106 198 106 198 192 109 c 0,16,17
 265.984639332 34.0155682441 265.984639332 34.0155682441 370.956410252 34.0000032316 c 1,18,-1
 370 780 l 1,19,-1
 683 780 l 2,20,21
 690 780 690 780 687.5 764.5 c 128,-1,22
 685 749 685 749 683 748 c 2,23,-1
 404 748 l 1,24,-1
 404 416 l 1,25,-1
 470 416 l 2,26,27
 475 416 475 416 473 399.5 c 128,-1,28
 471 383 471 383 469 382 c 2,29,-1
 405 382 l 1,30,-1
 405 35 l 1,31,-1
 683 35 l 2,32,33
 689 35 689 35 687 18 c 128,-1,34
 685 1 685 1 683 0 c 2,35,-1
 371 0 l 2,0,1
EndSplineSet
EndChar

StartChar: oe
Encoding: 339 339 180
Width: 649
Flags: W
LayerCount: 2
Fore
SplineSet
63 187 m 0,0,1
 63 109 63 109 120 63 c 0,2,3
 156 34 156 34 198 34 c 0,4,5
 288 34 288 34 319 112 c 0,6,7
 329.664046446 139.070271747 329.664046446 139.070271747 331.580255843 172.196738616 c 1,8,9
 328.854432417 197.039635411 328.854432417 197.039635411 330.201781706 220.541365574 c 0,10,11
 321.526637007 297.039473739 321.526637007 297.039473739 271 331 c 0,12,13
 240 352 240 352 199 352 c 0,14,15
 112 352 112 352 78 269 c 0,16,17
 63 232 63 232 63 187 c 0,0,1
575 276 m 1,18,19
 575 321 575 321 522 343 c 0,20,21
 497 353 497 353 471 353 c 0,22,23
 426 353 426 353 395 317 c 0,24,25
 377 296 377 296 377 276 c 1,26,-1
 575 276 l 1,18,19
613 241 m 1,27,-1
 369 241 l 1,28,29
 365.515220997 224.011702359 365.515220997 224.011702359 364.402255441 207.545203671 c 0,30,31
 364.999999971 197.489963482 364.999999971 197.489963482 365 187 c 0,32,33
 365 179.742136067 365 179.742136067 364.74843471 172.765965132 c 0,34,35
 368.36087179 132.730046549 368.36087179 132.730046549 387 96 c 0,36,37
 420 35 420 35 476 34 c 0,38,39
 548 34 548 34 569 77 c 0,40,41
 575 92 575 92 579 112 c 1,42,43
 588 117 588 117 601.5 112 c 128,-1,44
 615 107 615 107 616 105 c 0,45,46
 600 19 600 19 521 4 c 0,47,48
 500 0 500 0 476 0 c 0,49,50
 384.92202275 0 384.92202275 0 350.059436508 91.8641755372 c 1,51,52
 315.049283263 -3.77709718363e-09 315.049283263 -3.77709718363e-09 198 0 c 0,53,54
 88 0 88 0 47 97 c 0,55,56
 30 138 30 138 30 187 c 0,57,58
 30 317 30 317 112 365 c 0,59,60
 149 386 149 386 198 386 c 0,61,62
 307.218104445 386 307.218104445 386 345.474910029 293.750311481 c 1,63,64
 354.274432139 317.186151078 354.274432139 317.186151078 368 339 c 0,65,66
 404 385 404 385 471 387 c 0,67,68
 551 387 551 387 591 340 c 0,69,70
 613 313 613 313 613 279 c 2,71,-1
 613 241 l 1,27,-1
EndSplineSet
EndChar

StartChar: circumflex
Encoding: 710 710 200
Width: 381
Flags: W
LayerCount: 2
Fore
SplineSet
187 518 m 1,0,-1
 115 435 l 2,1,2
 111 430 111 430 95 445 c 0,3,4
 87 454 87 454 89 458 c 2,5,-1
 166 553 l 1,6,-1
 211 553 l 1,7,-1
 285 460 l 2,8,9
 290 454 290 454 272 439 c 0,10,11
 261 432 261 432 258 434 c 2,12,-1
 187 518 l 1,0,-1
EndSplineSet
EndChar

StartChar: caron
Encoding: 711 711 201
Width: 432
Flags: W
LayerCount: 2
Fore
SplineSet
141 529 m 2,0,1
 137 534 137 534 150 544.5 c 128,-1,2
 163 555 163 555 165 552 c 2,3,-1
 224 483 l 1,4,-1
 341 579 l 2,5,6
 347 584 347 584 355.5 568 c 128,-1,7
 364 552 364 552 361 548 c 2,8,-1
 217 436 l 1,9,-1
 141 529 l 2,0,1
EndSplineSet
EndChar

StartChar: breve
Encoding: 728 728 202
Width: 420
Flags: W
LayerCount: 2
Fore
SplineSet
256 586 m 2,0,1
 256 588 256 588 265 589.5 c 128,-1,2
 274 591 274 591 283.5 590 c 128,-1,3
 293 589 293 589 293 587 c 2,4,-1
 293 499 l 1,5,-1
 419 594 l 2,6,7
 423 597 423 597 435 578 c 0,8,9
 443 564 443 564 440 561 c 2,10,-1
 259 436 l 1,11,-1
 256 586 l 2,0,1
EndSplineSet
EndChar

StartChar: ring
Encoding: 730 730 203
Width: 359
Flags: W
LayerCount: 2
Fore
SplineSet
196 414 m 0,0,1
 240 414 240 414 253.5 452 c 128,-1,2
 267 490 267 490 241 517 c 0,3,4
 223 535 223 535 196 535 c 0,5,6
 151 535 151 535 138 497 c 128,-1,7
 125 459 125 459 150 432 c 0,8,9
 168 414 168 414 196 414 c 0,0,1
116 527 m 0,10,11
 143 567 143 567 200.5 567.5 c 128,-1,12
 258 568 258 568 280.5 518 c 128,-1,13
 303 468 303 468 277 425 c 0,14,15
 250 385 250 385 191.5 384.5 c 128,-1,16
 133 384 133 384 111.5 434 c 128,-1,17
 90 484 90 484 116 527 c 0,10,11
EndSplineSet
EndChar

StartChar: ogonek
Encoding: 731 731 204
Width: 388
Flags: W
LayerCount: 2
Fore
SplineSet
320 16 m 2,0,-1
 346 16 l 1,1,2
 328 6 328 6 316.5 -18 c 128,-1,3
 305 -42 305 -42 305 -54 c 0,4,5
 305 -89 305 -89 328 -89 c 0,6,7
 338 -88 338 -88 370 -77 c 0,8,9
 374 -76 374 -76 375 -82 c 0,10,11
 376 -90 376 -90 372 -95 c 0,12,13
 310 -145 310 -145 280 -93 c 0,14,15
 266 -67 266 -67 282 -30 c 0,16,17
 290 -10 290 -10 299 -2 c 0,18,19
 316 13 316 13 320 16 c 2,0,-1
EndSplineSet
EndChar

StartChar: quoteleft
Encoding: 8216 8216 205
Width: 219
Flags: W
LayerCount: 2
Fore
SplineSet
115 708 m 1,0,-1
 51 489 l 1,1,-1
 130 489 l 1,2,-1
 174 708 l 1,3,-1
 115 708 l 1,0,-1
EndSplineSet
EndChar

StartChar: quoteright
Encoding: 8217 8217 206
Width: 216
Flags: W
LayerCount: 2
Fore
SplineSet
112 489 m 1,0,-1
 176 708 l 1,1,-1
 97 708 l 1,2,-1
 53 489 l 1,3,-1
 112 489 l 1,0,-1
EndSplineSet
EndChar

StartChar: quotedblleft
Encoding: 8220 8220 208
Width: 373
Flags: W
LayerCount: 2
Fore
SplineSet
115 708 m 1,0,-1
 51 489 l 1,1,-1
 130 489 l 1,2,-1
 174 708 l 1,3,-1
 115 708 l 1,0,-1
268 708 m 1,4,-1
 204 489 l 1,5,-1
 283 489 l 1,6,-1
 327 708 l 1,7,-1
 268 708 l 1,4,-1
EndSplineSet
EndChar

StartChar: quotedblright
Encoding: 8221 8221 209
Width: 377
Flags: W
LayerCount: 2
Fore
SplineSet
112 490 m 1,0,-1
 176 709 l 1,1,-1
 97 709 l 1,2,-1
 53 490 l 1,3,-1
 112 490 l 1,0,-1
272 490 m 1,4,-1
 336 709 l 1,5,-1
 257 709 l 1,6,-1
 213 490 l 1,7,-1
 272 490 l 1,4,-1
EndSplineSet
EndChar

StartChar: uni3131
Encoding: 12593 12593 215
Width: 900
Flags: W
LayerCount: 2
Fore
SplineSet
357 49 m 1,0,-1
 298 89 l 1,1,-1
 550 449 l 1,2,-1
 280 449 l 1,3,-1
 280 519 l 1,4,-1
 595 519 l 1,5,-1
 655 475 l 1,6,-1
 357 49 l 1,0,-1
EndSplineSet
EndChar

StartChar: uni3132
Encoding: 12594 12594 216
Width: 900
Flags: W
LayerCount: 2
Fore
SplineSet
293 89 m 1,0,-1
 227 118 l 1,1,-1
 377 440 l 1,2,-1
 227 440 l 1,3,-1
 227 509 l 1,4,-1
 621 509 l 1,5,-1
 678 474 l 1,6,-1
 492 71 l 1,7,-1
 426 99 l 1,8,-1
 584 440 l 1,9,-1
 454 440 l 1,10,-1
 293 89 l 1,0,-1
EndSplineSet
EndChar

StartChar: uni3133
Encoding: 12595 12595 217
Width: 900
Flags: W
LayerCount: 2
Fore
SplineSet
689 116 m 1,0,-1
 590 292 l 1,1,-1
 490 116 l 1,2,-1
 430 154 l 1,3,-1
 590 428 l 1,4,-1
 750 154 l 1,5,-1
 689 116 l 1,0,-1
330 120 m 1,6,-1
 330 403 l 1,7,-1
 145 403 l 1,8,-1
 145 472 l 1,9,-1
 405 472 l 1,10,-1
 405 120 l 1,11,-1
 330 120 l 1,6,-1
EndSplineSet
EndChar

StartChar: uni3134
Encoding: 12596 12596 218
Width: 900
Flags: W
LayerCount: 2
Fore
SplineSet
348 92 m 2,0,1
 320 92 320 92 299.5 112.5 c 128,-1,2
 279 133 279 133 279 161 c 2,3,-1
 279 510 l 1,4,-1
 354 510 l 1,5,-1
 354 162 l 1,6,-1
 624 162 l 1,7,-1
 624 92 l 1,8,-1
 348 92 l 2,0,1
EndSplineSet
EndChar

StartChar: uni3135
Encoding: 12597 12597 219
Width: 900
Flags: W
LayerCount: 2
Fore
SplineSet
673 104 m 1,0,-1
 571 336 l 1,1,-1
 470 104 l 1,2,-1
 403 131 l 1,3,-1
 537 433 l 1,4,-1
 446 433 l 1,5,-1
 446 502 l 1,6,-1
 697 502 l 1,7,-1
 697 433 l 1,8,-1
 606 433 l 1,9,-1
 740 131 l 1,10,-1
 673 104 l 1,0,-1
245 110 m 2,11,12
 217 110 217 110 197 130 c 128,-1,13
 177 150 177 150 177 178 c 2,14,-1
 177 482 l 1,15,-1
 251 482 l 1,16,-1
 251 179 l 1,17,-1
 386 179 l 1,18,-1
 386 110 l 1,19,-1
 245 110 l 2,11,12
EndSplineSet
EndChar

StartChar: uni3136
Encoding: 12598 12598 220
Width: 900
Flags: W
LayerCount: 2
Fore
SplineSet
703 322 m 1,0,1
 728 285 728 285 728 247 c 128,-1,2
 728 209 728 209 716.5 182 c 128,-1,3
 705 155 705 155 685 134.5 c 128,-1,4
 665 114 665 114 639 102.5 c 128,-1,5
 613 91 613 91 584 91 c 128,-1,6
 555 91 555 91 529 102.5 c 128,-1,7
 503 114 503 114 483 134 c 0,8,9
 440 179 440 179 440 232 c 128,-1,10
 440 285 440 285 465 322 c 1,11,-1
 407 322 l 1,12,-1
 407 391 l 1,13,-1
 547 391 l 1,14,-1
 547 473 l 1,15,-1
 621 473 l 1,16,-1
 621 391 l 1,17,-1
 761 391 l 1,18,-1
 761 322 l 1,19,-1
 703 322 l 1,0,1
633 183 m 128,-1,21
 653 208 653 208 653 239.5 c 128,-1,22
 653 271 653 271 633 296 c 128,-1,23
 613 321 613 321 584.5 321 c 128,-1,24
 556 321 556 321 535 296 c 128,-1,25
 514 271 514 271 514 239 c 0,26,27
 514 189 514 189 558 165 c 0,28,29
 570 158 570 158 584 158 c 0,30,20
 613 158 613 158 633 183 c 128,-1,21
228 100 m 2,31,32
 200 100 200 100 180 120 c 128,-1,33
 160 140 160 140 160 168 c 2,34,-1
 160 461 l 1,35,-1
 234 461 l 1,36,-1
 234 169 l 1,37,-1
 419 169 l 1,38,-1
 419 100 l 1,39,-1
 228 100 l 2,31,32
EndSplineSet
EndChar

StartChar: uni3137
Encoding: 12599 12599 221
Width: 900
Flags: W
LayerCount: 2
Fore
SplineSet
342 83 m 2,0,1
 314 83 314 83 293.5 103.5 c 128,-1,2
 273 124 273 124 273 152 c 2,3,-1
 273 501 l 1,4,-1
 618 501 l 1,5,-1
 618 432 l 1,6,-1
 348 432 l 1,7,-1
 348 153 l 1,8,-1
 628 153 l 1,9,-1
 628 83 l 1,10,-1
 342 83 l 2,0,1
EndSplineSet
EndChar

StartChar: uni3138
Encoding: 12600 12600 222
Width: 900
Flags: W
LayerCount: 2
Fore
SplineSet
308 86 m 2,0,1
 280 86 280 86 260 106.5 c 128,-1,2
 240 127 240 127 240 155 c 2,3,-1
 240 504 l 1,4,-1
 667 504 l 1,5,-1
 667 435 l 1,6,-1
 522 435 l 1,7,-1
 522 156 l 1,8,-1
 677 156 l 1,9,-1
 677 86 l 1,10,-1
 308 86 l 2,0,1
448 435 m 1,11,-1
 315 435 l 1,12,-1
 315 156 l 1,13,-1
 448 156 l 1,14,-1
 448 435 l 1,11,-1
EndSplineSet
EndChar

StartChar: uni3139
Encoding: 12601 12601 223
Width: 900
Flags: W
LayerCount: 2
Fore
SplineSet
336 72 m 2,0,1
 308 72 308 72 287.5 92.5 c 128,-1,2
 267 113 267 113 267 141 c 2,3,-1
 267 325 l 1,4,-1
 547 325 l 1,5,-1
 547 447 l 1,6,-1
 267 447 l 1,7,-1
 267 511 l 1,8,-1
 622 511 l 1,9,-1
 622 264 l 1,10,-1
 342 264 l 1,11,-1
 342 137 l 1,12,-1
 633 137 l 1,13,-1
 633 72 l 1,14,-1
 336 72 l 2,0,1
EndSplineSet
EndChar

StartChar: uni313A
Encoding: 12602 12602 224
Width: 900
Flags: W
LayerCount: 2
Fore
SplineSet
262 76 m 2,0,1
 234 76 234 76 213.5 96 c 128,-1,2
 193 116 193 116 193 144 c 2,3,-1
 193 319 l 1,4,-1
 369 319 l 1,5,-1
 369 436 l 1,6,-1
 193 436 l 1,7,-1
 193 500 l 1,8,-1
 703 500 l 1,9,-1
 703 76 l 1,10,-1
 628 76 l 1,11,-1
 628 431 l 1,12,-1
 444 431 l 1,13,-1
 444 258 l 1,14,-1
 268 258 l 1,15,-1
 268 140 l 1,16,-1
 454 140 l 1,17,-1
 454 76 l 1,18,-1
 262 76 l 2,0,1
EndSplineSet
EndChar

StartChar: uni313B
Encoding: 12603 12603 225
Width: 900
Flags: W
LayerCount: 2
Fore
SplineSet
725 148 m 2,0,1
 725 120 725 120 705.5 100 c 128,-1,2
 686 80 686 80 657 80 c 2,3,-1
 543 80 l 2,4,5
 515 80 515 80 495 100 c 128,-1,6
 475 120 475 120 475 148 c 2,7,-1
 475 493 l 1,8,-1
 725 493 l 1,9,-1
 725 148 l 2,0,1
651 424 m 1,10,-1
 549 424 l 1,11,-1
 549 149 l 1,12,-1
 651 149 l 1,13,-1
 651 424 l 1,10,-1
243 80 m 2,14,15
 215 80 215 80 195 100 c 128,-1,16
 175 120 175 120 175 148 c 2,17,-1
 175 318 l 1,18,-1
 330 318 l 1,19,-1
 330 430 l 1,20,-1
 175 430 l 1,21,-1
 175 493 l 1,22,-1
 404 493 l 1,23,-1
 404 257 l 1,24,-1
 249 257 l 1,25,-1
 249 144 l 1,26,-1
 415 144 l 1,27,-1
 415 80 l 1,28,-1
 243 80 l 2,14,15
EndSplineSet
EndChar

StartChar: uni313C
Encoding: 12604 12604 226
Width: 900
Flags: W
LayerCount: 2
Fore
SplineSet
728 154 m 2,0,1
 728 126 728 126 708 106 c 128,-1,2
 688 86 688 86 659 86 c 2,3,-1
 544 86 l 2,4,5
 516 86 516 86 495 106 c 128,-1,6
 474 126 474 126 474 154 c 2,7,-1
 474 479 l 1,8,-1
 550 479 l 1,9,-1
 550 376 l 1,10,-1
 653 376 l 1,11,-1
 653 479 l 1,12,-1
 728 479 l 1,13,-1
 728 154 l 2,0,1
653 307 m 1,14,-1
 550 307 l 1,15,-1
 550 155 l 1,16,-1
 653 155 l 1,17,-1
 653 307 l 1,14,-1
240 86 m 2,18,19
 212 86 212 86 191 106 c 128,-1,20
 170 126 170 126 170 154 c 2,21,-1
 170 313 l 1,22,-1
 328 313 l 1,23,-1
 328 415 l 1,24,-1
 170 415 l 1,25,-1
 170 479 l 1,26,-1
 403 479 l 1,27,-1
 403 253 l 1,28,-1
 246 253 l 1,29,-1
 246 150 l 1,30,-1
 414 150 l 1,31,-1
 414 86 l 1,32,-1
 240 86 l 2,18,19
EndSplineSet
EndChar

StartChar: uni313D
Encoding: 12605 12605 227
Width: 900
Flags: W
LayerCount: 2
Fore
SplineSet
710 106 m 1,0,-1
 610 281 l 1,1,-1
 511 106 l 1,2,-1
 450 144 l 1,3,-1
 610 417 l 1,4,-1
 771 144 l 1,5,-1
 710 106 l 1,0,-1
244 110 m 2,6,7
 216 110 216 110 195.5 130 c 128,-1,8
 175 150 175 150 175 178 c 2,9,-1
 175 327 l 1,10,-1
 331 327 l 1,11,-1
 331 419 l 1,12,-1
 175 419 l 1,13,-1
 175 483 l 1,14,-1
 405 483 l 1,15,-1
 405 267 l 1,16,-1
 250 267 l 1,17,-1
 250 174 l 1,18,-1
 416 174 l 1,19,-1
 416 110 l 1,20,-1
 244 110 l 2,6,7
EndSplineSet
EndChar

StartChar: uni313E
Encoding: 12606 12606 228
Width: 900
Flags: W
LayerCount: 2
Fore
SplineSet
561 90 m 2,0,1
 533 90 533 90 512.5 110 c 128,-1,2
 492 130 492 130 492 158 c 2,3,-1
 492 482 l 1,4,-1
 732 482 l 1,5,-1
 732 418 l 1,6,-1
 567 418 l 1,7,-1
 567 322 l 1,8,-1
 722 322 l 1,9,-1
 722 261 l 1,10,-1
 567 261 l 1,11,-1
 567 154 l 1,12,-1
 732 154 l 1,13,-1
 732 90 l 1,14,-1
 561 90 l 2,0,1
240 90 m 2,15,16
 212 90 212 90 192 110 c 128,-1,17
 172 130 172 130 172 158 c 2,18,-1
 172 322 l 1,19,-1
 327 322 l 1,20,-1
 327 418 l 1,21,-1
 172 418 l 1,22,-1
 172 482 l 1,23,-1
 402 482 l 1,24,-1
 402 261 l 1,25,-1
 246 261 l 1,26,-1
 246 154 l 1,27,-1
 412 154 l 1,28,-1
 412 90 l 1,29,-1
 240 90 l 2,15,16
EndSplineSet
EndChar

StartChar: uni313F
Encoding: 12607 12607 229
Width: 900
Flags: W
LayerCount: 2
Fore
SplineSet
641 169 m 1,0,-1
 641 413 l 1,1,-1
 570 413 l 1,2,-1
 570 169 l 1,3,-1
 641 169 l 1,0,-1
449 100 m 1,4,-1
 449 169 l 1,5,-1
 496 169 l 1,6,-1
 496 413 l 1,7,-1
 454 413 l 1,8,-1
 454 482 l 1,9,-1
 756 482 l 1,10,-1
 756 413 l 1,11,-1
 715 413 l 1,12,-1
 715 169 l 1,13,-1
 762 169 l 1,14,-1
 762 100 l 1,15,-1
 449 100 l 1,4,-1
213 100 m 2,16,17
 185 100 185 100 164.5 120 c 128,-1,18
 144 140 144 140 144 168 c 2,19,-1
 144 322 l 1,20,-1
 300 322 l 1,21,-1
 300 418 l 1,22,-1
 144 418 l 1,23,-1
 144 482 l 1,24,-1
 374 482 l 1,25,-1
 374 261 l 1,26,-1
 219 261 l 1,27,-1
 219 164 l 1,28,-1
 384 164 l 1,29,-1
 384 100 l 1,30,-1
 213 100 l 2,16,17
EndSplineSet
EndChar

StartChar: uni3140
Encoding: 12608 12608 230
Width: 900
Flags: W
LayerCount: 2
Fore
SplineSet
590 94 m 128,-1,1
 532 94 532 94 490 142 c 0,2,3
 446 193 446 193 446 255.5 c 128,-1,4
 446 318 446 318 476 362 c 1,5,-1
 413 362 l 1,6,-1
 413 431 l 1,7,-1
 553 431 l 1,8,-1
 553 498 l 1,9,-1
 627 498 l 1,10,-1
 627 431 l 1,11,-1
 767 431 l 1,12,-1
 767 362 l 1,13,-1
 704 362 l 1,14,15
 734 318 734 318 734 255.5 c 128,-1,16
 734 193 734 193 691 143.5 c 128,-1,0
 648 94 648 94 590 94 c 128,-1,1
659 261 m 128,-1,18
 659 279 659 279 654 297 c 128,-1,19
 649 315 649 315 640 329.5 c 128,-1,20
 631 344 631 344 618 352.5 c 128,-1,21
 605 361 605 361 590 361 c 128,-1,22
 575 361 575 361 562 352.5 c 128,-1,23
 549 344 549 344 540 329.5 c 128,-1,24
 531 315 531 315 526 297 c 128,-1,25
 521 279 521 279 521 261 c 128,-1,26
 521 243 521 243 526 225 c 128,-1,27
 531 207 531 207 540 192.5 c 128,-1,28
 549 178 549 178 562 169.5 c 128,-1,29
 575 161 575 161 590 161 c 128,-1,30
 605 161 605 161 618 169.5 c 128,-1,31
 631 178 631 178 640 192.5 c 128,-1,32
 649 207 649 207 654 225 c 128,-1,17
 659 243 659 243 659 261 c 128,-1,18
213 94 m 2,33,34
 185 94 185 94 165 114 c 128,-1,35
 145 134 145 134 145 162 c 2,36,-1
 145 316 l 1,37,-1
 300 316 l 1,38,-1
 300 423 l 1,39,-1
 145 423 l 1,40,-1
 145 487 l 1,41,-1
 374 487 l 1,42,-1
 374 256 l 1,43,-1
 219 256 l 1,44,-1
 219 158 l 1,45,-1
 385 158 l 1,46,-1
 385 94 l 1,47,-1
 213 94 l 2,33,34
EndSplineSet
EndChar

StartChar: uni3141
Encoding: 12609 12609 231
Width: 900
Flags: W
LayerCount: 2
Fore
SplineSet
627 156 m 2,0,1
 627 128 627 128 607 107.5 c 128,-1,2
 587 87 587 87 559 87 c 2,3,-1
 341 87 l 2,4,5
 313 87 313 87 292.5 107.5 c 128,-1,6
 272 128 272 128 272 156 c 2,7,-1
 272 505 l 1,8,-1
 627 505 l 1,9,-1
 627 156 l 2,0,1
552 436 m 1,10,-1
 347 436 l 1,11,-1
 347 157 l 1,12,-1
 552 157 l 1,13,-1
 552 436 l 1,10,-1
EndSplineSet
EndChar

StartChar: uni3142
Encoding: 12610 12610 232
Width: 900
Flags: W
LayerCount: 2
Fore
SplineSet
627 155 m 2,0,1
 627 127 627 127 607 106.5 c 128,-1,2
 587 86 587 86 559 86 c 2,3,-1
 341 86 l 2,4,5
 313 86 313 86 292.5 106.5 c 128,-1,6
 272 127 272 127 272 155 c 2,7,-1
 272 509 l 1,8,-1
 347 509 l 1,9,-1
 347 385 l 1,10,-1
 552 385 l 1,11,-1
 552 509 l 1,12,-1
 627 509 l 1,13,-1
 627 155 l 2,0,1
552 315 m 1,14,-1
 347 315 l 1,15,-1
 347 156 l 1,16,-1
 552 156 l 1,17,-1
 552 315 l 1,14,-1
EndSplineSet
EndChar

StartChar: uni3143
Encoding: 12611 12611 233
Width: 900
Flags: W
LayerCount: 2
Fore
SplineSet
652 154 m 2,0,1
 652 126 652 126 632 106 c 128,-1,2
 612 86 612 86 583 86 c 2,3,-1
 313 86 l 2,4,5
 285 86 285 86 265 106 c 128,-1,6
 245 126 245 126 245 154 c 2,7,-1
 245 519 l 1,8,-1
 318 519 l 1,9,-1
 318 384 l 1,10,-1
 412 384 l 1,11,-1
 412 519 l 1,12,-1
 483 519 l 1,13,-1
 483 384 l 1,14,-1
 579 384 l 1,15,-1
 579 519 l 1,16,-1
 652 519 l 1,17,-1
 652 154 l 2,0,1
579 315 m 1,18,-1
 483 315 l 1,19,-1
 483 155 l 1,20,-1
 579 155 l 1,21,-1
 579 315 l 1,18,-1
412 315 m 1,22,-1
 318 315 l 1,23,-1
 318 155 l 1,24,-1
 412 155 l 1,25,-1
 412 315 l 1,22,-1
EndSplineSet
EndChar

StartChar: uni3144
Encoding: 12612 12612 234
Width: 900
Flags: W
LayerCount: 2
Fore
SplineSet
689 96 m 1,0,-1
 589 262 l 1,1,-1
 488 96 l 1,2,-1
 427 134 l 1,3,-1
 589 397 l 1,4,-1
 750 134 l 1,5,-1
 689 96 l 1,0,-1
402 168 m 2,6,7
 402 140 402 140 382 120 c 128,-1,8
 362 100 362 100 333 100 c 2,9,-1
 219 100 l 2,10,11
 191 100 191 100 170.5 120 c 128,-1,12
 150 140 150 140 150 168 c 2,13,-1
 150 493 l 1,14,-1
 225 493 l 1,15,-1
 225 385 l 1,16,-1
 327 385 l 1,17,-1
 327 493 l 1,18,-1
 402 493 l 1,19,-1
 402 168 l 2,6,7
327 316 m 1,20,-1
 225 316 l 1,21,-1
 225 169 l 1,22,-1
 327 169 l 1,23,-1
 327 316 l 1,20,-1
EndSplineSet
EndChar

StartChar: uni3145
Encoding: 12613 12613 235
Width: 900
Flags: W
LayerCount: 2
Fore
SplineSet
583 71 m 1,0,-1
 439 358 l 1,1,-1
 295 71 l 1,2,-1
 227 107 l 1,3,-1
 439 508 l 1,4,-1
 650 107 l 1,5,-1
 583 71 l 1,0,-1
EndSplineSet
EndChar

StartChar: uni3146
Encoding: 12614 12614 236
Width: 900
Flags: W
LayerCount: 2
Fore
SplineSet
617 59 m 1,0,-1
 536 295 l 1,1,-1
 449 88 l 1,2,-1
 362 295 l 1,3,-1
 281 59 l 1,4,-1
 211 85 l 1,5,-1
 354 488 l 1,6,-1
 448 259 l 1,7,-1
 544 488 l 1,8,-1
 687 85 l 1,9,-1
 617 59 l 1,0,-1
EndSplineSet
EndChar

StartChar: uni3147
Encoding: 12615 12615 237
Width: 900
Flags: W
LayerCount: 2
Fore
SplineSet
313.5 126.5 m 128,-1,1
 256 184 256 184 256 264 c 0,2,3
 256 332 256 332 299.5 385 c 128,-1,4
 343 438 343 438 413 456 c 1,5,-1
 413 498 l 1,6,-1
 487 498 l 1,7,-1
 487 456 l 1,8,9
 559 437 559 437 601.5 385 c 128,-1,10
 644 333 644 333 644 259 c 128,-1,11
 644 185 644 185 587.5 127 c 128,-1,12
 531 69 531 69 451 69 c 128,-1,0
 371 69 371 69 313.5 126.5 c 128,-1,1
569 264 m 128,-1,14
 569 291 569 291 560 314.5 c 128,-1,15
 551 338 551 338 535 355 c 128,-1,16
 519 372 519 372 497 382 c 128,-1,17
 475 392 475 392 450 392 c 128,-1,18
 425 392 425 392 403 382 c 128,-1,19
 381 372 381 372 365 355 c 128,-1,20
 349 338 349 338 340 314.5 c 128,-1,21
 331 291 331 291 331 264 c 128,-1,22
 331 237 331 237 340 214 c 128,-1,23
 349 191 349 191 365 173.5 c 128,-1,24
 381 156 381 156 403 146 c 128,-1,25
 425 136 425 136 450 136 c 128,-1,26
 475 136 475 136 497 146 c 128,-1,27
 519 156 519 156 535 173.5 c 128,-1,28
 551 191 551 191 560 214 c 128,-1,13
 569 237 569 237 569 264 c 128,-1,14
EndSplineSet
EndChar

StartChar: uni3148
Encoding: 12616 12616 238
Width: 900
Flags: W
LayerCount: 2
Fore
SplineSet
592 71 m 1,0,-1
 449 350 l 1,1,-1
 305 71 l 1,2,-1
 240 102 l 1,3,-1
 407 425 l 1,4,-1
 271 425 l 1,5,-1
 271 494 l 1,6,-1
 626 494 l 1,7,-1
 626 425 l 1,8,-1
 490 425 l 1,9,-1
 657 102 l 1,10,-1
 592 71 l 1,0,-1
EndSplineSet
EndChar

StartChar: uni3149
Encoding: 12617 12617 239
Width: 900
Flags: W
LayerCount: 2
Fore
SplineSet
450 266 m 1,0,-1
 512 426 l 1,1,-1
 388 426 l 1,2,-1
 450 266 l 1,0,-1
619 66 m 1,3,-1
 538 323 l 1,4,-1
 450 98 l 1,5,-1
 364 323 l 1,6,-1
 282 66 l 1,7,-1
 217 88 l 1,8,-1
 328 426 l 1,9,-1
 232 426 l 1,10,-1
 232 495 l 1,11,-1
 669 495 l 1,12,-1
 669 426 l 1,13,-1
 574 426 l 1,14,-1
 685 88 l 1,15,-1
 619 66 l 1,3,-1
EndSplineSet
EndChar

StartChar: uni314A
Encoding: 12618 12618 240
Width: 900
Flags: W
LayerCount: 2
Fore
SplineSet
595 60 m 1,0,-1
 452 307 l 1,1,-1
 308 60 l 1,2,-1
 245 96 l 1,3,-1
 414 382 l 1,4,-1
 274 382 l 1,5,-1
 274 451 l 1,6,-1
 414 451 l 1,7,-1
 414 524 l 1,8,-1
 489 524 l 1,9,-1
 489 451 l 1,10,-1
 629 451 l 1,11,-1
 629 382 l 1,12,-1
 489 382 l 1,13,-1
 658 96 l 1,14,-1
 595 60 l 1,0,-1
EndSplineSet
EndChar

StartChar: uni314B
Encoding: 12619 12619 241
Width: 900
Flags: W
LayerCount: 2
Fore
SplineSet
277 262 m 1,0,-1
 277 332 l 1,1,-1
 485 332 l 1,2,-1
 568 449 l 1,3,-1
 267 449 l 1,4,-1
 267 519 l 1,5,-1
 612 519 l 1,6,-1
 673 475 l 1,7,-1
 366 37 l 1,8,-1
 307 76 l 1,9,-1
 437 262 l 1,10,-1
 277 262 l 1,0,-1
EndSplineSet
EndChar

StartChar: uni314C
Encoding: 12620 12620 242
Width: 900
Flags: W
LayerCount: 2
Fore
SplineSet
342 66 m 2,0,1
 314 66 314 66 293.5 86.5 c 128,-1,2
 273 107 273 107 273 135 c 2,3,-1
 273 505 l 1,4,-1
 618 505 l 1,5,-1
 618 441 l 1,6,-1
 348 441 l 1,7,-1
 348 319 l 1,8,-1
 607 319 l 1,9,-1
 607 258 l 1,10,-1
 348 258 l 1,11,-1
 348 131 l 1,12,-1
 628 131 l 1,13,-1
 628 66 l 1,14,-1
 342 66 l 2,0,1
EndSplineSet
EndChar

StartChar: uni314D
Encoding: 12621 12621 243
Width: 900
Flags: W
LayerCount: 2
Fore
SplineSet
512 146 m 1,0,-1
 512 425 l 1,1,-1
 389 425 l 1,2,-1
 389 146 l 1,3,-1
 512 146 l 1,0,-1
242 76 m 1,4,-1
 242 146 l 1,5,-1
 315 146 l 1,6,-1
 315 425 l 1,7,-1
 247 425 l 1,8,-1
 247 494 l 1,9,-1
 654 494 l 1,10,-1
 654 425 l 1,11,-1
 586 425 l 1,12,-1
 586 146 l 1,13,-1
 659 146 l 1,14,-1
 659 76 l 1,15,-1
 242 76 l 1,4,-1
EndSplineSet
EndChar

StartChar: uni314E
Encoding: 12622 12622 244
Width: 900
Flags: W
LayerCount: 2
Fore
SplineSet
578 360 m 1,0,1
 625 311 625 311 625 241 c 0,2,3
 625 169 625 169 573 117 c 128,-1,4
 521 65 521 65 449 65 c 0,5,6
 378 65 378 65 326 117 c 128,-1,7
 274 169 274 169 274 240 c 128,-1,8
 274 311 274 311 321 360 c 1,9,-1
 241 360 l 1,10,-1
 241 430 l 1,11,-1
 412 430 l 1,12,-1
 412 513 l 1,13,-1
 487 513 l 1,14,-1
 487 430 l 1,15,-1
 658 430 l 1,16,-1
 658 360 l 1,17,-1
 578 360 l 1,0,1
550 241 m 128,-1,19
 550 287 550 287 521 318 c 128,-1,20
 492 349 492 349 449.5 349 c 128,-1,21
 407 349 407 349 378 318 c 128,-1,22
 349 287 349 287 349 241 c 128,-1,23
 349 195 349 195 378 164 c 128,-1,24
 407 133 407 133 449.5 133 c 128,-1,25
 492 133 492 133 521 164 c 128,-1,18
 550 195 550 195 550 241 c 128,-1,19
EndSplineSet
EndChar

StartChar: uni314F
Encoding: 12623 12623 245
Width: 900
Flags: W
LayerCount: 2
Fore
SplineSet
450 407 m 1,0,-1
 450 -50 l 1,1,-1
 375 -50 l 1,2,-1
 375 679 l 1,3,-1
 450 679 l 1,4,-1
 450 477 l 1,5,-1
 585 477 l 1,6,-1
 585 407 l 1,7,-1
 450 407 l 1,0,-1
EndSplineSet
EndChar

StartChar: uni3150
Encoding: 12624 12624 246
Width: 900
Flags: W
LayerCount: 2
Fore
SplineSet
503 -50 m 1,0,-1
 503 418 l 1,1,-1
 393 418 l 1,2,-1
 393 -50 l 1,3,-1
 320 -50 l 1,4,-1
 320 680 l 1,5,-1
 393 680 l 1,6,-1
 393 488 l 1,7,-1
 503 488 l 1,8,-1
 503 680 l 1,9,-1
 578 680 l 1,10,-1
 578 -50 l 1,11,-1
 503 -50 l 1,0,-1
EndSplineSet
EndChar

StartChar: uni3151
Encoding: 12625 12625 247
Width: 900
Flags: W
LayerCount: 2
Fore
SplineSet
442 319 m 1,0,-1
 442 -50 l 1,1,-1
 367 -50 l 1,2,-1
 367 680 l 1,3,-1
 442 680 l 1,4,-1
 442 576 l 1,5,-1
 577 576 l 1,6,-1
 577 506 l 1,7,-1
 442 506 l 1,8,-1
 442 389 l 1,9,-1
 577 389 l 1,10,-1
 577 319 l 1,11,-1
 442 319 l 1,0,-1
EndSplineSet
EndChar

StartChar: uni3152
Encoding: 12626 12626 248
Width: 900
Flags: W
LayerCount: 2
Fore
SplineSet
507 -50 m 1,0,-1
 507 309 l 1,1,-1
 398 309 l 1,2,-1
 398 -50 l 1,3,-1
 325 -50 l 1,4,-1
 325 680 l 1,5,-1
 398 680 l 1,6,-1
 398 586 l 1,7,-1
 507 586 l 1,8,-1
 507 680 l 1,9,-1
 582 680 l 1,10,-1
 582 -50 l 1,11,-1
 507 -50 l 1,0,-1
507 517 m 1,12,-1
 398 517 l 1,13,-1
 398 378 l 1,14,-1
 507 378 l 1,15,-1
 507 517 l 1,12,-1
EndSplineSet
EndChar

StartChar: uni3153
Encoding: 12627 12627 249
Width: 900
Flags: W
LayerCount: 2
Fore
SplineSet
505 -50 m 1,0,-1
 505 410 l 1,1,-1
 295 410 l 1,2,-1
 295 479 l 1,3,-1
 505 479 l 1,4,-1
 505 680 l 1,5,-1
 580 680 l 1,6,-1
 580 -50 l 1,7,-1
 505 -50 l 1,0,-1
EndSplineSet
EndChar

StartChar: uni3154
Encoding: 12628 12628 250
Width: 900
Flags: W
LayerCount: 2
Fore
SplineSet
380 -50 m 1,0,-1
 380 413 l 1,1,-1
 221 413 l 1,2,-1
 221 482 l 1,3,-1
 380 482 l 1,4,-1
 380 680 l 1,5,-1
 453 680 l 1,6,-1
 453 -50 l 1,7,-1
 380 -50 l 1,0,-1
545 -50 m 1,8,-1
 545 680 l 1,9,-1
 620 680 l 1,10,-1
 620 -50 l 1,11,-1
 545 -50 l 1,8,-1
EndSplineSet
EndChar

StartChar: uni3155
Encoding: 12629 12629 251
Width: 900
Flags: W
LayerCount: 2
Fore
SplineSet
465 -50 m 1,0,-1
 465 331 l 1,1,-1
 255 331 l 1,2,-1
 255 400 l 1,3,-1
 465 400 l 1,4,-1
 465 497 l 1,5,-1
 255 497 l 1,6,-1
 255 567 l 1,7,-1
 465 567 l 1,8,-1
 465 680 l 1,9,-1
 540 680 l 1,10,-1
 540 -50 l 1,11,-1
 465 -50 l 1,0,-1
EndSplineSet
EndChar

StartChar: uni3156
Encoding: 12630 12630 252
Width: 900
Flags: W
LayerCount: 2
Fore
SplineSet
390 -50 m 1,0,-1
 390 331 l 1,1,-1
 242 331 l 1,2,-1
 242 400 l 1,3,-1
 390 400 l 1,4,-1
 390 497 l 1,5,-1
 242 497 l 1,6,-1
 242 567 l 1,7,-1
 390 567 l 1,8,-1
 390 680 l 1,9,-1
 463 680 l 1,10,-1
 463 -50 l 1,11,-1
 390 -50 l 1,0,-1
555 -50 m 1,12,-1
 555 680 l 1,13,-1
 630 680 l 1,14,-1
 630 -50 l 1,15,-1
 555 -50 l 1,12,-1
EndSplineSet
EndChar

StartChar: uni3157
Encoding: 12631 12631 253
Width: 900
Flags: W
LayerCount: 2
Fore
SplineSet
40 25 m 1,0,-1
 40 95 l 1,1,-1
 413 95 l 1,2,-1
 413 282 l 1,3,-1
 487 282 l 1,4,-1
 487 95 l 1,5,-1
 860 95 l 1,6,-1
 860 25 l 1,7,-1
 40 25 l 1,0,-1
EndSplineSet
EndChar

StartChar: uni3158
Encoding: 12632 12632 254
Width: 900
Flags: W
LayerCount: 2
Fore
SplineSet
20 25 m 1,0,-1
 20 120 l 1,1,-1
 285 120 l 1,2,-1
 285 240 l 1,3,-1
 385 240 l 1,4,-1
 385 120 l 1,5,-1
 650 120 l 1,6,-1
 650 610 l 1,7,-1
 750 610 l 1,8,-1
 750 415 l 1,9,-1
 880 415 l 1,10,-1
 880 320 l 1,11,-1
 750 320 l 1,12,-1
 750 -120 l 1,13,-1
 650 -120 l 1,14,-1
 650 25 l 1,15,-1
 20 25 l 1,0,-1
EndSplineSet
EndChar

StartChar: uni3159
Encoding: 12633 12633 255
Width: 900
Flags: W
LayerCount: 2
Fore
SplineSet
646 25 m 1,0,-1
 60 25 l 1,1,-1
 60 94 l 1,2,-1
 283 94 l 1,3,-1
 283 248 l 1,4,-1
 358 248 l 1,5,-1
 358 94 l 1,6,-1
 574 94 l 1,7,-1
 574 604 l 1,8,-1
 646 604 l 1,9,-1
 646 401 l 1,10,-1
 755 401 l 1,11,-1
 755 604 l 1,12,-1
 830 604 l 1,13,-1
 830 -126 l 1,14,-1
 755 -126 l 1,15,-1
 755 332 l 1,16,-1
 646 332 l 1,17,-1
 646 25 l 1,0,-1
EndSplineSet
EndChar

StartChar: uni315A
Encoding: 12634 12634 256
Width: 900
Flags: W
LayerCount: 2
Fore
SplineSet
738 -126 m 1,0,-1
 738 25 l 1,1,-1
 83 25 l 1,2,-1
 83 94 l 1,3,-1
 359 94 l 1,4,-1
 359 259 l 1,5,-1
 433 259 l 1,6,-1
 433 94 l 1,7,-1
 738 94 l 1,8,-1
 738 604 l 1,9,-1
 813 604 l 1,10,-1
 813 -126 l 1,11,-1
 738 -126 l 1,0,-1
EndSplineSet
EndChar

StartChar: uni315B
Encoding: 12635 12635 257
Width: 900
Flags: W
LayerCount: 2
Fore
SplineSet
516 276 m 1,0,-1
 591 276 l 1,1,-1
 591 95 l 1,2,-1
 860 95 l 1,3,-1
 860 25 l 1,4,-1
 40 25 l 1,5,-1
 40 95 l 1,6,-1
 309 95 l 1,7,-1
 309 276 l 1,8,-1
 384 276 l 1,9,-1
 384 95 l 1,10,-1
 516 95 l 1,11,-1
 516 276 l 1,0,-1
EndSplineSet
EndChar

StartChar: uni315C
Encoding: 12636 12636 258
Width: 900
Flags: W
LayerCount: 2
Fore
SplineSet
413 0 m 1,0,-1
 413 213 l 1,1,-1
 40 213 l 1,2,-1
 40 282 l 1,3,-1
 860 282 l 1,4,-1
 860 213 l 1,5,-1
 487 213 l 1,6,-1
 487 0 l 1,7,-1
 413 0 l 1,0,-1
EndSplineSet
EndChar

StartChar: uni315D
Encoding: 12637 12637 259
Width: 900
Flags: W
LayerCount: 2
Fore
SplineSet
725 -50 m 1,0,-1
 725 64 l 1,1,-1
 538 64 l 1,2,-1
 538 132 l 1,3,-1
 725 132 l 1,4,-1
 725 680 l 1,5,-1
 800 680 l 1,6,-1
 800 -50 l 1,7,-1
 725 -50 l 1,0,-1
320 -29 m 1,8,-1
 320 205 l 1,9,-1
 70 205 l 1,10,-1
 70 274 l 1,11,-1
 613 274 l 1,12,-1
 613 205 l 1,13,-1
 394 205 l 1,14,-1
 394 -29 l 1,15,-1
 320 -29 l 1,8,-1
EndSplineSet
EndChar

StartChar: uni315E
Encoding: 12638 12638 260
Width: 900
Flags: W
LayerCount: 2
Fore
SplineSet
747 -50 m 1,0,-1
 747 680 l 1,1,-1
 822 680 l 1,2,-1
 822 -50 l 1,3,-1
 747 -50 l 1,0,-1
415 64 m 1,4,-1
 415 132 l 1,5,-1
 583 132 l 1,6,-1
 583 680 l 1,7,-1
 656 680 l 1,8,-1
 656 64 l 1,9,-1
 415 64 l 1,4,-1
249 -29 m 1,10,-1
 249 205 l 1,11,-1
 52 205 l 1,12,-1
 52 274 l 1,13,-1
 490 274 l 1,14,-1
 490 205 l 1,15,-1
 324 205 l 1,16,-1
 324 -29 l 1,17,-1
 249 -29 l 1,10,-1
EndSplineSet
EndChar

StartChar: uni315F
Encoding: 12639 12639 261
Width: 900
Flags: W
LayerCount: 2
Fore
SplineSet
330 -29 m 1,0,-1
 330 184 l 1,1,-1
 80 184 l 1,2,-1
 80 254 l 1,3,-1
 735 254 l 1,4,-1
 735 680 l 1,5,-1
 810 680 l 1,6,-1
 810 -50 l 1,7,-1
 735 -50 l 1,8,-1
 735 184 l 1,9,-1
 404 184 l 1,10,-1
 404 -29 l 1,11,-1
 330 -29 l 1,0,-1
EndSplineSet
EndChar

StartChar: uni3160
Encoding: 12640 12640 262
Width: 900
Flags: W
LayerCount: 2
Fore
SplineSet
299 0 m 1,0,-1
 299 213 l 1,1,-1
 40 213 l 1,2,-1
 40 282 l 1,3,-1
 860 282 l 1,4,-1
 860 213 l 1,5,-1
 601 213 l 1,6,-1
 601 0 l 1,7,-1
 527 0 l 1,8,-1
 527 213 l 1,9,-1
 373 213 l 1,10,-1
 373 0 l 1,11,-1
 299 0 l 1,0,-1
EndSplineSet
EndChar

StartChar: uni3161
Encoding: 12641 12641 263
Width: 900
Flags: W
LayerCount: 2
Fore
SplineSet
40 25 m 1,0,-1
 40 95 l 1,1,-1
 860 95 l 1,2,-1
 860 25 l 1,3,-1
 40 25 l 1,0,-1
EndSplineSet
EndChar

StartChar: uni3162
Encoding: 12642 12642 264
Width: 900
Flags: W
LayerCount: 2
Fore
SplineSet
85 25 m 1,0,-1
 85 94 l 1,1,-1
 740 94 l 1,2,-1
 740 604 l 1,3,-1
 815 604 l 1,4,-1
 815 -126 l 1,5,-1
 740 -126 l 1,6,-1
 740 25 l 1,7,-1
 85 25 l 1,0,-1
EndSplineSet
EndChar

StartChar: uni3163
Encoding: 12643 12643 265
Width: 900
Flags: W
LayerCount: 2
Fore
SplineSet
415 -120 m 1,0,-1
 415 610 l 1,1,-1
 490 610 l 1,2,-1
 490 -120 l 1,3,-1
 415 -120 l 1,0,-1
EndSplineSet
EndChar

StartChar: uniAC00
Encoding: 44032 44032 266
Width: 900
Flags: W
LayerCount: 2
Fore
SplineSet
850 493 m 1,0,-1
 715 493 l 1,1,-1
 715 35 l 1,2,-1
 640 35 l 1,3,-1
 640 765 l 1,4,-1
 715 765 l 1,5,-1
 715 562 l 1,6,-1
 850 562 l 1,7,-1
 850 493 l 1,0,-1
505 700 m 1,8,-1
 207 274 l 1,9,-1
 148 314 l 1,10,-1
 400 674 l 1,11,-1
 130 674 l 1,12,-1
 130 744 l 1,13,-1
 445 744 l 1,14,-1
 505 700 l 1,8,-1
EndSplineSet
EndChar

StartChar: uniAC01
Encoding: 44033 44033 267
Width: 900
Flags: W
LayerCount: 2
Fore
SplineSet
493 691 m 1,0,-1
 197 341 l 1,1,-1
 141 385 l 1,2,-1
 387 675 l 1,3,-1
 120 675 l 1,4,-1
 120 744 l 1,5,-1
 439 744 l 1,6,-1
 493 691 l 1,0,-1
715 -195 m 1,7,-1
 640 -195 l 1,8,-1
 640 88 l 1,9,-1
 297 88 l 1,10,-1
 297 157 l 1,11,-1
 640 157 l 1,12,-1
 640 765 l 1,13,-1
 715 765 l 1,14,-1
 715 595 l 1,15,-1
 850 595 l 1,16,-1
 850 526 l 1,17,-1
 715 526 l 1,18,-1
 715 -195 l 1,7,-1
EndSplineSet
EndChar

StartChar: uniAC04
Encoding: 44036 44036 268
Width: 900
Flags: W
LayerCount: 2
Fore
SplineSet
850 526 m 1,0,-1
 715 526 l 1,1,-1
 715 145 l 1,2,-1
 640 145 l 1,3,-1
 640 765 l 1,4,-1
 715 765 l 1,5,-1
 715 595 l 1,6,-1
 850 595 l 1,7,-1
 850 526 l 1,0,-1
493 691 m 1,8,-1
 197 341 l 1,9,-1
 141 385 l 1,10,-1
 387 675 l 1,11,-1
 120 675 l 1,12,-1
 120 744 l 1,13,-1
 439 744 l 1,14,-1
 493 691 l 1,8,-1
725 -195 m 1,15,-1
 376 -195 l 2,16,17
 348 -195 348 -195 328 -175 c 128,-1,18
 308 -155 308 -155 308 -127 c 2,19,-1
 308 116 l 1,20,-1
 383 116 l 1,21,-1
 383 -126 l 1,22,-1
 725 -126 l 1,23,-1
 725 -195 l 1,15,-1
EndSplineSet
EndChar

StartChar: uniAC07
Encoding: 44039 44039 269
Width: 900
Flags: W
LayerCount: 2
Fore
SplineSet
493 691 m 1,0,-1
 197 341 l 1,1,-1
 141 385 l 1,2,-1
 387 675 l 1,3,-1
 120 675 l 1,4,-1
 120 744 l 1,5,-1
 439 744 l 1,6,-1
 493 691 l 1,0,-1
725 -195 m 1,7,-1
 376 -195 l 2,8,9
 348 -195 348 -195 328 -175 c 128,-1,10
 308 -155 308 -155 308 -127 c 2,11,-1
 308 157 l 1,12,-1
 640 157 l 1,13,-1
 640 765 l 1,14,-1
 715 765 l 1,15,-1
 715 595 l 1,16,-1
 850 595 l 1,17,-1
 850 526 l 1,18,-1
 715 526 l 1,19,-1
 715 88 l 1,20,-1
 383 88 l 1,21,-1
 383 -126 l 1,22,-1
 725 -126 l 1,23,-1
 725 -195 l 1,7,-1
EndSplineSet
EndChar

StartChar: uniAC08
Encoding: 44040 44040 270
Width: 900
Flags: W
LayerCount: 2
Fore
SplineSet
493 691 m 1,0,-1
 197 341 l 1,1,-1
 141 385 l 1,2,-1
 387 675 l 1,3,-1
 120 675 l 1,4,-1
 120 744 l 1,5,-1
 439 744 l 1,6,-1
 493 691 l 1,0,-1
725 -215 m 1,7,-1
 376 -215 l 2,8,9
 348 -215 348 -215 328 -195 c 128,-1,10
 308 -175 308 -175 308 -147 c 2,11,-1
 308 7 l 1,12,-1
 640 7 l 1,13,-1
 640 104 l 1,14,-1
 308 104 l 1,15,-1
 308 168 l 1,16,-1
 640 168 l 1,17,-1
 640 765 l 1,18,-1
 715 765 l 1,19,-1
 715 595 l 1,20,-1
 850 595 l 1,21,-1
 850 526 l 1,22,-1
 715 526 l 1,23,-1
 715 -53 l 1,24,-1
 383 -53 l 1,25,-1
 383 -151 l 1,26,-1
 725 -151 l 1,27,-1
 725 -215 l 1,7,-1
EndSplineSet
EndChar

StartChar: uniAC09
Encoding: 44041 44041 271
Width: 900
Flags: W
LayerCount: 2
Fore
SplineSet
493 691 m 1,0,-1
 197 341 l 1,1,-1
 141 385 l 1,2,-1
 387 675 l 1,3,-1
 120 675 l 1,4,-1
 120 744 l 1,5,-1
 439 744 l 1,6,-1
 493 691 l 1,0,-1
476 -205 m 1,7,-1
 283 -205 l 2,8,9
 255 -205 255 -205 234.5 -185 c 128,-1,10
 214 -165 214 -165 214 -137 c 2,11,-1
 214 12 l 1,12,-1
 391 12 l 1,13,-1
 391 104 l 1,14,-1
 214 104 l 1,15,-1
 214 168 l 1,16,-1
 640 168 l 1,17,-1
 640 765 l 1,18,-1
 715 765 l 1,19,-1
 715 595 l 1,20,-1
 850 595 l 1,21,-1
 850 526 l 1,22,-1
 715 526 l 1,23,-1
 715 -205 l 1,24,-1
 640 -205 l 1,25,-1
 640 99 l 1,26,-1
 466 99 l 1,27,-1
 466 -48 l 1,28,-1
 289 -48 l 1,29,-1
 289 -141 l 1,30,-1
 476 -141 l 1,31,-1
 476 -205 l 1,7,-1
EndSplineSet
EndChar

StartChar: uniAC0A
Encoding: 44042 44042 272
Width: 900
Flags: W
LayerCount: 2
Fore
SplineSet
493 691 m 1,0,-1
 197 341 l 1,1,-1
 141 385 l 1,2,-1
 387 675 l 1,3,-1
 120 675 l 1,4,-1
 120 744 l 1,5,-1
 439 744 l 1,6,-1
 493 691 l 1,0,-1
715 -137 m 2,7,8
 715 -165 715 -165 695 -185 c 128,-1,9
 675 -205 675 -205 646 -205 c 2,10,-1
 532 -205 l 2,11,12
 504 -205 504 -205 484 -185 c 128,-1,13
 464 -165 464 -165 464 -137 c 2,14,-1
 464 168 l 1,15,-1
 640 168 l 1,16,-1
 640 765 l 1,17,-1
 715 765 l 1,18,-1
 715 595 l 1,19,-1
 850 595 l 1,20,-1
 850 526 l 1,21,-1
 715 526 l 1,22,-1
 715 -137 l 2,7,8
640 -136 m 1,23,-1
 640 99 l 1,24,-1
 538 99 l 1,25,-1
 538 -136 l 1,26,-1
 640 -136 l 1,23,-1
403 -205 m 1,27,-1
 231 -205 l 2,28,29
 203 -205 203 -205 182.5 -185 c 128,-1,30
 162 -165 162 -165 162 -137 c 2,31,-1
 162 12 l 1,32,-1
 318 12 l 1,33,-1
 318 104 l 1,34,-1
 162 104 l 1,35,-1
 162 168 l 1,36,-1
 393 168 l 1,37,-1
 393 -48 l 1,38,-1
 237 -48 l 1,39,-1
 237 -141 l 1,40,-1
 403 -141 l 1,41,-1
 403 -205 l 1,27,-1
EndSplineSet
EndChar

StartChar: uniAC10
Encoding: 44048 44048 273
Width: 900
Flags: W
LayerCount: 2
Fore
SplineSet
493 691 m 1,0,-1
 197 341 l 1,1,-1
 141 385 l 1,2,-1
 387 675 l 1,3,-1
 120 675 l 1,4,-1
 120 744 l 1,5,-1
 439 744 l 1,6,-1
 493 691 l 1,0,-1
715 -127 m 2,7,8
 715 -155 715 -155 695 -175 c 128,-1,9
 675 -195 675 -195 646 -195 c 2,10,-1
 376 -195 l 2,11,12
 348 -195 348 -195 328 -175 c 128,-1,13
 308 -155 308 -155 308 -127 c 2,14,-1
 308 157 l 1,15,-1
 640 157 l 1,16,-1
 640 765 l 1,17,-1
 715 765 l 1,18,-1
 715 595 l 1,19,-1
 850 595 l 1,20,-1
 850 526 l 1,21,-1
 715 526 l 1,22,-1
 715 -127 l 2,7,8
640 -126 m 1,23,-1
 640 88 l 1,24,-1
 383 88 l 1,25,-1
 383 -126 l 1,26,-1
 640 -126 l 1,23,-1
EndSplineSet
EndChar

StartChar: uniAC11
Encoding: 44049 44049 274
Width: 900
Flags: W
LayerCount: 2
Fore
SplineSet
493 691 m 1,0,-1
 197 341 l 1,1,-1
 141 385 l 1,2,-1
 387 675 l 1,3,-1
 120 675 l 1,4,-1
 120 744 l 1,5,-1
 439 744 l 1,6,-1
 493 691 l 1,0,-1
715 -132 m 2,7,8
 715 -160 715 -160 695 -180 c 128,-1,9
 675 -200 675 -200 646 -200 c 2,10,-1
 376 -200 l 2,11,12
 348 -200 348 -200 328 -180 c 128,-1,13
 308 -160 308 -160 308 -132 c 2,14,-1
 308 157 l 1,15,-1
 383 157 l 1,16,-1
 383 65 l 1,17,-1
 640 65 l 1,18,-1
 640 765 l 1,19,-1
 715 765 l 1,20,-1
 715 595 l 1,21,-1
 850 595 l 1,22,-1
 850 526 l 1,23,-1
 715 526 l 1,24,-1
 715 -132 l 2,7,8
640 -131 m 1,25,-1
 640 -4 l 1,26,-1
 383 -4 l 1,27,-1
 383 -131 l 1,28,-1
 640 -131 l 1,25,-1
EndSplineSet
EndChar

StartChar: uniAC12
Encoding: 44050 44050 275
Width: 900
Flags: W
LayerCount: 2
Fore
SplineSet
850 526 m 1,0,-1
 715 526 l 1,1,-1
 715 145 l 1,2,-1
 640 145 l 1,3,-1
 640 765 l 1,4,-1
 715 765 l 1,5,-1
 715 595 l 1,6,-1
 850 595 l 1,7,-1
 850 526 l 1,0,-1
493 691 m 1,8,-1
 197 341 l 1,9,-1
 141 385 l 1,10,-1
 387 675 l 1,11,-1
 120 675 l 1,12,-1
 120 744 l 1,13,-1
 439 744 l 1,14,-1
 493 691 l 1,8,-1
761 -161 m 1,15,-1
 700 -199 l 1,16,-1
 610 -53 l 1,17,-1
 520 -199 l 1,18,-1
 460 -161 l 1,19,-1
 610 82 l 1,20,-1
 761 -161 l 1,15,-1
434 -127 m 2,21,22
 434 -155 434 -155 414.5 -175 c 128,-1,23
 395 -195 395 -195 366 -195 c 2,24,-1
 252 -195 l 2,25,26
 224 -195 224 -195 203.5 -175 c 128,-1,27
 183 -155 183 -155 183 -127 c 2,28,29
 183 -127 183 -127 183 168 c 1,30,-1
 258 168 l 1,31,-1
 258 70 l 1,32,-1
 360 70 l 1,33,-1
 360 168 l 1,34,-1
 434 168 l 1,35,-1
 434 -127 l 2,21,22
360 -126 m 1,36,-1
 360 1 l 1,37,-1
 258 1 l 1,38,-1
 258 -126 l 1,39,-1
 360 -126 l 1,36,-1
EndSplineSet
EndChar

StartChar: uniAC13
Encoding: 44051 44051 276
Width: 900
Flags: W
LayerCount: 2
Fore
SplineSet
850 526 m 1,0,-1
 715 526 l 1,1,-1
 715 145 l 1,2,-1
 640 145 l 1,3,-1
 640 765 l 1,4,-1
 715 765 l 1,5,-1
 715 595 l 1,6,-1
 850 595 l 1,7,-1
 850 526 l 1,0,-1
493 691 m 1,8,-1
 197 341 l 1,9,-1
 141 385 l 1,10,-1
 387 675 l 1,11,-1
 120 675 l 1,12,-1
 120 744 l 1,13,-1
 439 744 l 1,14,-1
 493 691 l 1,8,-1
741 -154 m 1,15,-1
 683 -199 l 1,16,-1
 491 29 l 1,17,-1
 298 -199 l 1,18,-1
 240 -154 l 1,19,-1
 491 139 l 1,20,-1
 741 -154 l 1,15,-1
EndSplineSet
EndChar

StartChar: uniAC14
Encoding: 44052 44052 277
Width: 900
Flags: W
LayerCount: 2
Fore
SplineSet
850 526 m 1,0,-1
 715 526 l 1,1,-1
 715 145 l 1,2,-1
 640 145 l 1,3,-1
 640 765 l 1,4,-1
 715 765 l 1,5,-1
 715 595 l 1,6,-1
 850 595 l 1,7,-1
 850 526 l 1,0,-1
493 691 m 1,8,-1
 197 341 l 1,9,-1
 141 385 l 1,10,-1
 387 675 l 1,11,-1
 120 675 l 1,12,-1
 120 744 l 1,13,-1
 439 744 l 1,14,-1
 493 691 l 1,8,-1
742 -173 m 1,15,-1
 677 -201 l 1,16,-1
 580 -3 l 1,17,-1
 459 -183 l 1,18,-1
 340 -3 l 1,19,-1
 243 -201 l 1,20,-1
 178 -173 l 1,21,-1
 334 142 l 1,22,-1
 459 -65 l 1,23,-1
 586 142 l 1,24,-1
 742 -173 l 1,15,-1
EndSplineSet
EndChar

StartChar: uniAC15
Encoding: 44053 44053 278
Width: 900
Flags: W
LayerCount: 2
Fore
SplineSet
529 149 m 0,0,1
 573 149 573 149 640 113 c 1,2,-1
 640 765 l 1,3,-1
 715 765 l 1,4,-1
 715 595 l 1,5,-1
 850 595 l 1,6,-1
 850 526 l 1,7,-1
 715 526 l 1,8,-1
 715 -33 l 2,9,10
 715 -107 715 -107 659 -161 c 128,-1,11
 603 -215 603 -215 523 -215 c 0,12,13
 444 -215 444 -215 388 -161 c 0,14,15
 331 -106 331 -106 331 -33 c 0,16,17
 331 42 331 42 388 96 c 0,18,19
 445 149 445 149 529 149 c 0,0,1
640 -33 m 0,20,21
 640 -7 640 -7 630 14.5 c 128,-1,22
 620 36 620 36 604 51 c 0,23,24
 570 83 570 83 523 83 c 0,25,26
 474 83 474 83 440 50 c 0,27,28
 405 17 405 17 405 -33 c 256,29,30
 405 -83 405 -83 440 -116 c 0,31,32
 474 -148 474 -148 523 -148 c 0,33,34
 569 -148 569 -148 604 -116 c 0,35,36
 640 -84 640 -84 640 -33 c 0,20,21
493 691 m 1,37,-1
 197 341 l 1,38,-1
 141 385 l 1,39,-1
 387 675 l 1,40,-1
 120 675 l 1,41,-1
 120 744 l 1,42,-1
 439 744 l 1,43,-1
 493 691 l 1,37,-1
EndSplineSet
EndChar

StartChar: uniAC16
Encoding: 44054 44054 279
Width: 900
Flags: W
LayerCount: 2
Fore
SplineSet
493 691 m 1,0,-1
 197 341 l 1,1,-1
 141 385 l 1,2,-1
 387 675 l 1,3,-1
 120 675 l 1,4,-1
 120 744 l 1,5,-1
 439 744 l 1,6,-1
 493 691 l 1,0,-1
756 -155 m 1,7,-1
 699 -199 l 1,8,-1
 511 27 l 1,9,-1
 323 -199 l 1,10,-1
 267 -155 l 1,11,-1
 470 88 l 1,12,-1
 308 88 l 1,13,-1
 308 157 l 1,14,-1
 640 157 l 1,15,-1
 640 765 l 1,16,-1
 715 765 l 1,17,-1
 715 595 l 1,18,-1
 850 595 l 1,19,-1
 850 526 l 1,20,-1
 715 526 l 1,21,-1
 715 88 l 1,22,-1
 552 88 l 1,23,-1
 756 -155 l 1,7,-1
EndSplineSet
EndChar

StartChar: uniAC17
Encoding: 44055 44055 280
Width: 900
Flags: W
LayerCount: 2
Fore
SplineSet
493 691 m 1,0,-1
 197 341 l 1,1,-1
 141 385 l 1,2,-1
 387 675 l 1,3,-1
 120 675 l 1,4,-1
 120 744 l 1,5,-1
 439 744 l 1,6,-1
 493 691 l 1,0,-1
756 -149 m 1,7,-1
 702 -199 l 1,8,-1
 511 7 l 1,9,-1
 321 -199 l 1,10,-1
 267 -149 l 1,11,-1
 474 68 l 1,12,-1
 308 68 l 1,13,-1
 308 137 l 1,14,-1
 474 137 l 1,15,-1
 474 219 l 1,16,-1
 549 219 l 1,17,-1
 549 137 l 1,18,-1
 640 137 l 1,19,-1
 640 765 l 1,20,-1
 715 765 l 1,21,-1
 715 595 l 1,22,-1
 850 595 l 1,23,-1
 850 526 l 1,24,-1
 715 526 l 1,25,-1
 715 68 l 1,26,-1
 549 68 l 1,27,-1
 756 -149 l 1,7,-1
EndSplineSet
EndChar

StartChar: uniAC19
Encoding: 44057 44057 281
Width: 900
Flags: W
LayerCount: 2
Fore
SplineSet
493 691 m 1,0,-1
 197 341 l 1,1,-1
 141 385 l 1,2,-1
 387 675 l 1,3,-1
 120 675 l 1,4,-1
 120 744 l 1,5,-1
 439 744 l 1,6,-1
 493 691 l 1,0,-1
715 -205 m 1,7,-1
 376 -205 l 2,8,9
 348 -205 348 -205 328 -185 c 128,-1,10
 308 -165 308 -165 308 -137 c 2,11,-1
 308 157 l 1,12,-1
 640 157 l 1,13,-1
 640 765 l 1,14,-1
 715 765 l 1,15,-1
 715 595 l 1,16,-1
 850 595 l 1,17,-1
 850 526 l 1,18,-1
 715 526 l 1,19,-1
 715 94 l 1,20,-1
 383 94 l 1,21,-1
 383 7 l 1,22,-1
 705 7 l 1,23,-1
 705 -54 l 1,24,-1
 383 -54 l 1,25,-1
 383 -141 l 1,26,-1
 715 -141 l 1,27,-1
 715 -205 l 1,7,-1
EndSplineSet
EndChar

StartChar: uniAC1A
Encoding: 44058 44058 282
Width: 900
Flags: W
LayerCount: 2
Fore
SplineSet
493 691 m 1,0,-1
 197 341 l 1,1,-1
 141 385 l 1,2,-1
 387 675 l 1,3,-1
 120 675 l 1,4,-1
 120 744 l 1,5,-1
 439 744 l 1,6,-1
 493 691 l 1,0,-1
414 -126 m 1,7,-1
 567 -126 l 1,8,-1
 567 88 l 1,9,-1
 414 88 l 1,10,-1
 414 -126 l 1,7,-1
720 -195 m 1,11,-1
 261 -195 l 1,12,-1
 261 -126 l 1,13,-1
 339 -126 l 1,14,-1
 339 88 l 1,15,-1
 266 88 l 1,16,-1
 266 157 l 1,17,-1
 640 157 l 1,18,-1
 640 765 l 1,19,-1
 715 765 l 1,20,-1
 715 595 l 1,21,-1
 850 595 l 1,22,-1
 850 526 l 1,23,-1
 715 526 l 1,24,-1
 715 88 l 1,25,-1
 642 88 l 1,26,-1
 642 -126 l 1,27,-1
 720 -126 l 1,28,-1
 720 -195 l 1,11,-1
EndSplineSet
EndChar

StartChar: uniAC1B
Encoding: 44059 44059 283
Width: 900
Flags: W
LayerCount: 2
Fore
SplineSet
493 691 m 1,0,-1
 197 341 l 1,1,-1
 141 385 l 1,2,-1
 387 675 l 1,3,-1
 120 675 l 1,4,-1
 120 744 l 1,5,-1
 439 744 l 1,6,-1
 493 691 l 1,0,-1
609 68 m 1,7,8
 655 20 655 20 655 -45 c 0,9,10
 655 -115 655 -115 602 -165 c 0,11,12
 548 -215 548 -215 475 -215 c 128,-1,13
 402 -215 402 -215 348 -165 c 0,14,15
 295 -115 295 -115 295 -47.5 c 128,-1,16
 295 20 295 20 341 68 c 1,17,-1
 235 68 l 1,18,-1
 235 137 l 1,19,-1
 438 137 l 1,20,-1
 438 219 l 1,21,-1
 512 219 l 1,22,-1
 512 137 l 1,23,-1
 640 137 l 1,24,-1
 640 765 l 1,25,-1
 715 765 l 1,26,-1
 715 595 l 1,27,-1
 850 595 l 1,28,-1
 850 526 l 1,29,-1
 715 526 l 1,30,-1
 715 68 l 1,31,-1
 609 68 l 1,7,8
572 -86 m 0,32,33
 580 -68 580 -68 580 -45.5 c 128,-1,34
 580 -23 580 -23 571.5 -4 c 128,-1,35
 563 15 563 15 549 29 c 128,-1,36
 535 43 535 43 515.5 50.5 c 128,-1,37
 496 58 496 58 475 58 c 128,-1,38
 454 58 454 58 434.5 50.5 c 128,-1,39
 415 43 415 43 401 29 c 0,40,41
 370 -2 370 -2 370 -45 c 128,-1,42
 370 -88 370 -88 401 -119 c 0,43,44
 430 -148 430 -148 475 -148 c 0,45,46
 543 -148 543 -148 572 -86 c 0,32,33
EndSplineSet
EndChar

StartChar: uniAC1C
Encoding: 44060 44060 284
Width: 900
Flags: W
LayerCount: 2
Fore
SplineSet
760 35 m 1,0,-1
 685 35 l 1,1,-1
 685 503 l 1,2,-1
 575 503 l 1,3,-1
 575 35 l 1,4,-1
 502 35 l 1,5,-1
 502 765 l 1,6,-1
 575 765 l 1,7,-1
 575 573 l 1,8,-1
 685 573 l 1,9,-1
 685 765 l 1,10,-1
 760 765 l 1,11,-1
 760 35 l 1,0,-1
418 705 m 1,12,-1
 183 297 l 1,13,-1
 120 331 l 1,14,-1
 319 674 l 1,15,-1
 120 674 l 1,16,-1
 120 744 l 1,17,-1
 355 744 l 1,18,-1
 418 705 l 1,12,-1
EndSplineSet
EndChar

StartChar: uniAC1D
Encoding: 44061 44061 285
Width: 900
Flags: W
LayerCount: 2
Fore
SplineSet
429 707 m 1,0,-1
 189 342 l 1,1,-1
 128 379 l 1,2,-1
 323 676 l 1,3,-1
 120 676 l 1,4,-1
 120 744 l 1,5,-1
 377 744 l 1,6,-1
 429 707 l 1,0,-1
760 -195 m 1,7,-1
 685 -195 l 1,8,-1
 685 88 l 1,9,-1
 340 88 l 1,10,-1
 340 157 l 1,11,-1
 685 157 l 1,12,-1
 685 526 l 1,13,-1
 575 526 l 1,14,-1
 575 269 l 1,15,-1
 502 269 l 1,16,-1
 502 765 l 1,17,-1
 575 765 l 1,18,-1
 575 595 l 1,19,-1
 685 595 l 1,20,-1
 685 765 l 1,21,-1
 760 765 l 1,22,-1
 760 -195 l 1,7,-1
EndSplineSet
EndChar

StartChar: uniAC20
Encoding: 44064 44064 286
Width: 900
Flags: W
LayerCount: 2
Fore
SplineSet
760 145 m 1,0,-1
 684 145 l 1,1,-1
 684 526 l 1,2,-1
 575 526 l 1,3,-1
 575 145 l 1,4,-1
 502 145 l 1,5,-1
 502 765 l 1,6,-1
 575 765 l 1,7,-1
 575 595 l 1,8,-1
 684 595 l 1,9,-1
 684 765 l 1,10,-1
 760 765 l 1,11,-1
 760 145 l 1,0,-1
429 707 m 1,12,-1
 189 342 l 1,13,-1
 128 379 l 1,14,-1
 323 676 l 1,15,-1
 120 676 l 1,16,-1
 120 744 l 1,17,-1
 377 744 l 1,18,-1
 429 707 l 1,12,-1
770 -195 m 1,19,-1
 420 -195 l 2,20,21
 392 -195 392 -195 371.5 -175 c 128,-1,22
 351 -155 351 -155 351 -127 c 2,23,-1
 351 116 l 1,24,-1
 426 116 l 1,25,-1
 426 -126 l 1,26,-1
 770 -126 l 1,27,-1
 770 -195 l 1,19,-1
EndSplineSet
EndChar

StartChar: uniAC24
Encoding: 44068 44068 287
Width: 900
Flags: W
LayerCount: 2
Fore
SplineSet
429 707 m 1,0,-1
 189 342 l 1,1,-1
 128 379 l 1,2,-1
 323 676 l 1,3,-1
 120 676 l 1,4,-1
 120 744 l 1,5,-1
 377 744 l 1,6,-1
 429 707 l 1,0,-1
770 -215 m 1,7,-1
 420 -215 l 2,8,9
 392 -215 392 -215 371.5 -195 c 128,-1,10
 351 -175 351 -175 351 -147 c 2,11,-1
 351 7 l 1,12,-1
 684 7 l 1,13,-1
 684 104 l 1,14,-1
 351 104 l 1,15,-1
 351 168 l 1,16,-1
 684 168 l 1,17,-1
 684 526 l 1,18,-1
 575 526 l 1,19,-1
 575 269 l 1,20,-1
 502 269 l 1,21,-1
 502 765 l 1,22,-1
 575 765 l 1,23,-1
 575 595 l 1,24,-1
 684 595 l 1,25,-1
 684 765 l 1,26,-1
 760 765 l 1,27,-1
 760 -53 l 1,28,-1
 426 -53 l 1,29,-1
 426 -151 l 1,30,-1
 770 -151 l 1,31,-1
 770 -215 l 1,7,-1
EndSplineSet
EndChar

StartChar: uniAC2C
Encoding: 44076 44076 288
Width: 900
Flags: W
LayerCount: 2
Fore
SplineSet
429 707 m 1,0,-1
 189 342 l 1,1,-1
 128 379 l 1,2,-1
 323 676 l 1,3,-1
 120 676 l 1,4,-1
 120 744 l 1,5,-1
 377 744 l 1,6,-1
 429 707 l 1,0,-1
760 -127 m 2,7,8
 760 -155 760 -155 740 -175 c 128,-1,9
 720 -195 720 -195 691 -195 c 2,10,-1
 420 -195 l 2,11,12
 392 -195 392 -195 371.5 -175 c 128,-1,13
 351 -155 351 -155 351 -127 c 2,14,-1
 351 157 l 1,15,-1
 685 157 l 1,16,-1
 685 526 l 1,17,-1
 575 526 l 1,18,-1
 575 269 l 1,19,-1
 502 269 l 1,20,-1
 502 765 l 1,21,-1
 575 765 l 1,22,-1
 575 595 l 1,23,-1
 685 595 l 1,24,-1
 685 765 l 1,25,-1
 760 765 l 1,26,-1
 760 -127 l 2,7,8
685 -126 m 1,27,-1
 685 88 l 1,28,-1
 426 88 l 1,29,-1
 426 -126 l 1,30,-1
 685 -126 l 1,27,-1
EndSplineSet
EndChar

StartChar: uniAC2D
Encoding: 44077 44077 289
Width: 900
Flags: W
LayerCount: 2
Fore
SplineSet
429 707 m 1,0,-1
 189 342 l 1,1,-1
 128 379 l 1,2,-1
 323 676 l 1,3,-1
 120 676 l 1,4,-1
 120 744 l 1,5,-1
 377 744 l 1,6,-1
 429 707 l 1,0,-1
760 -132 m 2,7,8
 760 -160 760 -160 740 -180 c 128,-1,9
 720 -200 720 -200 691 -200 c 2,10,-1
 420 -200 l 2,11,12
 392 -200 392 -200 371.5 -180 c 128,-1,13
 351 -160 351 -160 351 -132 c 2,14,-1
 351 157 l 1,15,-1
 426 157 l 1,16,-1
 426 65 l 1,17,-1
 685 65 l 1,18,-1
 685 526 l 1,19,-1
 575 526 l 1,20,-1
 575 269 l 1,21,-1
 502 269 l 1,22,-1
 502 765 l 1,23,-1
 575 765 l 1,24,-1
 575 595 l 1,25,-1
 685 595 l 1,26,-1
 685 765 l 1,27,-1
 760 765 l 1,28,-1
 760 -132 l 2,7,8
685 -131 m 1,29,-1
 685 -4 l 1,30,-1
 426 -4 l 1,31,-1
 426 -131 l 1,32,-1
 685 -131 l 1,29,-1
EndSplineSet
EndChar

StartChar: uniAC2F
Encoding: 44079 44079 290
Width: 900
Flags: W
LayerCount: 2
Fore
SplineSet
759 145 m 1,0,-1
 684 145 l 1,1,-1
 684 526 l 1,2,-1
 574 526 l 1,3,-1
 574 269 l 1,4,-1
 501 269 l 1,5,-1
 501 765 l 1,6,-1
 574 765 l 1,7,-1
 574 595 l 1,8,-1
 684 595 l 1,9,-1
 684 765 l 1,10,-1
 759 765 l 1,11,-1
 759 145 l 1,0,-1
429 707 m 1,12,-1
 189 342 l 1,13,-1
 128 379 l 1,14,-1
 323 676 l 1,15,-1
 120 676 l 1,16,-1
 120 744 l 1,17,-1
 377 744 l 1,18,-1
 429 707 l 1,12,-1
785 -154 m 1,19,-1
 726 -199 l 1,20,-1
 534 29 l 1,21,-1
 341 -199 l 1,22,-1
 283 -154 l 1,23,-1
 534 139 l 1,24,-1
 785 -154 l 1,19,-1
EndSplineSet
EndChar

StartChar: uniAC30
Encoding: 44080 44080 291
Width: 900
Flags: W
LayerCount: 2
Fore
SplineSet
759 145 m 1,0,-1
 684 145 l 1,1,-1
 684 526 l 1,2,-1
 574 526 l 1,3,-1
 574 269 l 1,4,-1
 501 269 l 1,5,-1
 501 765 l 1,6,-1
 574 765 l 1,7,-1
 574 595 l 1,8,-1
 684 595 l 1,9,-1
 684 765 l 1,10,-1
 759 765 l 1,11,-1
 759 145 l 1,0,-1
429 707 m 1,12,-1
 189 342 l 1,13,-1
 128 379 l 1,14,-1
 323 676 l 1,15,-1
 120 676 l 1,16,-1
 120 744 l 1,17,-1
 377 744 l 1,18,-1
 429 707 l 1,12,-1
786 -173 m 1,19,-1
 721 -201 l 1,20,-1
 623 -3 l 1,21,-1
 503 -183 l 1,22,-1
 383 -3 l 1,23,-1
 285 -201 l 1,24,-1
 220 -173 l 1,25,-1
 377 142 l 1,26,-1
 502 -65 l 1,27,-1
 629 142 l 1,28,-1
 786 -173 l 1,19,-1
EndSplineSet
EndChar

StartChar: uniAC31
Encoding: 44081 44081 292
Width: 900
Flags: W
LayerCount: 2
Fore
SplineSet
573 149 m 0,0,1
 618 149 618 149 685 113 c 1,2,-1
 685 526 l 1,3,-1
 575 526 l 1,4,-1
 575 269 l 1,5,-1
 502 269 l 1,6,-1
 502 765 l 1,7,-1
 575 765 l 1,8,-1
 575 595 l 1,9,-1
 685 595 l 1,10,-1
 685 765 l 1,11,-1
 760 765 l 1,12,-1
 760 -33 l 2,13,14
 760 -105 760 -105 703 -160 c 256,15,16
 646 -215 646 -215 567 -215 c 0,17,18
 487 -215 487 -215 431 -161 c 0,19,20
 374 -106 374 -106 374 -33 c 0,21,22
 374 42 374 42 432 96 c 0,23,24
 489 149 489 149 573 149 c 0,0,1
685 -34 m 0,25,26
 685 -8 685 -8 675.5 13.5 c 128,-1,27
 666 35 666 35 650 50.5 c 128,-1,28
 634 66 634 66 612.5 74.5 c 128,-1,29
 591 83 591 83 567 83 c 128,-1,30
 543 83 543 83 521.5 74.5 c 128,-1,31
 500 66 500 66 484 50 c 0,32,33
 449 17 449 17 449 -33 c 256,34,35
 449 -83 449 -83 484 -116 c 0,36,37
 518 -148 518 -148 567 -148 c 128,-1,38
 616 -148 616 -148 650 -116 c 0,39,40
 685 -83 685 -83 685 -34 c 0,25,26
429 707 m 1,41,-1
 189 342 l 1,42,-1
 128 379 l 1,43,-1
 323 676 l 1,44,-1
 120 676 l 1,45,-1
 120 744 l 1,46,-1
 377 744 l 1,47,-1
 429 707 l 1,41,-1
EndSplineSet
EndChar

StartChar: uniAC38
Encoding: 44088 44088 293
Width: 900
Flags: W
LayerCount: 2
Fore
SplineSet
850 404 m 1,0,-1
 715 404 l 1,1,-1
 715 35 l 1,2,-1
 640 35 l 1,3,-1
 640 765 l 1,4,-1
 715 765 l 1,5,-1
 715 661 l 1,6,-1
 850 661 l 1,7,-1
 850 591 l 1,8,-1
 715 591 l 1,9,-1
 715 474 l 1,10,-1
 850 474 l 1,11,-1
 850 404 l 1,0,-1
505 700 m 1,12,-1
 207 274 l 1,13,-1
 148 314 l 1,14,-1
 400 674 l 1,15,-1
 130 674 l 1,16,-1
 130 744 l 1,17,-1
 445 744 l 1,18,-1
 505 700 l 1,12,-1
EndSplineSet
EndChar

StartChar: uniAC39
Encoding: 44089 44089 294
Width: 900
Flags: W
LayerCount: 2
Fore
SplineSet
493 691 m 1,0,-1
 197 341 l 1,1,-1
 141 385 l 1,2,-1
 387 675 l 1,3,-1
 120 675 l 1,4,-1
 120 744 l 1,5,-1
 439 744 l 1,6,-1
 493 691 l 1,0,-1
715 -195 m 1,7,-1
 640 -195 l 1,8,-1
 640 88 l 1,9,-1
 297 88 l 1,10,-1
 297 157 l 1,11,-1
 640 157 l 1,12,-1
 640 765 l 1,13,-1
 715 765 l 1,14,-1
 715 683 l 1,15,-1
 850 683 l 1,16,-1
 850 614 l 1,17,-1
 715 614 l 1,18,-1
 715 507 l 1,19,-1
 850 507 l 1,20,-1
 850 438 l 1,21,-1
 715 438 l 1,22,-1
 715 -195 l 1,7,-1
EndSplineSet
EndChar

StartChar: uniAC3C
Encoding: 44092 44092 295
Width: 900
Flags: W
LayerCount: 2
Fore
SplineSet
850 438 m 1,0,-1
 715 438 l 1,1,-1
 715 145 l 1,2,-1
 640 145 l 1,3,-1
 640 765 l 1,4,-1
 715 765 l 1,5,-1
 715 683 l 1,6,-1
 850 683 l 1,7,-1
 850 614 l 1,8,-1
 715 614 l 1,9,-1
 715 507 l 1,10,-1
 850 507 l 1,11,-1
 850 438 l 1,0,-1
493 691 m 1,12,-1
 197 341 l 1,13,-1
 141 385 l 1,14,-1
 387 675 l 1,15,-1
 120 675 l 1,16,-1
 120 744 l 1,17,-1
 439 744 l 1,18,-1
 493 691 l 1,12,-1
725 -195 m 1,19,-1
 376 -195 l 2,20,21
 348 -195 348 -195 328 -175 c 128,-1,22
 308 -155 308 -155 308 -127 c 2,23,-1
 308 116 l 1,24,-1
 383 116 l 1,25,-1
 383 -126 l 1,26,-1
 725 -126 l 1,27,-1
 725 -195 l 1,19,-1
EndSplineSet
EndChar

StartChar: uniAC40
Encoding: 44096 44096 296
Width: 900
Flags: W
LayerCount: 2
Fore
SplineSet
493 691 m 1,0,-1
 197 341 l 1,1,-1
 141 385 l 1,2,-1
 387 675 l 1,3,-1
 120 675 l 1,4,-1
 120 744 l 1,5,-1
 439 744 l 1,6,-1
 493 691 l 1,0,-1
725 -215 m 1,7,-1
 376 -215 l 2,8,9
 348 -215 348 -215 328 -195 c 128,-1,10
 308 -175 308 -175 308 -147 c 2,11,-1
 308 7 l 1,12,-1
 640 7 l 1,13,-1
 640 104 l 1,14,-1
 308 104 l 1,15,-1
 308 168 l 1,16,-1
 640 168 l 1,17,-1
 640 765 l 1,18,-1
 715 765 l 1,19,-1
 715 683 l 1,20,-1
 850 683 l 1,21,-1
 850 614 l 1,22,-1
 715 614 l 1,23,-1
 715 508 l 1,24,-1
 850 508 l 1,25,-1
 850 439 l 1,26,-1
 715 439 l 1,27,-1
 715 -53 l 1,28,-1
 383 -53 l 1,29,-1
 383 -151 l 1,30,-1
 725 -151 l 1,31,-1
 725 -215 l 1,7,-1
EndSplineSet
EndChar

StartChar: uniAC4B
Encoding: 44107 44107 297
Width: 900
Flags: W
LayerCount: 2
Fore
SplineSet
850 439 m 1,0,-1
 715 439 l 1,1,-1
 715 145 l 1,2,-1
 640 145 l 1,3,-1
 640 765 l 1,4,-1
 715 765 l 1,5,-1
 715 683 l 1,6,-1
 850 683 l 1,7,-1
 850 614 l 1,8,-1
 715 614 l 1,9,-1
 715 508 l 1,10,-1
 850 508 l 1,11,-1
 850 439 l 1,0,-1
493 691 m 1,12,-1
 197 341 l 1,13,-1
 141 385 l 1,14,-1
 387 675 l 1,15,-1
 120 675 l 1,16,-1
 120 744 l 1,17,-1
 439 744 l 1,18,-1
 493 691 l 1,12,-1
741 -154 m 1,19,-1
 683 -199 l 1,20,-1
 491 29 l 1,21,-1
 298 -199 l 1,22,-1
 240 -154 l 1,23,-1
 491 139 l 1,24,-1
 741 -154 l 1,19,-1
EndSplineSet
EndChar

StartChar: uniAC4D
Encoding: 44109 44109 298
Width: 900
Flags: W
LayerCount: 2
Fore
SplineSet
529 149 m 0,0,1
 573 149 573 149 640 113 c 1,2,-1
 640 765 l 1,3,-1
 715 765 l 1,4,-1
 715 683 l 1,5,-1
 850 683 l 1,6,-1
 850 614 l 1,7,-1
 715 614 l 1,8,-1
 715 508 l 1,9,-1
 850 508 l 1,10,-1
 850 439 l 1,11,-1
 715 439 l 1,12,-1
 715 -33 l 2,13,14
 715 -107 715 -107 659 -161 c 128,-1,15
 603 -215 603 -215 523 -215 c 0,16,17
 444 -215 444 -215 388 -161 c 0,18,19
 331 -106 331 -106 331 -33 c 0,20,21
 331 42 331 42 388 96 c 0,22,23
 445 149 445 149 529 149 c 0,0,1
640 -33 m 0,24,25
 640 -7 640 -7 630 14.5 c 128,-1,26
 620 36 620 36 604 51 c 0,27,28
 570 83 570 83 523 83 c 0,29,30
 474 83 474 83 440 50 c 0,31,32
 405 17 405 17 405 -33 c 256,33,34
 405 -83 405 -83 440 -116 c 0,35,36
 474 -148 474 -148 523 -148 c 0,37,38
 569 -148 569 -148 604 -116 c 0,39,40
 640 -84 640 -84 640 -33 c 0,24,25
493 691 m 1,41,-1
 197 341 l 1,42,-1
 141 385 l 1,43,-1
 387 675 l 1,44,-1
 120 675 l 1,45,-1
 120 744 l 1,46,-1
 439 744 l 1,47,-1
 493 691 l 1,41,-1
EndSplineSet
EndChar

StartChar: uniAC54
Encoding: 44116 44116 299
Width: 900
Flags: W
LayerCount: 2
Fore
SplineSet
760 35 m 1,0,-1
 685 35 l 1,1,-1
 685 394 l 1,2,-1
 575 394 l 1,3,-1
 575 35 l 1,4,-1
 502 35 l 1,5,-1
 502 765 l 1,6,-1
 575 765 l 1,7,-1
 575 671 l 1,8,-1
 685 671 l 1,9,-1
 685 765 l 1,10,-1
 760 765 l 1,11,-1
 760 35 l 1,0,-1
685 463 m 1,12,-1
 685 602 l 1,13,-1
 575 602 l 1,14,-1
 575 463 l 1,15,-1
 685 463 l 1,12,-1
418 705 m 1,16,-1
 183 297 l 1,17,-1
 120 331 l 1,18,-1
 319 674 l 1,19,-1
 120 674 l 1,20,-1
 120 744 l 1,21,-1
 355 744 l 1,22,-1
 418 705 l 1,16,-1
EndSplineSet
EndChar

StartChar: uniAC58
Encoding: 44120 44120 300
Width: 900
Flags: W
LayerCount: 2
Fore
SplineSet
760 145 m 1,0,-1
 684 145 l 1,1,-1
 684 428 l 1,2,-1
 575 428 l 1,3,-1
 575 145 l 1,4,-1
 502 145 l 1,5,-1
 502 765 l 1,6,-1
 575 765 l 1,7,-1
 575 683 l 1,8,-1
 684 683 l 1,9,-1
 684 765 l 1,10,-1
 760 765 l 1,11,-1
 760 145 l 1,0,-1
684 497 m 1,12,-1
 684 614 l 1,13,-1
 575 614 l 1,14,-1
 575 497 l 1,15,-1
 684 497 l 1,12,-1
429 707 m 1,16,-1
 189 342 l 1,17,-1
 128 379 l 1,18,-1
 323 676 l 1,19,-1
 120 676 l 1,20,-1
 120 744 l 1,21,-1
 377 744 l 1,22,-1
 429 707 l 1,16,-1
770 -195 m 1,23,-1
 420 -195 l 2,24,25
 392 -195 392 -195 371.5 -175 c 128,-1,26
 351 -155 351 -155 351 -127 c 2,27,-1
 351 116 l 1,28,-1
 426 116 l 1,29,-1
 426 -126 l 1,30,-1
 770 -126 l 1,31,-1
 770 -195 l 1,23,-1
EndSplineSet
EndChar

StartChar: uniAC5C
Encoding: 44124 44124 301
Width: 900
Flags: W
LayerCount: 2
Fore
SplineSet
429 707 m 1,0,-1
 189 342 l 1,1,-1
 128 379 l 1,2,-1
 323 676 l 1,3,-1
 120 676 l 1,4,-1
 120 744 l 1,5,-1
 377 744 l 1,6,-1
 429 707 l 1,0,-1
770 -215 m 1,7,-1
 420 -215 l 2,8,9
 392 -215 392 -215 371.5 -195 c 128,-1,10
 351 -175 351 -175 351 -147 c 2,11,-1
 351 7 l 1,12,-1
 684 7 l 1,13,-1
 684 104 l 1,14,-1
 351 104 l 1,15,-1
 351 168 l 1,16,-1
 684 168 l 1,17,-1
 684 428 l 1,18,-1
 575 428 l 1,19,-1
 575 269 l 1,20,-1
 502 269 l 1,21,-1
 502 765 l 1,22,-1
 575 765 l 1,23,-1
 575 683 l 1,24,-1
 684 683 l 1,25,-1
 684 765 l 1,26,-1
 760 765 l 1,27,-1
 760 -53 l 1,28,-1
 426 -53 l 1,29,-1
 426 -151 l 1,30,-1
 770 -151 l 1,31,-1
 770 -215 l 1,7,-1
684 497 m 1,32,-1
 684 614 l 1,33,-1
 575 614 l 1,34,-1
 575 497 l 1,35,-1
 684 497 l 1,32,-1
EndSplineSet
EndChar

StartChar: uniAC70
Encoding: 44144 44144 302
Width: 900
Flags: W
LayerCount: 2
Fore
SplineSet
730 35 m 1,0,-1
 654 35 l 1,1,-1
 654 472 l 1,2,-1
 446 472 l 1,3,-1
 446 541 l 1,4,-1
 654 541 l 1,5,-1
 654 765 l 1,6,-1
 730 765 l 1,7,-1
 730 35 l 1,0,-1
508 700 m 1,8,-1
 208 274 l 1,9,-1
 148 314 l 1,10,-1
 402 674 l 1,11,-1
 130 674 l 1,12,-1
 130 744 l 1,13,-1
 447 744 l 1,14,-1
 508 700 l 1,8,-1
EndSplineSet
EndChar

StartChar: uniAC71
Encoding: 44145 44145 303
Width: 900
Flags: W
LayerCount: 2
Fore
SplineSet
507 691 m 1,0,-1
 208 341 l 1,1,-1
 151 385 l 1,2,-1
 400 675 l 1,3,-1
 130 675 l 1,4,-1
 130 744 l 1,5,-1
 451 744 l 1,6,-1
 507 691 l 1,0,-1
730 -195 m 1,7,-1
 655 -195 l 1,8,-1
 655 88 l 1,9,-1
 309 88 l 1,10,-1
 309 157 l 1,11,-1
 655 157 l 1,12,-1
 655 496 l 1,13,-1
 445 496 l 1,14,-1
 445 565 l 1,15,-1
 655 565 l 1,16,-1
 655 765 l 1,17,-1
 730 765 l 1,18,-1
 730 -195 l 1,7,-1
EndSplineSet
EndChar

StartChar: uniAC74
Encoding: 44148 44148 304
Width: 900
Flags: W
LayerCount: 2
Fore
SplineSet
730 145 m 1,0,-1
 654 145 l 1,1,-1
 654 496 l 1,2,-1
 445 496 l 1,3,-1
 445 565 l 1,4,-1
 654 565 l 1,5,-1
 654 765 l 1,6,-1
 730 765 l 1,7,-1
 730 145 l 1,0,-1
507 691 m 1,8,-1
 208 341 l 1,9,-1
 151 385 l 1,10,-1
 400 675 l 1,11,-1
 130 675 l 1,12,-1
 130 744 l 1,13,-1
 451 744 l 1,14,-1
 507 691 l 1,8,-1
740 -195 m 1,15,-1
 388 -195 l 2,16,17
 360 -195 360 -195 339.5 -175 c 128,-1,18
 319 -155 319 -155 319 -127 c 2,19,-1
 319 116 l 1,20,-1
 395 116 l 1,21,-1
 395 -126 l 1,22,-1
 740 -126 l 1,23,-1
 740 -195 l 1,15,-1
EndSplineSet
EndChar

StartChar: uniAC77
Encoding: 44151 44151 305
Width: 900
Flags: W
LayerCount: 2
Fore
SplineSet
507 691 m 1,0,-1
 208 341 l 1,1,-1
 151 385 l 1,2,-1
 400 675 l 1,3,-1
 130 675 l 1,4,-1
 130 744 l 1,5,-1
 451 744 l 1,6,-1
 507 691 l 1,0,-1
740 -195 m 1,7,-1
 388 -195 l 2,8,9
 360 -195 360 -195 339.5 -175 c 128,-1,10
 319 -155 319 -155 319 -127 c 2,11,-1
 319 157 l 1,12,-1
 654 157 l 1,13,-1
 654 496 l 1,14,-1
 445 496 l 1,15,-1
 445 565 l 1,16,-1
 654 565 l 1,17,-1
 654 765 l 1,18,-1
 730 765 l 1,19,-1
 730 88 l 1,20,-1
 395 88 l 1,21,-1
 395 -126 l 1,22,-1
 740 -126 l 1,23,-1
 740 -195 l 1,7,-1
EndSplineSet
EndChar

StartChar: uniAC78
Encoding: 44152 44152 306
Width: 900
Flags: W
LayerCount: 2
Fore
SplineSet
507 691 m 1,0,-1
 208 341 l 1,1,-1
 151 385 l 1,2,-1
 400 675 l 1,3,-1
 130 675 l 1,4,-1
 130 744 l 1,5,-1
 451 744 l 1,6,-1
 507 691 l 1,0,-1
740 -215 m 1,7,-1
 388 -215 l 2,8,9
 360 -215 360 -215 339.5 -195 c 128,-1,10
 319 -175 319 -175 319 -147 c 2,11,-1
 319 7 l 1,12,-1
 654 7 l 1,13,-1
 654 104 l 1,14,-1
 319 104 l 1,15,-1
 319 168 l 1,16,-1
 654 168 l 1,17,-1
 654 496 l 1,18,-1
 445 496 l 1,19,-1
 445 565 l 1,20,-1
 654 565 l 1,21,-1
 654 765 l 1,22,-1
 730 765 l 1,23,-1
 730 -53 l 1,24,-1
 395 -53 l 1,25,-1
 395 -151 l 1,26,-1
 740 -151 l 1,27,-1
 740 -215 l 1,7,-1
EndSplineSet
EndChar

StartChar: uniAC7A
Encoding: 44154 44154 307
Width: 900
Flags: W
LayerCount: 2
Fore
SplineSet
507 691 m 1,0,-1
 208 341 l 1,1,-1
 151 385 l 1,2,-1
 400 675 l 1,3,-1
 130 675 l 1,4,-1
 130 744 l 1,5,-1
 451 744 l 1,6,-1
 507 691 l 1,0,-1
730 -137 m 2,7,8
 730 -165 730 -165 710 -185 c 128,-1,9
 690 -205 690 -205 661 -205 c 2,10,-1
 546 -205 l 2,11,12
 518 -205 518 -205 497.5 -185 c 128,-1,13
 477 -165 477 -165 477 -137 c 2,14,-1
 477 168 l 1,15,-1
 655 168 l 1,16,-1
 655 496 l 1,17,-1
 445 496 l 1,18,-1
 445 565 l 1,19,-1
 655 565 l 1,20,-1
 655 765 l 1,21,-1
 730 765 l 1,22,-1
 730 -137 l 2,7,8
655 -136 m 1,23,-1
 655 99 l 1,24,-1
 552 99 l 1,25,-1
 552 -136 l 1,26,-1
 655 -136 l 1,23,-1
416 -205 m 1,27,-1
 242 -205 l 2,28,29
 214 -205 214 -205 193.5 -185 c 128,-1,30
 173 -165 173 -165 173 -137 c 2,31,-1
 173 12 l 1,32,-1
 330 12 l 1,33,-1
 330 104 l 1,34,-1
 173 104 l 1,35,-1
 173 168 l 1,36,-1
 405 168 l 1,37,-1
 405 -48 l 1,38,-1
 248 -48 l 1,39,-1
 248 -141 l 1,40,-1
 416 -141 l 1,41,-1
 416 -205 l 1,27,-1
EndSplineSet
EndChar

StartChar: uniAC80
Encoding: 44160 44160 308
Width: 900
Flags: W
LayerCount: 2
Fore
SplineSet
507 691 m 1,0,-1
 208 341 l 1,1,-1
 151 385 l 1,2,-1
 400 675 l 1,3,-1
 130 675 l 1,4,-1
 130 744 l 1,5,-1
 451 744 l 1,6,-1
 507 691 l 1,0,-1
730 -127 m 2,7,8
 730 -155 730 -155 710 -175 c 128,-1,9
 690 -195 690 -195 661 -195 c 2,10,-1
 389 -195 l 2,11,12
 361 -195 361 -195 340 -175 c 128,-1,13
 319 -155 319 -155 319 -127 c 2,14,-1
 319 157 l 1,15,-1
 655 157 l 1,16,-1
 655 496 l 1,17,-1
 445 496 l 1,18,-1
 445 565 l 1,19,-1
 655 565 l 1,20,-1
 655 765 l 1,21,-1
 730 765 l 1,22,-1
 730 -127 l 2,7,8
655 -126 m 1,23,-1
 655 88 l 1,24,-1
 395 88 l 1,25,-1
 395 -126 l 1,26,-1
 655 -126 l 1,23,-1
EndSplineSet
EndChar

StartChar: uniAC81
Encoding: 44161 44161 309
Width: 900
Flags: W
LayerCount: 2
Fore
SplineSet
507 691 m 1,0,-1
 208 341 l 1,1,-1
 151 385 l 1,2,-1
 400 675 l 1,3,-1
 130 675 l 1,4,-1
 130 744 l 1,5,-1
 451 744 l 1,6,-1
 507 691 l 1,0,-1
730 -132 m 2,7,8
 730 -160 730 -160 710 -180 c 128,-1,9
 690 -200 690 -200 661 -200 c 2,10,-1
 389 -200 l 2,11,12
 361 -200 361 -200 340 -180 c 128,-1,13
 319 -160 319 -160 319 -132 c 2,14,-1
 319 157 l 1,15,-1
 395 157 l 1,16,-1
 395 65 l 1,17,-1
 655 65 l 1,18,-1
 655 496 l 1,19,-1
 445 496 l 1,20,-1
 445 565 l 1,21,-1
 655 565 l 1,22,-1
 655 765 l 1,23,-1
 730 765 l 1,24,-1
 730 -132 l 2,7,8
655 -131 m 1,25,-1
 655 -4 l 1,26,-1
 395 -4 l 1,27,-1
 395 -131 l 1,28,-1
 655 -131 l 1,25,-1
EndSplineSet
EndChar

StartChar: uniAC83
Encoding: 44163 44163 310
Width: 900
Flags: W
LayerCount: 2
Fore
SplineSet
729 145 m 1,0,-1
 653 145 l 1,1,-1
 653 496 l 1,2,-1
 444 496 l 1,3,-1
 444 565 l 1,4,-1
 653 565 l 1,5,-1
 653 765 l 1,6,-1
 729 765 l 1,7,-1
 729 145 l 1,0,-1
507 691 m 1,8,-1
 208 341 l 1,9,-1
 151 385 l 1,10,-1
 400 675 l 1,11,-1
 130 675 l 1,12,-1
 130 744 l 1,13,-1
 451 744 l 1,14,-1
 507 691 l 1,8,-1
755 -154 m 1,15,-1
 696 -199 l 1,16,-1
 503 29 l 1,17,-1
 310 -199 l 1,18,-1
 251 -154 l 1,19,-1
 503 139 l 1,20,-1
 755 -154 l 1,15,-1
EndSplineSet
EndChar

StartChar: uniAC84
Encoding: 44164 44164 311
Width: 900
Flags: W
LayerCount: 2
Fore
SplineSet
729 145 m 1,0,-1
 653 145 l 1,1,-1
 653 496 l 1,2,-1
 444 496 l 1,3,-1
 444 565 l 1,4,-1
 653 565 l 1,5,-1
 653 765 l 1,6,-1
 729 765 l 1,7,-1
 729 145 l 1,0,-1
507 691 m 1,8,-1
 208 341 l 1,9,-1
 151 385 l 1,10,-1
 400 675 l 1,11,-1
 130 675 l 1,12,-1
 130 744 l 1,13,-1
 451 744 l 1,14,-1
 507 691 l 1,8,-1
756 -173 m 1,15,-1
 691 -201 l 1,16,-1
 593 -3 l 1,17,-1
 472 -183 l 1,18,-1
 352 -3 l 1,19,-1
 253 -201 l 1,20,-1
 188 -173 l 1,21,-1
 345 142 l 1,22,-1
 471 -65 l 1,23,-1
 599 142 l 1,24,-1
 756 -173 l 1,15,-1
EndSplineSet
EndChar

StartChar: uniAC85
Encoding: 44165 44165 312
Width: 900
Flags: W
LayerCount: 2
Fore
SplineSet
507 691 m 1,0,-1
 208 341 l 1,1,-1
 151 385 l 1,2,-1
 400 675 l 1,3,-1
 130 675 l 1,4,-1
 130 744 l 1,5,-1
 451 744 l 1,6,-1
 507 691 l 1,0,-1
542 149 m 0,7,8
 587 149 587 149 655 113 c 1,9,-1
 655 496 l 1,10,-1
 445 496 l 1,11,-1
 445 565 l 1,12,-1
 655 565 l 1,13,-1
 655 765 l 1,14,-1
 730 765 l 1,15,-1
 730 -33 l 2,16,17
 730 -107 730 -107 672 -161 c 0,18,19
 615 -215 615 -215 536 -215 c 0,20,21
 456 -215 456 -215 400 -161 c 0,22,23
 343 -106 343 -106 343 -33 c 0,24,25
 343 42 343 42 400 96 c 0,26,27
 458 149 458 149 542 149 c 0,7,8
655 -34 m 0,28,29
 655 -8 655 -8 645.5 13.5 c 128,-1,30
 636 35 636 35 619.5 50.5 c 128,-1,31
 603 66 603 66 581.5 74.5 c 128,-1,32
 560 83 560 83 536 83 c 128,-1,33
 512 83 512 83 490.5 74.5 c 128,-1,34
 469 66 469 66 453 50 c 0,35,36
 418 17 418 17 418 -33 c 256,37,38
 418 -83 418 -83 453 -116 c 0,39,40
 487 -148 487 -148 536 -148 c 0,41,42
 584 -148 584 -148 620 -116 c 0,43,44
 655 -84 655 -84 655 -34 c 0,28,29
EndSplineSet
EndChar

StartChar: uniAC86
Encoding: 44166 44166 313
Width: 900
Flags: W
LayerCount: 2
Fore
SplineSet
507 691 m 1,0,-1
 208 341 l 1,1,-1
 151 385 l 1,2,-1
 400 675 l 1,3,-1
 130 675 l 1,4,-1
 130 744 l 1,5,-1
 451 744 l 1,6,-1
 507 691 l 1,0,-1
769 -155 m 1,7,-1
 712 -199 l 1,8,-1
 523 27 l 1,9,-1
 334 -199 l 1,10,-1
 278 -155 l 1,11,-1
 482 88 l 1,12,-1
 319 88 l 1,13,-1
 319 157 l 1,14,-1
 653 157 l 1,15,-1
 653 496 l 1,16,-1
 444 496 l 1,17,-1
 444 565 l 1,18,-1
 653 565 l 1,19,-1
 653 765 l 1,20,-1
 728 765 l 1,21,-1
 728 88 l 1,22,-1
 565 88 l 1,23,-1
 769 -155 l 1,7,-1
EndSplineSet
EndChar

StartChar: uniAC89
Encoding: 44169 44169 314
Width: 900
Flags: W
LayerCount: 2
Fore
SplineSet
507 691 m 1,0,-1
 208 341 l 1,1,-1
 151 385 l 1,2,-1
 400 675 l 1,3,-1
 130 675 l 1,4,-1
 130 744 l 1,5,-1
 451 744 l 1,6,-1
 507 691 l 1,0,-1
730 -205 m 1,7,-1
 389 -205 l 2,8,9
 361 -205 361 -205 340 -185 c 128,-1,10
 319 -165 319 -165 319 -137 c 2,11,-1
 319 157 l 1,12,-1
 655 157 l 1,13,-1
 655 496 l 1,14,-1
 445 496 l 1,15,-1
 445 565 l 1,16,-1
 655 565 l 1,17,-1
 655 765 l 1,18,-1
 730 765 l 1,19,-1
 730 94 l 1,20,-1
 395 94 l 1,21,-1
 395 7 l 1,22,-1
 720 7 l 1,23,-1
 720 -54 l 1,24,-1
 395 -54 l 1,25,-1
 395 -141 l 1,26,-1
 730 -141 l 1,27,-1
 730 -205 l 1,7,-1
EndSplineSet
EndChar

StartChar: uniAC8A
Encoding: 44170 44170 315
Width: 900
Flags: W
LayerCount: 2
Fore
SplineSet
507 691 m 1,0,-1
 208 341 l 1,1,-1
 151 385 l 1,2,-1
 400 675 l 1,3,-1
 130 675 l 1,4,-1
 130 744 l 1,5,-1
 451 744 l 1,6,-1
 507 691 l 1,0,-1
426 -126 m 1,7,-1
 581 -126 l 1,8,-1
 581 88 l 1,9,-1
 426 88 l 1,10,-1
 426 -126 l 1,7,-1
735 -195 m 1,11,-1
 272 -195 l 1,12,-1
 272 -126 l 1,13,-1
 351 -126 l 1,14,-1
 351 88 l 1,15,-1
 278 88 l 1,16,-1
 278 157 l 1,17,-1
 654 157 l 1,18,-1
 654 496 l 1,19,-1
 445 496 l 1,20,-1
 445 565 l 1,21,-1
 654 565 l 1,22,-1
 654 765 l 1,23,-1
 730 765 l 1,24,-1
 730 88 l 1,25,-1
 656 88 l 1,26,-1
 656 -126 l 1,27,-1
 735 -126 l 1,28,-1
 735 -195 l 1,11,-1
EndSplineSet
EndChar

StartChar: uniAC8B
Encoding: 44171 44171 316
Width: 900
Flags: W
LayerCount: 2
Fore
SplineSet
507 691 m 1,0,-1
 208 341 l 1,1,-1
 151 385 l 1,2,-1
 400 675 l 1,3,-1
 130 675 l 1,4,-1
 130 744 l 1,5,-1
 451 744 l 1,6,-1
 507 691 l 1,0,-1
623 68 m 1,7,8
 669 22 669 22 669 -45 c 0,9,10
 669 -115 669 -115 615 -165 c 256,11,12
 561 -215 561 -215 488 -215 c 0,13,14
 414 -215 414 -215 362 -166 c 0,15,16
 307 -115 307 -115 307 -47.5 c 128,-1,17
 307 20 307 20 353 68 c 1,18,-1
 246 68 l 1,19,-1
 246 137 l 1,20,-1
 450 137 l 1,21,-1
 450 219 l 1,22,-1
 526 219 l 1,23,-1
 526 137 l 1,24,-1
 655 137 l 1,25,-1
 655 496 l 1,26,-1
 445 496 l 1,27,-1
 445 565 l 1,28,-1
 655 565 l 1,29,-1
 655 765 l 1,30,-1
 730 765 l 1,31,-1
 730 68 l 1,32,-1
 623 68 l 1,7,8
586 -86 m 0,33,34
 594 -68 594 -68 594 -45.5 c 128,-1,35
 594 -23 594 -23 585.5 -4 c 128,-1,36
 577 15 577 15 563 29 c 0,37,38
 534 58 534 58 488 58 c 0,39,40
 444 58 444 58 414 29 c 0,41,42
 382 -1 382 -1 382 -45 c 128,-1,43
 382 -89 382 -89 414 -119 c 0,44,45
 444 -148 444 -148 488 -148 c 0,46,47
 557 -148 557 -148 586 -86 c 0,33,34
EndSplineSet
EndChar

StartChar: uniAC8C
Encoding: 44172 44172 317
Width: 900
Flags: W
LayerCount: 2
Fore
SplineSet
760 35 m 1,0,-1
 685 35 l 1,1,-1
 685 765 l 1,2,-1
 760 765 l 1,3,-1
 760 35 l 1,0,-1
593 35 m 1,4,-1
 520 35 l 1,5,-1
 520 473 l 1,6,-1
 361 473 l 1,7,-1
 361 543 l 1,8,-1
 520 543 l 1,9,-1
 520 765 l 1,10,-1
 593 765 l 1,11,-1
 593 35 l 1,4,-1
418 705 m 1,12,-1
 183 297 l 1,13,-1
 120 331 l 1,14,-1
 319 674 l 1,15,-1
 120 674 l 1,16,-1
 120 744 l 1,17,-1
 355 744 l 1,18,-1
 418 705 l 1,12,-1
EndSplineSet
EndChar

StartChar: uniAC90
Encoding: 44176 44176 318
Width: 900
Flags: W
LayerCount: 2
Fore
SplineSet
760 145 m 1,0,-1
 684 145 l 1,1,-1
 684 765 l 1,2,-1
 760 765 l 1,3,-1
 760 145 l 1,0,-1
593 145 m 1,4,-1
 520 145 l 1,5,-1
 520 496 l 1,6,-1
 361 496 l 1,7,-1
 361 565 l 1,8,-1
 520 565 l 1,9,-1
 520 765 l 1,10,-1
 593 765 l 1,11,-1
 593 145 l 1,4,-1
429 707 m 1,12,-1
 189 342 l 1,13,-1
 127 379 l 1,14,-1
 323 676 l 1,15,-1
 120 676 l 1,16,-1
 120 744 l 1,17,-1
 376 744 l 1,18,-1
 429 707 l 1,12,-1
770 -195 m 1,19,-1
 420 -195 l 2,20,21
 392 -195 392 -195 371.5 -175 c 128,-1,22
 351 -155 351 -155 351 -127 c 2,23,-1
 351 116 l 1,24,-1
 426 116 l 1,25,-1
 426 -126 l 1,26,-1
 770 -126 l 1,27,-1
 770 -195 l 1,19,-1
EndSplineSet
EndChar

StartChar: uniAC94
Encoding: 44180 44180 319
Width: 900
Flags: W
LayerCount: 2
Fore
SplineSet
593 269 m 1,0,-1
 520 269 l 1,1,-1
 520 496 l 1,2,-1
 361 496 l 1,3,-1
 361 565 l 1,4,-1
 520 565 l 1,5,-1
 520 765 l 1,6,-1
 593 765 l 1,7,-1
 593 269 l 1,0,-1
429 707 m 1,8,-1
 189 342 l 1,9,-1
 127 379 l 1,10,-1
 323 676 l 1,11,-1
 120 676 l 1,12,-1
 120 744 l 1,13,-1
 376 744 l 1,14,-1
 429 707 l 1,8,-1
770 -215 m 1,15,-1
 420 -215 l 2,16,17
 392 -215 392 -215 371.5 -195 c 128,-1,18
 351 -175 351 -175 351 -147 c 2,19,-1
 351 7 l 1,20,-1
 684 7 l 1,21,-1
 684 104 l 1,22,-1
 351 104 l 1,23,-1
 351 168 l 1,24,-1
 684 168 l 1,25,-1
 684 765 l 1,26,-1
 760 765 l 1,27,-1
 760 -53 l 1,28,-1
 426 -53 l 1,29,-1
 426 -151 l 1,30,-1
 770 -151 l 1,31,-1
 770 -215 l 1,15,-1
EndSplineSet
EndChar

StartChar: uniAC9C
Encoding: 44188 44188 320
Width: 900
Flags: W
LayerCount: 2
Fore
SplineSet
593 269 m 1,0,-1
 520 269 l 1,1,-1
 520 496 l 1,2,-1
 361 496 l 1,3,-1
 361 565 l 1,4,-1
 520 565 l 1,5,-1
 520 765 l 1,6,-1
 593 765 l 1,7,-1
 593 269 l 1,0,-1
429 707 m 1,8,-1
 189 342 l 1,9,-1
 127 379 l 1,10,-1
 323 676 l 1,11,-1
 120 676 l 1,12,-1
 120 744 l 1,13,-1
 376 744 l 1,14,-1
 429 707 l 1,8,-1
760 -127 m 2,15,16
 760 -155 760 -155 740 -175 c 128,-1,17
 720 -195 720 -195 691 -195 c 2,18,-1
 420 -195 l 2,19,20
 392 -195 392 -195 371.5 -175 c 128,-1,21
 351 -155 351 -155 351 -127 c 2,22,-1
 351 157 l 1,23,-1
 685 157 l 1,24,-1
 685 765 l 1,25,-1
 760 765 l 1,26,-1
 760 -127 l 2,15,16
685 -126 m 1,27,-1
 685 88 l 1,28,-1
 426 88 l 1,29,-1
 426 -126 l 1,30,-1
 685 -126 l 1,27,-1
EndSplineSet
EndChar

StartChar: uniAC9D
Encoding: 44189 44189 321
Width: 900
Flags: W
LayerCount: 2
Fore
SplineSet
593 269 m 1,0,-1
 520 269 l 1,1,-1
 520 496 l 1,2,-1
 361 496 l 1,3,-1
 361 565 l 1,4,-1
 520 565 l 1,5,-1
 520 765 l 1,6,-1
 593 765 l 1,7,-1
 593 269 l 1,0,-1
429 707 m 1,8,-1
 189 342 l 1,9,-1
 127 379 l 1,10,-1
 323 676 l 1,11,-1
 120 676 l 1,12,-1
 120 744 l 1,13,-1
 376 744 l 1,14,-1
 429 707 l 1,8,-1
760 -132 m 2,15,16
 760 -160 760 -160 740 -180 c 128,-1,17
 720 -200 720 -200 691 -200 c 2,18,-1
 420 -200 l 2,19,20
 392 -200 392 -200 371.5 -180 c 128,-1,21
 351 -160 351 -160 351 -132 c 2,22,-1
 351 157 l 1,23,-1
 426 157 l 1,24,-1
 426 65 l 1,25,-1
 685 65 l 1,26,-1
 685 765 l 1,27,-1
 760 765 l 1,28,-1
 760 -132 l 2,15,16
685 -131 m 1,29,-1
 685 -4 l 1,30,-1
 426 -4 l 1,31,-1
 426 -131 l 1,32,-1
 685 -131 l 1,29,-1
EndSplineSet
EndChar

StartChar: uniAC9F
Encoding: 44191 44191 322
Width: 900
Flags: W
LayerCount: 2
Fore
SplineSet
759 145 m 1,0,-1
 684 145 l 1,1,-1
 684 765 l 1,2,-1
 759 765 l 1,3,-1
 759 145 l 1,0,-1
592 269 m 1,4,-1
 519 269 l 1,5,-1
 519 496 l 1,6,-1
 361 496 l 1,7,-1
 361 565 l 1,8,-1
 519 565 l 1,9,-1
 519 765 l 1,10,-1
 592 765 l 1,11,-1
 592 269 l 1,4,-1
429 707 m 1,12,-1
 189 342 l 1,13,-1
 127 379 l 1,14,-1
 323 676 l 1,15,-1
 120 676 l 1,16,-1
 120 744 l 1,17,-1
 376 744 l 1,18,-1
 429 707 l 1,12,-1
785 -154 m 1,19,-1
 726 -199 l 1,20,-1
 534 29 l 1,21,-1
 341 -199 l 1,22,-1
 283 -154 l 1,23,-1
 534 139 l 1,24,-1
 785 -154 l 1,19,-1
EndSplineSet
EndChar

StartChar: uniACA0
Encoding: 44192 44192 323
Width: 900
Flags: W
LayerCount: 2
Fore
SplineSet
759 145 m 1,0,-1
 684 145 l 1,1,-1
 684 765 l 1,2,-1
 759 765 l 1,3,-1
 759 145 l 1,0,-1
592 269 m 1,4,-1
 519 269 l 1,5,-1
 519 496 l 1,6,-1
 361 496 l 1,7,-1
 361 565 l 1,8,-1
 519 565 l 1,9,-1
 519 765 l 1,10,-1
 592 765 l 1,11,-1
 592 269 l 1,4,-1
429 707 m 1,12,-1
 189 342 l 1,13,-1
 127 379 l 1,14,-1
 323 676 l 1,15,-1
 120 676 l 1,16,-1
 120 744 l 1,17,-1
 376 744 l 1,18,-1
 429 707 l 1,12,-1
786 -173 m 1,19,-1
 721 -201 l 1,20,-1
 623 -3 l 1,21,-1
 503 -183 l 1,22,-1
 383 -3 l 1,23,-1
 285 -201 l 1,24,-1
 220 -173 l 1,25,-1
 377 142 l 1,26,-1
 502 -65 l 1,27,-1
 629 142 l 1,28,-1
 786 -173 l 1,19,-1
EndSplineSet
EndChar

StartChar: uniACA1
Encoding: 44193 44193 324
Width: 900
Flags: W
LayerCount: 2
Fore
SplineSet
593 269 m 1,0,-1
 520 269 l 1,1,-1
 520 496 l 1,2,-1
 361 496 l 1,3,-1
 361 565 l 1,4,-1
 520 565 l 1,5,-1
 520 765 l 1,6,-1
 593 765 l 1,7,-1
 593 269 l 1,0,-1
573 149 m 0,8,9
 618 149 618 149 685 113 c 1,10,-1
 685 765 l 1,11,-1
 760 765 l 1,12,-1
 760 -33 l 2,13,14
 760 -105 760 -105 703 -160 c 256,15,16
 646 -215 646 -215 567 -215 c 0,17,18
 487 -215 487 -215 431 -161 c 0,19,20
 374 -106 374 -106 374 -33 c 0,21,22
 374 42 374 42 432 96 c 0,23,24
 489 149 489 149 573 149 c 0,8,9
685 -34 m 0,25,26
 685 -8 685 -8 675.5 13.5 c 128,-1,27
 666 35 666 35 650 50.5 c 128,-1,28
 634 66 634 66 612.5 74.5 c 128,-1,29
 591 83 591 83 567 83 c 128,-1,30
 543 83 543 83 521.5 74.5 c 128,-1,31
 500 66 500 66 484 50 c 0,32,33
 449 17 449 17 449 -33 c 256,34,35
 449 -83 449 -83 484 -116 c 0,36,37
 518 -148 518 -148 567 -148 c 128,-1,38
 616 -148 616 -148 650 -116 c 0,39,40
 685 -83 685 -83 685 -34 c 0,25,26
429 707 m 1,41,-1
 189 342 l 1,42,-1
 127 379 l 1,43,-1
 323 676 l 1,44,-1
 120 676 l 1,45,-1
 120 744 l 1,46,-1
 376 744 l 1,47,-1
 429 707 l 1,41,-1
EndSplineSet
EndChar

StartChar: uniACA8
Encoding: 44200 44200 325
Width: 900
Flags: W
LayerCount: 2
Fore
SplineSet
730 35 m 1,0,-1
 655 35 l 1,1,-1
 655 385 l 1,2,-1
 485 385 l 1,3,-1
 485 454 l 1,4,-1
 655 454 l 1,5,-1
 655 561 l 1,6,-1
 485 561 l 1,7,-1
 485 631 l 1,8,-1
 655 631 l 1,9,-1
 655 765 l 1,10,-1
 730 765 l 1,11,-1
 730 35 l 1,0,-1
508 700 m 1,12,-1
 208 274 l 1,13,-1
 148 314 l 1,14,-1
 402 674 l 1,15,-1
 130 674 l 1,16,-1
 130 744 l 1,17,-1
 447 744 l 1,18,-1
 508 700 l 1,12,-1
EndSplineSet
EndChar

StartChar: uniACA9
Encoding: 44201 44201 326
Width: 900
Flags: W
LayerCount: 2
Fore
SplineSet
507 691 m 1,0,-1
 208 341 l 1,1,-1
 151 385 l 1,2,-1
 400 675 l 1,3,-1
 130 675 l 1,4,-1
 130 744 l 1,5,-1
 451 744 l 1,6,-1
 507 691 l 1,0,-1
730 -195 m 1,7,-1
 655 -195 l 1,8,-1
 655 88 l 1,9,-1
 309 88 l 1,10,-1
 309 157 l 1,11,-1
 655 157 l 1,12,-1
 655 388 l 1,13,-1
 475 388 l 1,14,-1
 475 457 l 1,15,-1
 655 457 l 1,16,-1
 655 564 l 1,17,-1
 475 564 l 1,18,-1
 475 633 l 1,19,-1
 655 633 l 1,20,-1
 655 765 l 1,21,-1
 730 765 l 1,22,-1
 730 -195 l 1,7,-1
EndSplineSet
EndChar

StartChar: uniACAA
Encoding: 44202 44202 327
Width: 900
Flags: W
LayerCount: 2
Fore
SplineSet
507 691 m 1,0,-1
 208 341 l 1,1,-1
 151 385 l 1,2,-1
 400 675 l 1,3,-1
 130 675 l 1,4,-1
 130 744 l 1,5,-1
 451 744 l 1,6,-1
 507 691 l 1,0,-1
730 -195 m 1,7,-1
 655 -195 l 1,8,-1
 655 88 l 1,9,-1
 479 88 l 1,10,-1
 479 -195 l 1,11,-1
 403 -195 l 1,12,-1
 403 88 l 1,13,-1
 246 88 l 1,14,-1
 246 157 l 1,15,-1
 655 157 l 1,16,-1
 655 388 l 1,17,-1
 475 388 l 1,18,-1
 475 457 l 1,19,-1
 655 457 l 1,20,-1
 655 564 l 1,21,-1
 475 564 l 1,22,-1
 475 633 l 1,23,-1
 655 633 l 1,24,-1
 655 765 l 1,25,-1
 730 765 l 1,26,-1
 730 -195 l 1,7,-1
EndSplineSet
EndChar

StartChar: uniACAC
Encoding: 44204 44204 328
Width: 900
Flags: W
LayerCount: 2
Fore
SplineSet
730 145 m 1,0,-1
 655 145 l 1,1,-1
 655 388 l 1,2,-1
 475 388 l 1,3,-1
 475 457 l 1,4,-1
 655 457 l 1,5,-1
 655 564 l 1,6,-1
 475 564 l 1,7,-1
 475 633 l 1,8,-1
 655 633 l 1,9,-1
 655 765 l 1,10,-1
 730 765 l 1,11,-1
 730 145 l 1,0,-1
507 691 m 1,12,-1
 208 341 l 1,13,-1
 151 385 l 1,14,-1
 400 675 l 1,15,-1
 130 675 l 1,16,-1
 130 744 l 1,17,-1
 451 744 l 1,18,-1
 507 691 l 1,12,-1
740 -195 m 1,19,-1
 388 -195 l 2,20,21
 360 -195 360 -195 339.5 -175 c 128,-1,22
 319 -155 319 -155 319 -127 c 2,23,-1
 319 116 l 1,24,-1
 395 116 l 1,25,-1
 395 -126 l 1,26,-1
 740 -126 l 1,27,-1
 740 -195 l 1,19,-1
EndSplineSet
EndChar

StartChar: uniACAF
Encoding: 44207 44207 329
Width: 900
Flags: W
LayerCount: 2
Fore
SplineSet
507 691 m 1,0,-1
 208 341 l 1,1,-1
 151 385 l 1,2,-1
 400 675 l 1,3,-1
 130 675 l 1,4,-1
 130 744 l 1,5,-1
 451 744 l 1,6,-1
 507 691 l 1,0,-1
740 -195 m 1,7,-1
 388 -195 l 2,8,9
 360 -195 360 -195 339.5 -175 c 128,-1,10
 319 -155 319 -155 319 -127 c 2,11,-1
 319 157 l 1,12,-1
 655 157 l 1,13,-1
 655 388 l 1,14,-1
 475 388 l 1,15,-1
 475 457 l 1,16,-1
 655 457 l 1,17,-1
 655 564 l 1,18,-1
 475 564 l 1,19,-1
 475 633 l 1,20,-1
 655 633 l 1,21,-1
 655 765 l 1,22,-1
 730 765 l 1,23,-1
 730 88 l 1,24,-1
 395 88 l 1,25,-1
 395 -126 l 1,26,-1
 740 -126 l 1,27,-1
 740 -195 l 1,7,-1
EndSplineSet
EndChar

StartChar: uniACB0
Encoding: 44208 44208 330
Width: 900
Flags: W
LayerCount: 2
Fore
SplineSet
507 691 m 1,0,-1
 208 341 l 1,1,-1
 151 385 l 1,2,-1
 400 675 l 1,3,-1
 130 675 l 1,4,-1
 130 744 l 1,5,-1
 451 744 l 1,6,-1
 507 691 l 1,0,-1
740 -215 m 1,7,-1
 388 -215 l 2,8,9
 360 -215 360 -215 339.5 -195 c 128,-1,10
 319 -175 319 -175 319 -147 c 2,11,-1
 319 7 l 1,12,-1
 654 7 l 1,13,-1
 654 104 l 1,14,-1
 319 104 l 1,15,-1
 319 168 l 1,16,-1
 655 168 l 1,17,-1
 655 388 l 1,18,-1
 475 388 l 1,19,-1
 475 457 l 1,20,-1
 655 457 l 1,21,-1
 655 564 l 1,22,-1
 475 564 l 1,23,-1
 475 633 l 1,24,-1
 655 633 l 1,25,-1
 655 765 l 1,26,-1
 730 765 l 1,27,-1
 730 -53 l 1,28,-1
 395 -53 l 1,29,-1
 395 -151 l 1,30,-1
 740 -151 l 1,31,-1
 740 -215 l 1,7,-1
EndSplineSet
EndChar

StartChar: uniACB8
Encoding: 44216 44216 331
Width: 900
Flags: W
LayerCount: 2
Fore
SplineSet
507 691 m 1,0,-1
 208 341 l 1,1,-1
 151 385 l 1,2,-1
 400 675 l 1,3,-1
 130 675 l 1,4,-1
 130 744 l 1,5,-1
 451 744 l 1,6,-1
 507 691 l 1,0,-1
730 -127 m 2,7,8
 730 -155 730 -155 710 -175 c 128,-1,9
 690 -195 690 -195 661 -195 c 2,10,-1
 389 -195 l 2,11,12
 361 -195 361 -195 340 -175 c 128,-1,13
 319 -155 319 -155 319 -127 c 2,14,-1
 319 157 l 1,15,-1
 655 157 l 1,16,-1
 655 388 l 1,17,-1
 475 388 l 1,18,-1
 475 457 l 1,19,-1
 655 457 l 1,20,-1
 655 564 l 1,21,-1
 475 564 l 1,22,-1
 475 633 l 1,23,-1
 655 633 l 1,24,-1
 655 765 l 1,25,-1
 730 765 l 1,26,-1
 730 -127 l 2,7,8
655 -126 m 1,27,-1
 655 88 l 1,28,-1
 395 88 l 1,29,-1
 395 -126 l 1,30,-1
 655 -126 l 1,27,-1
EndSplineSet
EndChar

StartChar: uniACB9
Encoding: 44217 44217 332
Width: 900
Flags: W
LayerCount: 2
Fore
SplineSet
507 691 m 1,0,-1
 208 341 l 1,1,-1
 151 385 l 1,2,-1
 400 675 l 1,3,-1
 130 675 l 1,4,-1
 130 744 l 1,5,-1
 451 744 l 1,6,-1
 507 691 l 1,0,-1
730 -132 m 2,7,8
 730 -160 730 -160 710 -180 c 128,-1,9
 690 -200 690 -200 661 -200 c 2,10,-1
 389 -200 l 2,11,12
 361 -200 361 -200 340 -180 c 128,-1,13
 319 -160 319 -160 319 -132 c 2,14,-1
 319 157 l 1,15,-1
 395 157 l 1,16,-1
 395 65 l 1,17,-1
 655 65 l 1,18,-1
 655 388 l 1,19,-1
 475 388 l 1,20,-1
 475 457 l 1,21,-1
 655 457 l 1,22,-1
 655 564 l 1,23,-1
 475 564 l 1,24,-1
 475 633 l 1,25,-1
 655 633 l 1,26,-1
 655 765 l 1,27,-1
 730 765 l 1,28,-1
 730 -132 l 2,7,8
655 -131 m 1,29,-1
 655 -4 l 1,30,-1
 395 -4 l 1,31,-1
 395 -131 l 1,32,-1
 655 -131 l 1,29,-1
EndSplineSet
EndChar

StartChar: uniACBB
Encoding: 44219 44219 333
Width: 900
Flags: W
LayerCount: 2
Fore
SplineSet
730 145 m 1,0,-1
 655 145 l 1,1,-1
 655 388 l 1,2,-1
 475 388 l 1,3,-1
 475 457 l 1,4,-1
 655 457 l 1,5,-1
 655 564 l 1,6,-1
 475 564 l 1,7,-1
 475 633 l 1,8,-1
 655 633 l 1,9,-1
 655 765 l 1,10,-1
 730 765 l 1,11,-1
 730 145 l 1,0,-1
507 691 m 1,12,-1
 208 341 l 1,13,-1
 151 385 l 1,14,-1
 400 675 l 1,15,-1
 130 675 l 1,16,-1
 130 744 l 1,17,-1
 451 744 l 1,18,-1
 507 691 l 1,12,-1
755 -154 m 1,19,-1
 696 -199 l 1,20,-1
 503 29 l 1,21,-1
 310 -199 l 1,22,-1
 251 -154 l 1,23,-1
 503 139 l 1,24,-1
 755 -154 l 1,19,-1
EndSplineSet
EndChar

StartChar: uniACBC
Encoding: 44220 44220 334
Width: 900
Flags: W
LayerCount: 2
Fore
SplineSet
730 145 m 1,0,-1
 655 145 l 1,1,-1
 655 388 l 1,2,-1
 475 388 l 1,3,-1
 475 457 l 1,4,-1
 655 457 l 1,5,-1
 655 564 l 1,6,-1
 475 564 l 1,7,-1
 475 633 l 1,8,-1
 655 633 l 1,9,-1
 655 765 l 1,10,-1
 730 765 l 1,11,-1
 730 145 l 1,0,-1
507 691 m 1,12,-1
 208 341 l 1,13,-1
 151 385 l 1,14,-1
 400 675 l 1,15,-1
 130 675 l 1,16,-1
 130 744 l 1,17,-1
 451 744 l 1,18,-1
 507 691 l 1,12,-1
756 -173 m 1,19,-1
 691 -201 l 1,20,-1
 593 -3 l 1,21,-1
 472 -183 l 1,22,-1
 352 -3 l 1,23,-1
 253 -201 l 1,24,-1
 188 -173 l 1,25,-1
 345 142 l 1,26,-1
 471 -65 l 1,27,-1
 599 142 l 1,28,-1
 756 -173 l 1,19,-1
EndSplineSet
EndChar

StartChar: uniACBD
Encoding: 44221 44221 335
Width: 900
Flags: W
LayerCount: 2
Fore
SplineSet
507 691 m 1,0,-1
 208 341 l 1,1,-1
 151 385 l 1,2,-1
 400 675 l 1,3,-1
 130 675 l 1,4,-1
 130 744 l 1,5,-1
 451 744 l 1,6,-1
 507 691 l 1,0,-1
655 111 m 1,7,-1
 655 389 l 1,8,-1
 475 389 l 1,9,-1
 475 458 l 1,10,-1
 655 458 l 1,11,-1
 655 564 l 1,12,-1
 475 564 l 1,13,-1
 475 633 l 1,14,-1
 655 633 l 1,15,-1
 655 765 l 1,16,-1
 730 765 l 1,17,-1
 729 -18 l 2,18,19
 730 -23 730 -23 730 -33 c 0,20,21
 730 -107 730 -107 672 -161 c 0,22,23
 615 -215 615 -215 536 -215 c 0,24,25
 456 -215 456 -215 400 -161 c 0,26,27
 343 -106 343 -106 343 -33 c 0,28,29
 343 42 343 42 400 96 c 0,30,31
 458 149 458 149 530 149 c 128,-1,32
 602 149 602 149 655 111 c 1,7,-1
655 -34 m 0,33,34
 655 -8 655 -8 645.5 13.5 c 128,-1,35
 636 35 636 35 619.5 50.5 c 128,-1,36
 603 66 603 66 581.5 74.5 c 128,-1,37
 560 83 560 83 536 83 c 128,-1,38
 512 83 512 83 490.5 74.5 c 128,-1,39
 469 66 469 66 453 50 c 0,40,41
 418 17 418 17 418 -33 c 256,42,43
 418 -83 418 -83 453 -116 c 0,44,45
 487 -148 487 -148 536 -148 c 0,46,47
 584 -148 584 -148 620 -116 c 0,48,49
 655 -84 655 -84 655 -34 c 0,33,34
EndSplineSet
EndChar

StartChar: uniACC1
Encoding: 44225 44225 336
Width: 900
Flags: W
LayerCount: 2
Fore
SplineSet
507 691 m 1,0,-1
 208 341 l 1,1,-1
 151 385 l 1,2,-1
 400 675 l 1,3,-1
 130 675 l 1,4,-1
 130 744 l 1,5,-1
 451 744 l 1,6,-1
 507 691 l 1,0,-1
730 -205 m 1,7,-1
 389 -205 l 2,8,9
 361 -205 361 -205 340 -185 c 128,-1,10
 319 -165 319 -165 319 -137 c 2,11,-1
 319 157 l 1,12,-1
 655 157 l 1,13,-1
 655 388 l 1,14,-1
 475 388 l 1,15,-1
 475 457 l 1,16,-1
 655 457 l 1,17,-1
 655 564 l 1,18,-1
 475 564 l 1,19,-1
 475 633 l 1,20,-1
 655 633 l 1,21,-1
 655 765 l 1,22,-1
 730 765 l 1,23,-1
 730 94 l 1,24,-1
 395 94 l 1,25,-1
 395 7 l 1,26,-1
 720 7 l 1,27,-1
 720 -54 l 1,28,-1
 395 -54 l 1,29,-1
 395 -141 l 1,30,-1
 730 -141 l 1,31,-1
 730 -205 l 1,7,-1
EndSplineSet
EndChar

StartChar: uniACC4
Encoding: 44228 44228 337
Width: 900
Flags: W
LayerCount: 2
Fore
SplineSet
760 35 m 1,0,-1
 685 35 l 1,1,-1
 685 765 l 1,2,-1
 760 765 l 1,3,-1
 760 35 l 1,0,-1
593 35 m 1,4,-1
 520 35 l 1,5,-1
 520 385 l 1,6,-1
 381 385 l 1,7,-1
 381 454 l 1,8,-1
 520 454 l 1,9,-1
 520 561 l 1,10,-1
 381 561 l 1,11,-1
 381 631 l 1,12,-1
 520 631 l 1,13,-1
 520 765 l 1,14,-1
 593 765 l 1,15,-1
 593 35 l 1,4,-1
418 705 m 1,16,-1
 183 297 l 1,17,-1
 120 331 l 1,18,-1
 319 674 l 1,19,-1
 120 674 l 1,20,-1
 120 744 l 1,21,-1
 355 744 l 1,22,-1
 418 705 l 1,16,-1
EndSplineSet
EndChar

StartChar: uniACC8
Encoding: 44232 44232 338
Width: 900
Flags: W
LayerCount: 2
Fore
SplineSet
760 145 m 1,0,-1
 684 145 l 1,1,-1
 684 765 l 1,2,-1
 760 765 l 1,3,-1
 760 145 l 1,0,-1
593 145 m 1,4,-1
 520 145 l 1,5,-1
 520 398 l 1,6,-1
 391 398 l 1,7,-1
 391 467 l 1,8,-1
 520 467 l 1,9,-1
 520 574 l 1,10,-1
 391 574 l 1,11,-1
 391 643 l 1,12,-1
 520 643 l 1,13,-1
 520 765 l 1,14,-1
 593 765 l 1,15,-1
 593 145 l 1,4,-1
429 707 m 1,16,-1
 189 342 l 1,17,-1
 127 379 l 1,18,-1
 323 676 l 1,19,-1
 120 676 l 1,20,-1
 120 744 l 1,21,-1
 376 744 l 1,22,-1
 429 707 l 1,16,-1
770 -195 m 1,23,-1
 420 -195 l 2,24,25
 392 -195 392 -195 371.5 -175 c 128,-1,26
 351 -155 351 -155 351 -127 c 2,27,-1
 351 116 l 1,28,-1
 426 116 l 1,29,-1
 426 -126 l 1,30,-1
 770 -126 l 1,31,-1
 770 -195 l 1,23,-1
EndSplineSet
EndChar

StartChar: uniACCC
Encoding: 44236 44236 339
Width: 900
Flags: W
LayerCount: 2
Fore
SplineSet
593 269 m 1,0,-1
 520 269 l 1,1,-1
 520 399 l 1,2,-1
 391 399 l 1,3,-1
 391 468 l 1,4,-1
 520 468 l 1,5,-1
 520 574 l 1,6,-1
 391 574 l 1,7,-1
 391 643 l 1,8,-1
 520 643 l 1,9,-1
 520 765 l 1,10,-1
 593 765 l 1,11,-1
 593 269 l 1,0,-1
429 707 m 1,12,-1
 189 342 l 1,13,-1
 127 379 l 1,14,-1
 323 676 l 1,15,-1
 120 676 l 1,16,-1
 120 744 l 1,17,-1
 376 744 l 1,18,-1
 429 707 l 1,12,-1
770 -215 m 1,19,-1
 420 -215 l 2,20,21
 392 -215 392 -215 371.5 -195 c 128,-1,22
 351 -175 351 -175 351 -147 c 2,23,-1
 351 7 l 1,24,-1
 684 7 l 1,25,-1
 684 104 l 1,26,-1
 351 104 l 1,27,-1
 351 168 l 1,28,-1
 684 168 l 1,29,-1
 684 765 l 1,30,-1
 760 765 l 1,31,-1
 760 -53 l 1,32,-1
 426 -53 l 1,33,-1
 426 -151 l 1,34,-1
 770 -151 l 1,35,-1
 770 -215 l 1,19,-1
EndSplineSet
EndChar

StartChar: uniACD5
Encoding: 44245 44245 340
Width: 900
Flags: W
LayerCount: 2
Fore
SplineSet
593 269 m 1,0,-1
 520 269 l 1,1,-1
 520 399 l 1,2,-1
 391 399 l 1,3,-1
 391 468 l 1,4,-1
 520 468 l 1,5,-1
 520 574 l 1,6,-1
 391 574 l 1,7,-1
 391 643 l 1,8,-1
 520 643 l 1,9,-1
 520 765 l 1,10,-1
 593 765 l 1,11,-1
 593 269 l 1,0,-1
429 707 m 1,12,-1
 189 342 l 1,13,-1
 127 379 l 1,14,-1
 323 676 l 1,15,-1
 120 676 l 1,16,-1
 120 744 l 1,17,-1
 376 744 l 1,18,-1
 429 707 l 1,12,-1
760 -132 m 2,19,20
 760 -160 760 -160 740 -180 c 128,-1,21
 720 -200 720 -200 691 -200 c 2,22,-1
 420 -200 l 2,23,24
 392 -200 392 -200 371.5 -180 c 128,-1,25
 351 -160 351 -160 351 -132 c 2,26,-1
 351 157 l 1,27,-1
 426 157 l 1,28,-1
 426 65 l 1,29,-1
 685 65 l 1,30,-1
 685 765 l 1,31,-1
 760 765 l 1,32,-1
 760 -132 l 2,19,20
685 -131 m 1,33,-1
 685 -4 l 1,34,-1
 426 -4 l 1,35,-1
 426 -131 l 1,36,-1
 685 -131 l 1,33,-1
EndSplineSet
EndChar

StartChar: uniACD7
Encoding: 44247 44247 341
Width: 900
Flags: W
LayerCount: 2
Fore
SplineSet
759 145 m 1,0,-1
 684 145 l 1,1,-1
 684 765 l 1,2,-1
 759 765 l 1,3,-1
 759 145 l 1,0,-1
593 269 m 1,4,-1
 520 269 l 1,5,-1
 520 399 l 1,6,-1
 391 399 l 1,7,-1
 391 468 l 1,8,-1
 520 468 l 1,9,-1
 520 574 l 1,10,-1
 391 574 l 1,11,-1
 391 643 l 1,12,-1
 520 643 l 1,13,-1
 520 765 l 1,14,-1
 593 765 l 1,15,-1
 593 269 l 1,4,-1
429 707 m 1,16,-1
 189 342 l 1,17,-1
 127 379 l 1,18,-1
 323 676 l 1,19,-1
 120 676 l 1,20,-1
 120 744 l 1,21,-1
 376 744 l 1,22,-1
 429 707 l 1,16,-1
785 -154 m 1,23,-1
 726 -199 l 1,24,-1
 534 29 l 1,25,-1
 341 -199 l 1,26,-1
 283 -154 l 1,27,-1
 534 139 l 1,28,-1
 785 -154 l 1,23,-1
EndSplineSet
EndChar

StartChar: uniACE0
Encoding: 44256 44256 342
Width: 900
Flags: W
LayerCount: 2
Fore
SplineSet
653 407 m 1,0,-1
 578 407 l 1,1,-1
 578 675 l 1,2,-1
 237 675 l 1,3,-1
 237 745 l 1,4,-1
 653 745 l 1,5,-1
 653 407 l 1,0,-1
860 140 m 1,6,-1
 40 140 l 1,7,-1
 40 210 l 1,8,-1
 371 210 l 1,9,-1
 371 451 l 1,10,-1
 446 451 l 1,11,-1
 446 210 l 1,12,-1
 860 210 l 1,13,-1
 860 140 l 1,6,-1
EndSplineSet
EndChar

StartChar: uniACE1
Encoding: 44257 44257 343
Width: 900
Flags: W
LayerCount: 2
Fore
SplineSet
653 444 m 1,0,-1
 578 444 l 1,1,-1
 578 676 l 1,2,-1
 237 676 l 1,3,-1
 237 745 l 1,4,-1
 653 745 l 1,5,-1
 653 444 l 1,0,-1
860 264 m 1,6,-1
 40 264 l 1,7,-1
 40 333 l 1,8,-1
 371 333 l 1,9,-1
 371 508 l 1,10,-1
 446 508 l 1,11,-1
 446 333 l 1,12,-1
 860 333 l 1,13,-1
 860 264 l 1,6,-1
653 -195 m 1,14,-1
 578 -195 l 1,15,-1
 578 37 l 1,16,-1
 237 37 l 1,17,-1
 237 106 l 1,18,-1
 653 106 l 1,19,-1
 653 -195 l 1,14,-1
EndSplineSet
EndChar

StartChar: uniACE4
Encoding: 44260 44260 344
Width: 900
Flags: W
LayerCount: 2
Fore
SplineSet
653 444 m 1,0,-1
 578 444 l 1,1,-1
 578 676 l 1,2,-1
 237 676 l 1,3,-1
 237 745 l 1,4,-1
 653 745 l 1,5,-1
 653 444 l 1,0,-1
860 243 m 1,6,-1
 40 243 l 1,7,-1
 40 312 l 1,8,-1
 371 312 l 1,9,-1
 371 508 l 1,10,-1
 446 508 l 1,11,-1
 446 312 l 1,12,-1
 860 312 l 1,13,-1
 860 243 l 1,6,-1
663 -195 m 1,14,-1
 315 -195 l 2,15,16
 287 -195 287 -195 267 -175 c 128,-1,17
 247 -155 247 -155 247 -127 c 2,18,-1
 247 75 l 1,19,-1
 322 75 l 1,20,-1
 322 -126 l 1,21,-1
 663 -126 l 1,22,-1
 663 -195 l 1,14,-1
EndSplineSet
EndChar

StartChar: uniACE7
Encoding: 44263 44263 345
Width: 900
Flags: W
LayerCount: 2
Fore
SplineSet
653 444 m 1,0,-1
 578 444 l 1,1,-1
 578 676 l 1,2,-1
 237 676 l 1,3,-1
 237 745 l 1,4,-1
 653 745 l 1,5,-1
 653 444 l 1,0,-1
860 264 m 1,6,-1
 40 264 l 1,7,-1
 40 333 l 1,8,-1
 371 333 l 1,9,-1
 371 508 l 1,10,-1
 446 508 l 1,11,-1
 446 333 l 1,12,-1
 860 333 l 1,13,-1
 860 264 l 1,6,-1
663 -195 m 1,14,-1
 315 -195 l 2,15,16
 287 -195 287 -195 267 -175 c 128,-1,17
 247 -155 247 -155 247 -127 c 2,18,-1
 247 127 l 1,19,-1
 653 127 l 1,20,-1
 653 58 l 1,21,-1
 322 58 l 1,22,-1
 322 -126 l 1,23,-1
 663 -126 l 1,24,-1
 663 -195 l 1,14,-1
EndSplineSet
EndChar

StartChar: uniACE8
Encoding: 44264 44264 346
Width: 900
Flags: W
LayerCount: 2
Fore
SplineSet
653 475 m 1,0,-1
 578 475 l 1,1,-1
 578 676 l 1,2,-1
 237 676 l 1,3,-1
 237 745 l 1,4,-1
 653 745 l 1,5,-1
 653 475 l 1,0,-1
860 295 m 1,6,-1
 40 295 l 1,7,-1
 40 364 l 1,8,-1
 371 364 l 1,9,-1
 371 518 l 1,10,-1
 446 518 l 1,11,-1
 446 364 l 1,12,-1
 860 364 l 1,13,-1
 860 295 l 1,6,-1
663 -215 m 1,14,-1
 315 -215 l 2,15,16
 287 -215 287 -215 267 -195 c 128,-1,17
 247 -175 247 -175 247 -147 c 2,18,-1
 247 13 l 1,19,-1
 578 13 l 1,20,-1
 578 115 l 1,21,-1
 247 115 l 1,22,-1
 247 178 l 1,23,-1
 653 178 l 1,24,-1
 653 -48 l 1,25,-1
 322 -48 l 1,26,-1
 322 -151 l 1,27,-1
 663 -151 l 1,28,-1
 663 -215 l 1,14,-1
EndSplineSet
EndChar

StartChar: uniACEA
Encoding: 44266 44266 347
Width: 900
Flags: W
LayerCount: 2
Fore
SplineSet
653 475 m 1,0,-1
 578 475 l 1,1,-1
 578 676 l 1,2,-1
 237 676 l 1,3,-1
 237 745 l 1,4,-1
 653 745 l 1,5,-1
 653 475 l 1,0,-1
860 295 m 1,6,-1
 40 295 l 1,7,-1
 40 364 l 1,8,-1
 371 364 l 1,9,-1
 371 518 l 1,10,-1
 446 518 l 1,11,-1
 446 364 l 1,12,-1
 860 364 l 1,13,-1
 860 295 l 1,6,-1
725 -147 m 2,14,15
 725 -175 725 -175 705.5 -195 c 128,-1,16
 686 -215 686 -215 657 -215 c 2,17,-1
 543 -215 l 2,18,19
 515 -215 515 -215 495 -195 c 128,-1,20
 475 -175 475 -175 475 -147 c 2,21,-1
 475 178 l 1,22,-1
 725 178 l 1,23,-1
 725 -147 l 2,14,15
651 -146 m 1,24,-1
 651 109 l 1,25,-1
 549 109 l 1,26,-1
 549 -146 l 1,27,-1
 651 -146 l 1,24,-1
415 -215 m 1,28,-1
 243 -215 l 2,29,30
 215 -215 215 -215 195 -195 c 128,-1,31
 175 -175 175 -175 175 -147 c 2,32,-1
 175 13 l 1,33,-1
 330 13 l 1,34,-1
 330 115 l 1,35,-1
 175 115 l 1,36,-1
 175 178 l 1,37,-1
 404 178 l 1,38,-1
 404 -48 l 1,39,-1
 249 -48 l 1,40,-1
 249 -151 l 1,41,-1
 415 -151 l 1,42,-1
 415 -215 l 1,28,-1
EndSplineSet
EndChar

StartChar: uniACEC
Encoding: 44268 44268 348
Width: 900
Flags: W
LayerCount: 2
Fore
SplineSet
653 475 m 1,0,-1
 578 475 l 1,1,-1
 578 676 l 1,2,-1
 237 676 l 1,3,-1
 237 745 l 1,4,-1
 653 745 l 1,5,-1
 653 475 l 1,0,-1
860 295 m 1,6,-1
 40 295 l 1,7,-1
 40 364 l 1,8,-1
 371 364 l 1,9,-1
 371 518 l 1,10,-1
 446 518 l 1,11,-1
 446 364 l 1,12,-1
 860 364 l 1,13,-1
 860 295 l 1,6,-1
761 -171 m 1,14,-1
 701 -209 l 1,15,-1
 610 -45 l 1,16,-1
 520 -209 l 1,17,-1
 460 -171 l 1,18,-1
 610 101 l 1,19,-1
 761 -171 l 1,14,-1
436 -205 m 1,20,-1
 264 -205 l 2,21,22
 236 -205 236 -205 215.5 -185 c 128,-1,23
 195 -165 195 -165 195 -137 c 2,24,-1
 195 18 l 1,25,-1
 351 18 l 1,26,-1
 351 115 l 1,27,-1
 195 115 l 1,28,-1
 195 178 l 1,29,-1
 425 178 l 1,30,-1
 425 -43 l 1,31,-1
 270 -43 l 1,32,-1
 270 -141 l 1,33,-1
 436 -141 l 1,34,-1
 436 -205 l 1,20,-1
EndSplineSet
EndChar

StartChar: uniACEF
Encoding: 44271 44271 349
Width: 900
Flags: W
LayerCount: 2
Fore
SplineSet
653 475 m 1,0,-1
 578 475 l 1,1,-1
 578 676 l 1,2,-1
 237 676 l 1,3,-1
 237 745 l 1,4,-1
 653 745 l 1,5,-1
 653 475 l 1,0,-1
860 295 m 1,6,-1
 40 295 l 1,7,-1
 40 364 l 1,8,-1
 371 364 l 1,9,-1
 371 518 l 1,10,-1
 446 518 l 1,11,-1
 446 364 l 1,12,-1
 860 364 l 1,13,-1
 860 295 l 1,6,-1
706 73 m 1,14,15
 744 24 744 24 744 -43 c 0,16,17
 744 -114 744 -114 700 -165 c 0,18,19
 657 -215 657 -215 600 -215 c 0,20,21
 541 -215 541 -215 500 -166 c 0,22,23
 456 -113 456 -113 456 -44 c 128,-1,24
 456 25 456 25 495 73 c 1,25,-1
 423 73 l 1,26,-1
 423 142 l 1,27,-1
 563 142 l 1,28,-1
 563 209 l 1,29,-1
 637 209 l 1,30,-1
 637 142 l 1,31,-1
 777 142 l 1,32,-1
 777 73 l 1,33,-1
 706 73 l 1,14,15
628.5 -138.5 m 128,-1,35
 641 -129 641 -129 655 -105 c 128,-1,36
 669 -81 669 -81 669 -53 c 128,-1,37
 669 -25 669 -25 664 -6.5 c 128,-1,38
 659 12 659 12 650 27.5 c 128,-1,39
 641 43 641 43 628.5 52.5 c 128,-1,40
 616 62 616 62 600 62 c 128,-1,41
 584 62 584 62 571.5 52.5 c 128,-1,42
 559 43 559 43 550 28 c 128,-1,43
 541 13 541 13 536 -6 c 128,-1,44
 531 -25 531 -25 531 -43 c 128,-1,45
 531 -61 531 -61 536 -80 c 128,-1,46
 541 -99 541 -99 550 -114 c 128,-1,47
 559 -129 559 -129 571.5 -138.5 c 128,-1,48
 584 -148 584 -148 600 -148 c 128,-1,34
 616 -148 616 -148 628.5 -138.5 c 128,-1,35
415 -205 m 1,49,-1
 243 -205 l 2,50,51
 215 -205 215 -205 195 -185 c 128,-1,52
 175 -165 175 -165 175 -137 c 2,53,-1
 175 23 l 1,54,-1
 330 23 l 1,55,-1
 330 125 l 1,56,-1
 175 125 l 1,57,-1
 175 189 l 1,58,-1
 404 189 l 1,59,-1
 404 -38 l 1,60,-1
 249 -38 l 1,61,-1
 249 -141 l 1,62,-1
 415 -141 l 1,63,-1
 415 -205 l 1,49,-1
EndSplineSet
EndChar

StartChar: uniACF0
Encoding: 44272 44272 350
Width: 900
Flags: W
LayerCount: 2
Fore
SplineSet
653 444 m 1,0,-1
 578 444 l 1,1,-1
 578 676 l 1,2,-1
 237 676 l 1,3,-1
 237 745 l 1,4,-1
 653 745 l 1,5,-1
 653 444 l 1,0,-1
860 264 m 1,6,-1
 40 264 l 1,7,-1
 40 333 l 1,8,-1
 371 333 l 1,9,-1
 371 508 l 1,10,-1
 446 508 l 1,11,-1
 446 333 l 1,12,-1
 860 333 l 1,13,-1
 860 264 l 1,6,-1
653 -127 m 2,14,15
 653 -155 653 -155 633 -175 c 128,-1,16
 613 -195 613 -195 585 -195 c 2,17,-1
 315 -195 l 2,18,19
 287 -195 287 -195 267 -175 c 128,-1,20
 247 -155 247 -155 247 -127 c 2,21,-1
 247 127 l 1,22,-1
 653 127 l 1,23,-1
 653 -127 l 2,14,15
578 -126 m 1,24,-1
 578 58 l 1,25,-1
 322 58 l 1,26,-1
 322 -126 l 1,27,-1
 578 -126 l 1,24,-1
EndSplineSet
EndChar

StartChar: uniACF1
Encoding: 44273 44273 351
Width: 900
Flags: W
LayerCount: 2
Fore
SplineSet
653 444 m 1,0,-1
 578 444 l 1,1,-1
 578 676 l 1,2,-1
 237 676 l 1,3,-1
 237 745 l 1,4,-1
 653 745 l 1,5,-1
 653 444 l 1,0,-1
860 264 m 1,6,-1
 40 264 l 1,7,-1
 40 333 l 1,8,-1
 371 333 l 1,9,-1
 371 508 l 1,10,-1
 446 508 l 1,11,-1
 446 333 l 1,12,-1
 860 333 l 1,13,-1
 860 264 l 1,6,-1
653 -137 m 2,14,15
 653 -165 653 -165 633 -185 c 128,-1,16
 613 -205 613 -205 585 -205 c 2,17,-1
 315 -205 l 2,18,19
 287 -205 287 -205 267 -185 c 128,-1,20
 247 -165 247 -165 247 -137 c 2,21,22
 247 -137 247 -137 247 153 c 1,23,-1
 322 153 l 1,24,-1
 322 60 l 1,25,-1
 578 60 l 1,26,-1
 578 153 l 1,27,-1
 653 153 l 1,28,-1
 653 -137 l 2,14,15
578 -136 m 1,29,-1
 578 -9 l 1,30,-1
 322 -9 l 1,31,-1
 322 -136 l 1,32,-1
 578 -136 l 1,29,-1
EndSplineSet
EndChar

StartChar: uniACF3
Encoding: 44275 44275 352
Width: 900
Flags: W
LayerCount: 2
Fore
SplineSet
653 444 m 1,0,-1
 578 444 l 1,1,-1
 578 676 l 1,2,-1
 237 676 l 1,3,-1
 237 745 l 1,4,-1
 653 745 l 1,5,-1
 653 444 l 1,0,-1
860 264 m 1,6,-1
 40 264 l 1,7,-1
 40 333 l 1,8,-1
 371 333 l 1,9,-1
 371 508 l 1,10,-1
 446 508 l 1,11,-1
 446 333 l 1,12,-1
 860 333 l 1,13,-1
 860 264 l 1,6,-1
699 -154 m 1,14,-1
 642 -199 l 1,15,-1
 450 29 l 1,16,-1
 258 -199 l 1,17,-1
 201 -154 l 1,18,-1
 450 139 l 1,19,-1
 699 -154 l 1,14,-1
EndSplineSet
EndChar

StartChar: uniACF5
Encoding: 44277 44277 353
Width: 900
Flags: W
LayerCount: 2
Fore
SplineSet
653 444 m 1,0,-1
 578 444 l 1,1,-1
 578 676 l 1,2,-1
 237 676 l 1,3,-1
 237 745 l 1,4,-1
 653 745 l 1,5,-1
 653 444 l 1,0,-1
860 264 m 1,6,-1
 40 264 l 1,7,-1
 40 333 l 1,8,-1
 371 333 l 1,9,-1
 371 508 l 1,10,-1
 446 508 l 1,11,-1
 446 333 l 1,12,-1
 860 333 l 1,13,-1
 860 264 l 1,6,-1
642 -42 m 0,14,15
 642 -77 642 -77 626.5 -108.5 c 128,-1,16
 611 -140 611 -140 585 -164 c 0,17,18
 528 -215 528 -215 450 -215 c 256,19,20
 372 -215 372 -215 316 -164 c 0,21,22
 258 -114 258 -114 258 -42 c 0,23,24
 258 29 258 29 315 80 c 0,25,26
 371 131 371 131 450 131 c 0,27,28
 527 131 527 131 586 80 c 0,29,30
 642 29 642 29 642 -42 c 0,14,15
567 -42 m 0,31,32
 567 -18 567 -18 557.5 1.5 c 128,-1,33
 548 21 548 21 532 35 c 0,34,35
 499 64 499 64 450 64 c 0,36,37
 404 64 404 64 370 35 c 0,38,39
 333 4 333 4 333 -42 c 128,-1,40
 333 -88 333 -88 370 -119 c 0,41,42
 404 -148 404 -148 450 -148 c 0,43,44
 499 -148 499 -148 532 -119 c 0,45,46
 567 -88 567 -88 567 -42 c 0,31,32
EndSplineSet
EndChar

StartChar: uniACF6
Encoding: 44278 44278 354
Width: 900
Flags: W
LayerCount: 2
Fore
SplineSet
653 444 m 1,0,-1
 578 444 l 1,1,-1
 578 676 l 1,2,-1
 237 676 l 1,3,-1
 237 745 l 1,4,-1
 653 745 l 1,5,-1
 653 444 l 1,0,-1
860 264 m 1,6,-1
 40 264 l 1,7,-1
 40 333 l 1,8,-1
 371 333 l 1,9,-1
 371 508 l 1,10,-1
 446 508 l 1,11,-1
 446 333 l 1,12,-1
 860 333 l 1,13,-1
 860 264 l 1,6,-1
693 -149 m 1,14,-1
 640 -199 l 1,15,-1
 450 -5 l 1,16,-1
 260 -199 l 1,17,-1
 207 -149 l 1,18,-1
 412 58 l 1,19,-1
 247 58 l 1,20,-1
 247 127 l 1,21,-1
 653 127 l 1,22,-1
 653 58 l 1,23,-1
 488 58 l 1,24,-1
 693 -149 l 1,14,-1
EndSplineSet
EndChar

StartChar: uniACFC
Encoding: 44284 44284 355
Width: 900
Flags: W
LayerCount: 2
Fore
SplineSet
498 420 m 1,0,-1
 423 420 l 1,1,-1
 423 675 l 1,2,-1
 144 675 l 1,3,-1
 144 744 l 1,4,-1
 498 744 l 1,5,-1
 498 420 l 1,0,-1
661 186 m 1,6,-1
 10 186 l 1,7,-1
 10 255 l 1,8,-1
 243 255 l 1,9,-1
 243 484 l 1,10,-1
 317 484 l 1,11,-1
 317 255 l 1,12,-1
 661 255 l 1,13,-1
 661 765 l 1,14,-1
 736 765 l 1,15,-1
 736 562 l 1,16,-1
 870 562 l 1,17,-1
 870 493 l 1,18,-1
 736 493 l 1,19,-1
 736 35 l 1,20,-1
 661 35 l 1,21,-1
 661 186 l 1,6,-1
EndSplineSet
EndChar

StartChar: uniACFD
Encoding: 44285 44285 356
Width: 900
Flags: W
LayerCount: 2
Fore
SplineSet
498 444 m 1,0,-1
 423 444 l 1,1,-1
 423 675 l 1,2,-1
 144 675 l 1,3,-1
 144 744 l 1,4,-1
 498 744 l 1,5,-1
 498 444 l 1,0,-1
736 -195 m 1,6,-1
 661 -195 l 1,7,-1
 661 37 l 1,8,-1
 320 37 l 1,9,-1
 320 106 l 1,10,-1
 661 106 l 1,11,-1
 661 263 l 1,12,-1
 10 263 l 1,13,-1
 10 332 l 1,14,-1
 243 332 l 1,15,-1
 243 507 l 1,16,-1
 317 507 l 1,17,-1
 317 332 l 1,18,-1
 661 332 l 1,19,-1
 661 765 l 1,20,-1
 736 765 l 1,21,-1
 736 595 l 1,22,-1
 870 595 l 1,23,-1
 870 526 l 1,24,-1
 736 526 l 1,25,-1
 736 -195 l 1,6,-1
EndSplineSet
EndChar

StartChar: uniAD00
Encoding: 44288 44288 357
Width: 900
Flags: W
LayerCount: 2
Fore
SplineSet
498 444 m 1,0,-1
 423 444 l 1,1,-1
 423 675 l 1,2,-1
 144 675 l 1,3,-1
 144 744 l 1,4,-1
 498 744 l 1,5,-1
 498 444 l 1,0,-1
661 243 m 1,6,-1
 10 243 l 1,7,-1
 10 312 l 1,8,-1
 243 312 l 1,9,-1
 243 507 l 1,10,-1
 317 507 l 1,11,-1
 317 312 l 1,12,-1
 661 312 l 1,13,-1
 661 765 l 1,14,-1
 736 765 l 1,15,-1
 736 595 l 1,16,-1
 870 595 l 1,17,-1
 870 526 l 1,18,-1
 736 526 l 1,19,-1
 736 114 l 1,20,-1
 661 114 l 1,21,-1
 661 243 l 1,6,-1
746 -195 m 1,22,-1
 399 -195 l 2,23,24
 371 -195 371 -195 350.5 -175 c 128,-1,25
 330 -155 330 -155 330 -127 c 2,26,-1
 330 75 l 1,27,-1
 405 75 l 1,28,-1
 405 -126 l 1,29,-1
 746 -126 l 1,30,-1
 746 -195 l 1,22,-1
EndSplineSet
EndChar

StartChar: uniAD04
Encoding: 44292 44292 358
Width: 900
Flags: W
LayerCount: 2
Fore
SplineSet
498 444 m 1,0,-1
 423 444 l 1,1,-1
 423 675 l 1,2,-1
 144 675 l 1,3,-1
 144 744 l 1,4,-1
 498 744 l 1,5,-1
 498 444 l 1,0,-1
746 -215 m 1,6,-1
 399 -215 l 2,7,8
 371 -215 371 -215 350.5 -195 c 128,-1,9
 330 -175 330 -175 330 -147 c 2,10,-1
 330 -3 l 1,11,-1
 661 -3 l 1,12,-1
 661 84 l 1,13,-1
 330 84 l 1,14,-1
 330 147 l 1,15,-1
 661 147 l 1,16,-1
 661 264 l 1,17,-1
 10 264 l 1,18,-1
 10 333 l 1,19,-1
 243 333 l 1,20,-1
 243 508 l 1,21,-1
 317 508 l 1,22,-1
 317 333 l 1,23,-1
 661 333 l 1,24,-1
 661 765 l 1,25,-1
 736 765 l 1,26,-1
 736 595 l 1,27,-1
 870 595 l 1,28,-1
 870 526 l 1,29,-1
 736 526 l 1,30,-1
 736 -64 l 1,31,-1
 405 -64 l 1,32,-1
 405 -151 l 1,33,-1
 746 -151 l 1,34,-1
 746 -215 l 1,6,-1
EndSplineSet
EndChar

StartChar: uniAD06
Encoding: 44294 44294 359
Width: 900
Flags: W
LayerCount: 2
Fore
SplineSet
498 444 m 1,0,-1
 423 444 l 1,1,-1
 423 675 l 1,2,-1
 144 675 l 1,3,-1
 144 744 l 1,4,-1
 498 744 l 1,5,-1
 498 444 l 1,0,-1
736 -147 m 2,6,7
 736 -175 736 -175 716 -195 c 128,-1,8
 696 -215 696 -215 667 -215 c 2,9,-1
 554 -215 l 2,10,11
 526 -215 526 -215 505.5 -195 c 128,-1,12
 485 -175 485 -175 485 -147 c 2,13,-1
 485 147 l 1,14,-1
 661 147 l 1,15,-1
 661 264 l 1,16,-1
 10 264 l 1,17,-1
 10 333 l 1,18,-1
 243 333 l 1,19,-1
 243 508 l 1,20,-1
 317 508 l 1,21,-1
 317 333 l 1,22,-1
 661 333 l 1,23,-1
 661 765 l 1,24,-1
 736 765 l 1,25,-1
 736 595 l 1,26,-1
 870 595 l 1,27,-1
 870 526 l 1,28,-1
 736 526 l 1,29,-1
 736 -147 l 2,6,7
661 -146 m 1,30,-1
 661 78 l 1,31,-1
 560 78 l 1,32,-1
 560 -146 l 1,33,-1
 661 -146 l 1,30,-1
426 -215 m 1,34,-1
 254 -215 l 2,35,36
 226 -215 226 -215 206 -195 c 128,-1,37
 186 -175 186 -175 186 -147 c 2,38,-1
 186 -3 l 1,39,-1
 341 -3 l 1,40,-1
 341 84 l 1,41,-1
 186 84 l 1,42,-1
 186 147 l 1,43,-1
 415 147 l 1,44,-1
 415 -64 l 1,45,-1
 260 -64 l 1,46,-1
 260 -151 l 1,47,-1
 426 -151 l 1,48,-1
 426 -215 l 1,34,-1
EndSplineSet
EndChar

StartChar: uniAD0C
Encoding: 44300 44300 360
Width: 900
Flags: W
LayerCount: 2
Fore
SplineSet
498 444 m 1,0,-1
 423 444 l 1,1,-1
 423 675 l 1,2,-1
 144 675 l 1,3,-1
 144 744 l 1,4,-1
 498 744 l 1,5,-1
 498 444 l 1,0,-1
736 -127 m 2,6,7
 736 -155 736 -155 716 -175 c 128,-1,8
 696 -195 696 -195 667 -195 c 2,9,-1
 399 -195 l 2,10,11
 371 -195 371 -195 350.5 -175 c 128,-1,12
 330 -155 330 -155 330 -127 c 2,13,-1
 330 126 l 1,14,-1
 661 126 l 1,15,-1
 661 263 l 1,16,-1
 10 263 l 1,17,-1
 10 332 l 1,18,-1
 243 332 l 1,19,-1
 243 507 l 1,20,-1
 317 507 l 1,21,-1
 317 332 l 1,22,-1
 661 332 l 1,23,-1
 661 765 l 1,24,-1
 736 765 l 1,25,-1
 736 595 l 1,26,-1
 870 595 l 1,27,-1
 870 526 l 1,28,-1
 736 526 l 1,29,-1
 736 -127 l 2,6,7
661 -126 m 1,30,-1
 661 57 l 1,31,-1
 405 57 l 1,32,-1
 405 -126 l 1,33,-1
 661 -126 l 1,30,-1
EndSplineSet
EndChar

StartChar: uniAD0D
Encoding: 44301 44301 361
Width: 900
Flags: W
LayerCount: 2
Fore
SplineSet
498 444 m 1,0,-1
 423 444 l 1,1,-1
 423 675 l 1,2,-1
 144 675 l 1,3,-1
 144 744 l 1,4,-1
 498 744 l 1,5,-1
 498 444 l 1,0,-1
405 -20 m 1,6,-1
 405 -136 l 1,7,-1
 661 -136 l 1,8,-1
 661 -20 l 1,9,-1
 405 -20 l 1,6,-1
736 -137 m 2,10,11
 736 -165 736 -165 716 -185 c 128,-1,12
 696 -205 696 -205 667 -205 c 2,13,-1
 399 -205 l 2,14,15
 371 -205 371 -205 350.5 -185 c 128,-1,16
 330 -165 330 -165 330 -137 c 2,17,-1
 330 132 l 1,18,-1
 405 132 l 1,19,-1
 405 49 l 1,20,-1
 661 49 l 1,21,-1
 661 264 l 1,22,-1
 10 264 l 1,23,-1
 10 333 l 1,24,-1
 243 333 l 1,25,-1
 243 508 l 1,26,-1
 317 508 l 1,27,-1
 317 333 l 1,28,-1
 661 333 l 1,29,-1
 661 765 l 1,30,-1
 736 765 l 1,31,-1
 736 595 l 1,32,-1
 870 595 l 1,33,-1
 870 526 l 1,34,-1
 736 526 l 1,35,-1
 736 -137 l 2,10,11
EndSplineSet
EndChar

StartChar: uniAD0F
Encoding: 44303 44303 362
Width: 900
Flags: W
LayerCount: 2
Fore
SplineSet
498 444 m 1,0,-1
 423 444 l 1,1,-1
 423 675 l 1,2,-1
 144 675 l 1,3,-1
 144 744 l 1,4,-1
 498 744 l 1,5,-1
 498 444 l 1,0,-1
661 264 m 1,6,-1
 10 264 l 1,7,-1
 10 333 l 1,8,-1
 243 333 l 1,9,-1
 243 508 l 1,10,-1
 317 508 l 1,11,-1
 317 333 l 1,12,-1
 661 333 l 1,13,-1
 661 765 l 1,14,-1
 736 765 l 1,15,-1
 736 595 l 1,16,-1
 870 595 l 1,17,-1
 870 526 l 1,18,-1
 736 526 l 1,19,-1
 736 114 l 1,20,-1
 661 114 l 1,21,-1
 661 264 l 1,6,-1
761 -154 m 1,22,-1
 704 -199 l 1,23,-1
 512 29 l 1,24,-1
 321 -199 l 1,25,-1
 263 -154 l 1,26,-1
 512 139 l 1,27,-1
 761 -154 l 1,22,-1
EndSplineSet
EndChar

StartChar: uniAD11
Encoding: 44305 44305 363
Width: 900
Flags: W
LayerCount: 2
Fore
SplineSet
498 444 m 1,0,-1
 423 444 l 1,1,-1
 423 675 l 1,2,-1
 144 675 l 1,3,-1
 144 744 l 1,4,-1
 498 744 l 1,5,-1
 498 444 l 1,0,-1
551 131 m 0,6,7
 596 131 596 131 661 96 c 1,8,-1
 661 264 l 1,9,-1
 10 264 l 1,10,-1
 10 333 l 1,11,-1
 243 333 l 1,12,-1
 243 508 l 1,13,-1
 317 508 l 1,14,-1
 317 333 l 1,15,-1
 661 333 l 1,16,-1
 661 765 l 1,17,-1
 736 765 l 1,18,-1
 736 595 l 1,19,-1
 870 595 l 1,20,-1
 870 526 l 1,21,-1
 736 526 l 1,22,-1
 736 -41 l 2,23,24
 736 -112 736 -112 680 -163 c 0,25,26
 622 -215 622 -215 544 -215 c 0,27,28
 468 -215 468 -215 410 -164 c 0,29,30
 353 -113 353 -113 353 -42 c 256,31,32
 353 29 353 29 409 80 c 0,33,34
 466 131 466 131 551 131 c 0,6,7
661 -42 m 0,35,36
 661 -18 661 -18 651.5 1.5 c 128,-1,37
 642 21 642 21 626 35 c 0,38,39
 593 64 593 64 544 64 c 0,40,41
 498 64 498 64 464 35 c 0,42,43
 428 5 428 5 428 -42 c 128,-1,44
 428 -89 428 -89 464 -119 c 0,45,46
 498 -148 498 -148 544 -148 c 0,47,48
 593 -148 593 -148 626 -119 c 0,49,50
 661 -88 661 -88 661 -42 c 0,35,36
EndSplineSet
EndChar

StartChar: uniAD18
Encoding: 44312 44312 364
Width: 900
Flags: W
LayerCount: 2
Fore
SplineSet
417 420 m 1,0,-1
 342 420 l 1,1,-1
 342 675 l 1,2,-1
 114 675 l 1,3,-1
 114 744 l 1,4,-1
 417 744 l 1,5,-1
 417 420 l 1,0,-1
596 186 m 1,6,-1
 10 186 l 1,7,-1
 10 255 l 1,8,-1
 192 255 l 1,9,-1
 192 484 l 1,10,-1
 266 484 l 1,11,-1
 266 255 l 1,12,-1
 524 255 l 1,13,-1
 524 765 l 1,14,-1
 596 765 l 1,15,-1
 596 562 l 1,16,-1
 705 562 l 1,17,-1
 705 765 l 1,18,-1
 780 765 l 1,19,-1
 780 35 l 1,20,-1
 705 35 l 1,21,-1
 705 493 l 1,22,-1
 596 493 l 1,23,-1
 596 186 l 1,6,-1
EndSplineSet
EndChar

StartChar: uniAD1C
Encoding: 44316 44316 365
Width: 900
Flags: W
LayerCount: 2
Fore
SplineSet
417 444 m 1,0,-1
 342 444 l 1,1,-1
 342 675 l 1,2,-1
 114 675 l 1,3,-1
 114 744 l 1,4,-1
 417 744 l 1,5,-1
 417 444 l 1,0,-1
596 243 m 1,6,-1
 10 243 l 1,7,-1
 10 312 l 1,8,-1
 192 312 l 1,9,-1
 192 507 l 1,10,-1
 266 507 l 1,11,-1
 266 312 l 1,12,-1
 523 312 l 1,13,-1
 523 765 l 1,14,-1
 596 765 l 1,15,-1
 596 595 l 1,16,-1
 705 595 l 1,17,-1
 705 765 l 1,18,-1
 780 765 l 1,19,-1
 780 114 l 1,20,-1
 705 114 l 1,21,-1
 705 526 l 1,22,-1
 596 526 l 1,23,-1
 596 243 l 1,6,-1
790 -195 m 1,24,-1
 441 -195 l 2,25,26
 413 -195 413 -195 393 -175 c 128,-1,27
 373 -155 373 -155 373 -127 c 2,28,-1
 373 75 l 1,29,-1
 448 75 l 1,30,-1
 448 -126 l 1,31,-1
 790 -126 l 1,32,-1
 790 -195 l 1,24,-1
EndSplineSet
EndChar

StartChar: uniAD20
Encoding: 44320 44320 366
Width: 900
Flags: W
LayerCount: 2
Fore
SplineSet
417 444 m 1,0,-1
 342 444 l 1,1,-1
 342 675 l 1,2,-1
 114 675 l 1,3,-1
 114 744 l 1,4,-1
 417 744 l 1,5,-1
 417 444 l 1,0,-1
790 -215 m 1,6,-1
 441 -215 l 2,7,8
 413 -215 413 -215 393 -195 c 128,-1,9
 373 -175 373 -175 373 -147 c 2,10,-1
 373 -3 l 1,11,-1
 705 -3 l 1,12,-1
 705 84 l 1,13,-1
 373 84 l 1,14,-1
 373 147 l 1,15,-1
 705 147 l 1,16,-1
 705 526 l 1,17,-1
 596 526 l 1,18,-1
 596 264 l 1,19,-1
 10 264 l 1,20,-1
 10 333 l 1,21,-1
 192 333 l 1,22,-1
 192 508 l 1,23,-1
 266 508 l 1,24,-1
 266 333 l 1,25,-1
 523 333 l 1,26,-1
 523 765 l 1,27,-1
 596 765 l 1,28,-1
 596 595 l 1,29,-1
 705 595 l 1,30,-1
 705 765 l 1,31,-1
 780 765 l 1,32,-1
 780 -64 l 1,33,-1
 448 -64 l 1,34,-1
 448 -151 l 1,35,-1
 790 -151 l 1,36,-1
 790 -215 l 1,6,-1
EndSplineSet
EndChar

StartChar: uniAD29
Encoding: 44329 44329 367
Width: 900
Flags: W
LayerCount: 2
Fore
SplineSet
417 444 m 1,0,-1
 342 444 l 1,1,-1
 342 675 l 1,2,-1
 114 675 l 1,3,-1
 114 744 l 1,4,-1
 417 744 l 1,5,-1
 417 444 l 1,0,-1
780 -137 m 2,6,7
 780 -165 780 -165 760 -185 c 128,-1,8
 740 -205 740 -205 712 -205 c 2,9,-1
 442 -205 l 2,10,11
 414 -205 414 -205 393.5 -185 c 128,-1,12
 373 -165 373 -165 373 -137 c 2,13,-1
 373 132 l 1,14,-1
 448 132 l 1,15,-1
 448 49 l 1,16,-1
 705 49 l 1,17,-1
 705 526 l 1,18,-1
 596 526 l 1,19,-1
 596 264 l 1,20,-1
 10 264 l 1,21,-1
 10 333 l 1,22,-1
 192 333 l 1,23,-1
 192 508 l 1,24,-1
 266 508 l 1,25,-1
 266 333 l 1,26,-1
 524 333 l 1,27,-1
 524 765 l 1,28,-1
 596 765 l 1,29,-1
 596 595 l 1,30,-1
 705 595 l 1,31,-1
 705 765 l 1,32,-1
 780 765 l 1,33,-1
 780 -137 l 2,6,7
705 -136 m 1,34,-1
 705 -20 l 1,35,-1
 448 -20 l 1,36,-1
 448 -136 l 1,37,-1
 705 -136 l 1,34,-1
EndSplineSet
EndChar

StartChar: uniAD2C
Encoding: 44332 44332 368
Width: 900
Flags: W
LayerCount: 2
Fore
SplineSet
416 444 m 1,0,-1
 342 444 l 1,1,-1
 342 675 l 1,2,-1
 114 675 l 1,3,-1
 114 744 l 1,4,-1
 416 744 l 1,5,-1
 416 444 l 1,0,-1
595 264 m 1,6,-1
 10 264 l 1,7,-1
 10 333 l 1,8,-1
 191 333 l 1,9,-1
 191 508 l 1,10,-1
 266 508 l 1,11,-1
 266 333 l 1,12,-1
 523 333 l 1,13,-1
 523 765 l 1,14,-1
 595 765 l 1,15,-1
 595 595 l 1,16,-1
 704 595 l 1,17,-1
 704 765 l 1,18,-1
 779 765 l 1,19,-1
 779 114 l 1,20,-1
 704 114 l 1,21,-1
 704 526 l 1,22,-1
 595 526 l 1,23,-1
 595 264 l 1,6,-1
806 -183 m 1,24,-1
 741 -211 l 1,25,-1
 643 -19 l 1,26,-1
 524 -193 l 1,27,-1
 406 -19 l 1,28,-1
 308 -211 l 1,29,-1
 243 -183 l 1,30,-1
 399 122 l 1,31,-1
 524 -74 l 1,32,-1
 650 122 l 1,33,-1
 806 -183 l 1,24,-1
EndSplineSet
EndChar

StartChar: uniAD2D
Encoding: 44333 44333 369
Width: 900
Flags: W
LayerCount: 2
Fore
SplineSet
417 444 m 1,0,-1
 342 444 l 1,1,-1
 342 675 l 1,2,-1
 114 675 l 1,3,-1
 114 744 l 1,4,-1
 417 744 l 1,5,-1
 417 444 l 1,0,-1
595 131 m 0,6,7
 640 131 640 131 705 96 c 1,8,-1
 705 526 l 1,9,-1
 596 526 l 1,10,-1
 596 264 l 1,11,-1
 10 264 l 1,12,-1
 10 333 l 1,13,-1
 192 333 l 1,14,-1
 192 508 l 1,15,-1
 266 508 l 1,16,-1
 266 333 l 1,17,-1
 524 333 l 1,18,-1
 524 765 l 1,19,-1
 596 765 l 1,20,-1
 596 595 l 1,21,-1
 705 595 l 1,22,-1
 705 765 l 1,23,-1
 780 765 l 1,24,-1
 780 -42 l 2,25,26
 780 -112 780 -112 723 -163.5 c 128,-1,27
 666 -215 666 -215 588 -215 c 256,28,29
 510 -215 510 -215 454 -164 c 0,30,31
 396 -114 396 -114 396 -42 c 0,32,33
 396 29 396 29 453 80 c 0,34,35
 509 131 509 131 595 131 c 0,6,7
705 -42 m 0,36,37
 705 -18 705 -18 695.5 1.5 c 128,-1,38
 686 21 686 21 670 35 c 0,39,40
 637 64 637 64 588 64 c 0,41,42
 542 64 542 64 508 35 c 0,43,44
 471 4 471 4 471 -42 c 128,-1,45
 471 -88 471 -88 508 -119 c 0,46,47
 542 -148 542 -148 588 -148 c 0,48,49
 637 -148 637 -148 670 -119 c 0,50,51
 705 -88 705 -88 705 -42 c 0,36,37
EndSplineSet
EndChar

StartChar: uniAD34
Encoding: 44340 44340 370
Width: 900
Flags: W
LayerCount: 2
Fore
SplineSet
521 420 m 1,0,-1
 446 420 l 1,1,-1
 446 675 l 1,2,-1
 165 675 l 1,3,-1
 165 744 l 1,4,-1
 521 744 l 1,5,-1
 521 420 l 1,0,-1
685 186 m 1,6,-1
 30 186 l 1,7,-1
 30 255 l 1,8,-1
 264 255 l 1,9,-1
 264 484 l 1,10,-1
 339 484 l 1,11,-1
 339 255 l 1,12,-1
 685 255 l 1,13,-1
 685 765 l 1,14,-1
 760 765 l 1,15,-1
 760 35 l 1,16,-1
 685 35 l 1,17,-1
 685 186 l 1,6,-1
EndSplineSet
EndChar

StartChar: uniAD35
Encoding: 44341 44341 371
Width: 900
Flags: W
LayerCount: 2
Fore
SplineSet
521 444 m 1,0,-1
 446 444 l 1,1,-1
 446 675 l 1,2,-1
 165 675 l 1,3,-1
 165 744 l 1,4,-1
 521 744 l 1,5,-1
 521 444 l 1,0,-1
760 -195 m 1,6,-1
 685 -195 l 1,7,-1
 685 37 l 1,8,-1
 342 37 l 1,9,-1
 342 106 l 1,10,-1
 685 106 l 1,11,-1
 685 263 l 1,12,-1
 30 263 l 1,13,-1
 30 332 l 1,14,-1
 264 332 l 1,15,-1
 264 507 l 1,16,-1
 339 507 l 1,17,-1
 339 332 l 1,18,-1
 685 332 l 1,19,-1
 685 765 l 1,20,-1
 760 765 l 1,21,-1
 760 -195 l 1,6,-1
EndSplineSet
EndChar

StartChar: uniAD38
Encoding: 44344 44344 372
Width: 900
Flags: W
LayerCount: 2
Fore
SplineSet
521 444 m 1,0,-1
 446 444 l 1,1,-1
 446 675 l 1,2,-1
 165 675 l 1,3,-1
 165 744 l 1,4,-1
 521 744 l 1,5,-1
 521 444 l 1,0,-1
685 243 m 1,6,-1
 30 243 l 1,7,-1
 30 312 l 1,8,-1
 264 312 l 1,9,-1
 264 507 l 1,10,-1
 339 507 l 1,11,-1
 339 312 l 1,12,-1
 685 312 l 1,13,-1
 685 765 l 1,14,-1
 760 765 l 1,15,-1
 760 114 l 1,16,-1
 685 114 l 1,17,-1
 685 243 l 1,6,-1
770 -195 m 1,18,-1
 421 -195 l 2,19,20
 393 -195 393 -195 372.5 -175 c 128,-1,21
 352 -155 352 -155 352 -127 c 2,22,-1
 352 75 l 1,23,-1
 427 75 l 1,24,-1
 427 -126 l 1,25,-1
 770 -126 l 1,26,-1
 770 -195 l 1,18,-1
EndSplineSet
EndChar

StartChar: uniAD3C
Encoding: 44348 44348 373
Width: 900
Flags: W
LayerCount: 2
Fore
SplineSet
521 444 m 1,0,-1
 446 444 l 1,1,-1
 446 675 l 1,2,-1
 165 675 l 1,3,-1
 165 744 l 1,4,-1
 521 744 l 1,5,-1
 521 444 l 1,0,-1
770 -215 m 1,6,-1
 421 -215 l 2,7,8
 393 -215 393 -215 372.5 -195 c 128,-1,9
 352 -175 352 -175 352 -147 c 2,10,-1
 352 -3 l 1,11,-1
 685 -3 l 1,12,-1
 685 84 l 1,13,-1
 352 84 l 1,14,-1
 352 147 l 1,15,-1
 685 147 l 1,16,-1
 685 264 l 1,17,-1
 30 264 l 1,18,-1
 30 333 l 1,19,-1
 264 333 l 1,20,-1
 264 508 l 1,21,-1
 339 508 l 1,22,-1
 339 333 l 1,23,-1
 685 333 l 1,24,-1
 685 765 l 1,25,-1
 760 765 l 1,26,-1
 760 -64 l 1,27,-1
 427 -64 l 1,28,-1
 427 -151 l 1,29,-1
 770 -151 l 1,30,-1
 770 -215 l 1,6,-1
EndSplineSet
EndChar

StartChar: uniAD44
Encoding: 44356 44356 374
Width: 900
Flags: W
LayerCount: 2
Fore
SplineSet
521 444 m 1,0,-1
 446 444 l 1,1,-1
 446 675 l 1,2,-1
 165 675 l 1,3,-1
 165 744 l 1,4,-1
 521 744 l 1,5,-1
 521 444 l 1,0,-1
760 -127 m 2,6,7
 760 -155 760 -155 740 -175 c 128,-1,8
 720 -195 720 -195 691 -195 c 2,9,-1
 421 -195 l 2,10,11
 393 -195 393 -195 372.5 -175 c 128,-1,12
 352 -155 352 -155 352 -127 c 2,13,-1
 352 126 l 1,14,-1
 685 126 l 1,15,-1
 685 263 l 1,16,-1
 30 263 l 1,17,-1
 30 332 l 1,18,-1
 264 332 l 1,19,-1
 264 507 l 1,20,-1
 339 507 l 1,21,-1
 339 332 l 1,22,-1
 685 332 l 1,23,-1
 685 765 l 1,24,-1
 760 765 l 1,25,-1
 760 -127 l 2,6,7
685 -126 m 1,26,-1
 685 57 l 1,27,-1
 427 57 l 1,28,-1
 427 -126 l 1,29,-1
 685 -126 l 1,26,-1
EndSplineSet
EndChar

StartChar: uniAD45
Encoding: 44357 44357 375
Width: 900
Flags: W
LayerCount: 2
Fore
SplineSet
521 444 m 1,0,-1
 446 444 l 1,1,-1
 446 675 l 1,2,-1
 165 675 l 1,3,-1
 165 744 l 1,4,-1
 521 744 l 1,5,-1
 521 444 l 1,0,-1
760 -137 m 2,6,7
 760 -165 760 -165 740 -185 c 128,-1,8
 720 -205 720 -205 691 -205 c 2,9,-1
 421 -205 l 2,10,11
 393 -205 393 -205 372.5 -185 c 128,-1,12
 352 -165 352 -165 352 -137 c 2,13,-1
 352 132 l 1,14,-1
 427 132 l 1,15,-1
 427 49 l 1,16,-1
 685 49 l 1,17,-1
 685 264 l 1,18,-1
 30 264 l 1,19,-1
 30 333 l 1,20,-1
 264 333 l 1,21,-1
 264 508 l 1,22,-1
 339 508 l 1,23,-1
 339 333 l 1,24,-1
 685 333 l 1,25,-1
 685 765 l 1,26,-1
 760 765 l 1,27,-1
 760 -137 l 2,6,7
685 -136 m 1,28,-1
 685 -20 l 1,29,-1
 427 -20 l 1,30,-1
 427 -136 l 1,31,-1
 685 -136 l 1,28,-1
EndSplineSet
EndChar

StartChar: uniAD47
Encoding: 44359 44359 376
Width: 900
Flags: W
LayerCount: 2
Fore
SplineSet
520 444 m 1,0,-1
 445 444 l 1,1,-1
 445 675 l 1,2,-1
 165 675 l 1,3,-1
 165 744 l 1,4,-1
 520 744 l 1,5,-1
 520 444 l 1,0,-1
684 264 m 1,6,-1
 30 264 l 1,7,-1
 30 333 l 1,8,-1
 264 333 l 1,9,-1
 264 508 l 1,10,-1
 338 508 l 1,11,-1
 338 333 l 1,12,-1
 684 333 l 1,13,-1
 684 765 l 1,14,-1
 759 765 l 1,15,-1
 759 114 l 1,16,-1
 684 114 l 1,17,-1
 684 264 l 1,6,-1
785 -154 m 1,18,-1
 727 -199 l 1,19,-1
 535 29 l 1,20,-1
 342 -199 l 1,21,-1
 284 -154 l 1,22,-1
 535 139 l 1,23,-1
 785 -154 l 1,18,-1
EndSplineSet
EndChar

StartChar: uniAD49
Encoding: 44361 44361 377
Width: 900
Flags: W
LayerCount: 2
Fore
SplineSet
521 444 m 1,0,-1
 446 444 l 1,1,-1
 446 675 l 1,2,-1
 165 675 l 1,3,-1
 165 744 l 1,4,-1
 521 744 l 1,5,-1
 521 444 l 1,0,-1
575 131 m 0,6,7
 620 131 620 131 685 96 c 1,8,-1
 685 264 l 1,9,-1
 30 264 l 1,10,-1
 30 333 l 1,11,-1
 264 333 l 1,12,-1
 264 508 l 1,13,-1
 339 508 l 1,14,-1
 339 333 l 1,15,-1
 685 333 l 1,16,-1
 685 765 l 1,17,-1
 760 765 l 1,18,-1
 760 -42 l 2,19,20
 760 -112 760 -112 703 -163.5 c 128,-1,21
 646 -215 646 -215 568 -215 c 0,22,23
 489 -215 489 -215 432 -164 c 0,24,25
 375 -114 375 -114 375 -42 c 0,26,27
 375 29 375 29 432 80 c 0,28,29
 488 131 488 131 575 131 c 0,6,7
685 -42 m 0,30,31
 685 -18 685 -18 675.5 1.5 c 128,-1,32
 666 21 666 21 650 35 c 0,33,34
 617 64 617 64 568 64 c 0,35,36
 521 64 521 64 486 35 c 0,37,38
 450 4 450 4 450 -42 c 0,39,40
 450 -90 450 -90 486 -120 c 0,41,42
 521 -148 521 -148 568 -148 c 0,43,44
 617 -148 617 -148 650 -119 c 0,45,46
 685 -88 685 -88 685 -42 c 0,30,31
EndSplineSet
EndChar

StartChar: uniAD50
Encoding: 44368 44368 378
Width: 900
Flags: W
LayerCount: 2
Fore
SplineSet
653 407 m 1,0,-1
 578 407 l 1,1,-1
 578 675 l 1,2,-1
 237 675 l 1,3,-1
 237 745 l 1,4,-1
 653 745 l 1,5,-1
 653 407 l 1,0,-1
860 140 m 1,6,-1
 40 140 l 1,7,-1
 40 210 l 1,8,-1
 288 210 l 1,9,-1
 288 451 l 1,10,-1
 363 451 l 1,11,-1
 363 210 l 1,12,-1
 485 210 l 1,13,-1
 485 451 l 1,14,-1
 560 451 l 1,15,-1
 560 210 l 1,16,-1
 860 210 l 1,17,-1
 860 140 l 1,6,-1
EndSplineSet
EndChar

StartChar: uniAD54
Encoding: 44372 44372 379
Width: 900
Flags: W
LayerCount: 2
Fore
SplineSet
653 444 m 1,0,-1
 578 444 l 1,1,-1
 578 676 l 1,2,-1
 237 676 l 1,3,-1
 237 745 l 1,4,-1
 653 745 l 1,5,-1
 653 444 l 1,0,-1
288 312 m 1,6,-1
 288 498 l 1,7,-1
 363 498 l 1,8,-1
 363 312 l 1,9,-1
 485 312 l 1,10,-1
 485 498 l 1,11,-1
 560 498 l 1,12,-1
 560 312 l 1,13,-1
 860 312 l 1,14,-1
 860 243 l 1,15,-1
 40 243 l 1,16,-1
 40 312 l 1,17,-1
 288 312 l 1,6,-1
663 -195 m 1,18,-1
 315 -195 l 2,19,20
 287 -195 287 -195 267 -175 c 128,-1,21
 247 -155 247 -155 247 -127 c 2,22,-1
 247 75 l 1,23,-1
 322 75 l 1,24,-1
 322 -126 l 1,25,-1
 663 -126 l 1,26,-1
 663 -195 l 1,18,-1
EndSplineSet
EndChar

StartChar: uniAD58
Encoding: 44376 44376 380
Width: 900
Flags: W
LayerCount: 2
Fore
SplineSet
653 475 m 1,0,-1
 578 475 l 1,1,-1
 578 676 l 1,2,-1
 237 676 l 1,3,-1
 237 745 l 1,4,-1
 653 745 l 1,5,-1
 653 475 l 1,0,-1
288 364 m 1,6,-1
 288 518 l 1,7,-1
 363 518 l 1,8,-1
 363 364 l 1,9,-1
 485 364 l 1,10,-1
 485 518 l 1,11,-1
 560 518 l 1,12,-1
 560 364 l 1,13,-1
 860 364 l 1,14,-1
 860 295 l 1,15,-1
 40 295 l 1,16,-1
 40 364 l 1,17,-1
 288 364 l 1,6,-1
663 -215 m 1,18,-1
 315 -215 l 2,19,20
 287 -215 287 -215 267 -195 c 128,-1,21
 247 -175 247 -175 247 -147 c 2,22,-1
 247 13 l 1,23,-1
 578 13 l 1,24,-1
 578 115 l 1,25,-1
 247 115 l 1,26,-1
 247 178 l 1,27,-1
 653 178 l 1,28,-1
 653 -48 l 1,29,-1
 322 -48 l 1,30,-1
 322 -151 l 1,31,-1
 663 -151 l 1,32,-1
 663 -215 l 1,18,-1
EndSplineSet
EndChar

StartChar: uniAD61
Encoding: 44385 44385 381
Width: 900
Flags: W
LayerCount: 2
Fore
SplineSet
653 444 m 1,0,-1
 578 444 l 1,1,-1
 578 676 l 1,2,-1
 237 676 l 1,3,-1
 237 745 l 1,4,-1
 653 745 l 1,5,-1
 653 444 l 1,0,-1
288 333 m 1,6,-1
 288 498 l 1,7,-1
 363 498 l 1,8,-1
 363 333 l 1,9,-1
 485 333 l 1,10,-1
 485 498 l 1,11,-1
 560 498 l 1,12,-1
 560 333 l 1,13,-1
 860 333 l 1,14,-1
 860 264 l 1,15,-1
 40 264 l 1,16,-1
 40 333 l 1,17,-1
 288 333 l 1,6,-1
653 -137 m 2,18,19
 653 -165 653 -165 633 -185 c 128,-1,20
 613 -205 613 -205 585 -205 c 2,21,-1
 315 -205 l 2,22,23
 287 -205 287 -205 267 -185 c 128,-1,24
 247 -165 247 -165 247 -137 c 2,25,26
 247 -137 247 -137 247 153 c 1,27,-1
 322 153 l 1,28,-1
 322 60 l 1,29,-1
 578 60 l 1,30,-1
 578 153 l 1,31,-1
 653 153 l 1,32,-1
 653 -137 l 2,18,19
578 -136 m 1,33,-1
 578 -9 l 1,34,-1
 322 -9 l 1,35,-1
 322 -136 l 1,36,-1
 578 -136 l 1,33,-1
EndSplineSet
EndChar

StartChar: uniAD63
Encoding: 44387 44387 382
Width: 900
Flags: W
LayerCount: 2
Fore
SplineSet
653 444 m 1,0,-1
 578 444 l 1,1,-1
 578 676 l 1,2,-1
 237 676 l 1,3,-1
 237 745 l 1,4,-1
 653 745 l 1,5,-1
 653 444 l 1,0,-1
288 333 m 1,6,-1
 288 498 l 1,7,-1
 363 498 l 1,8,-1
 363 333 l 1,9,-1
 485 333 l 1,10,-1
 485 498 l 1,11,-1
 560 498 l 1,12,-1
 560 333 l 1,13,-1
 860 333 l 1,14,-1
 860 264 l 1,15,-1
 40 264 l 1,16,-1
 40 333 l 1,17,-1
 288 333 l 1,6,-1
699 -154 m 1,18,-1
 642 -199 l 1,19,-1
 450 29 l 1,20,-1
 258 -199 l 1,21,-1
 201 -154 l 1,22,-1
 450 139 l 1,23,-1
 699 -154 l 1,18,-1
EndSplineSet
EndChar

StartChar: uniAD6C
Encoding: 44396 44396 383
Width: 900
Flags: W
LayerCount: 2
Fore
SplineSet
487 -15 m 1,0,-1
 413 -15 l 1,1,-1
 413 281 l 1,2,-1
 40 281 l 1,3,-1
 40 350 l 1,4,-1
 578 350 l 1,5,-1
 578 675 l 1,6,-1
 237 675 l 1,7,-1
 237 745 l 1,8,-1
 653 745 l 1,9,-1
 653 350 l 1,10,-1
 860 350 l 1,11,-1
 860 281 l 1,12,-1
 487 281 l 1,13,-1
 487 -15 l 1,0,-1
EndSplineSet
EndChar

StartChar: uniAD6D
Encoding: 44397 44397 384
Width: 900
Flags: W
LayerCount: 2
Fore
SplineSet
653 -195 m 1,0,-1
 578 -195 l 1,1,-1
 578 37 l 1,2,-1
 237 37 l 1,3,-1
 237 106 l 1,4,-1
 413 106 l 1,5,-1
 413 336 l 1,6,-1
 40 336 l 1,7,-1
 40 405 l 1,8,-1
 578 405 l 1,9,-1
 578 676 l 1,10,-1
 237 676 l 1,11,-1
 237 745 l 1,12,-1
 653 745 l 1,13,-1
 653 405 l 1,14,-1
 860 405 l 1,15,-1
 860 336 l 1,16,-1
 487 336 l 1,17,-1
 487 106 l 1,18,-1
 653 106 l 1,19,-1
 653 -195 l 1,0,-1
EndSplineSet
EndChar

StartChar: uniAD70
Encoding: 44400 44400 385
Width: 900
Flags: W
LayerCount: 2
Fore
SplineSet
518 73 m 1,0,-1
 444 73 l 1,1,-1
 444 305 l 1,2,-1
 40 305 l 1,3,-1
 40 374 l 1,4,-1
 578 374 l 1,5,-1
 578 676 l 1,6,-1
 237 676 l 1,7,-1
 237 745 l 1,8,-1
 653 745 l 1,9,-1
 653 374 l 1,10,-1
 860 374 l 1,11,-1
 860 305 l 1,12,-1
 518 305 l 1,13,-1
 518 73 l 1,0,-1
663 -195 m 1,14,-1
 315 -195 l 2,15,16
 287 -195 287 -195 267 -175 c 128,-1,17
 247 -155 247 -155 247 -127 c 2,18,-1
 247 75 l 1,19,-1
 322 75 l 1,20,-1
 322 -126 l 1,21,-1
 663 -126 l 1,22,-1
 663 -195 l 1,14,-1
EndSplineSet
EndChar

StartChar: uniAD73
Encoding: 44403 44403 386
Width: 900
Flags: W
LayerCount: 2
Fore
SplineSet
663 -195 m 1,0,-1
 315 -195 l 2,1,2
 287 -195 287 -195 267 -175 c 128,-1,3
 247 -155 247 -155 247 -127 c 2,4,-1
 247 127 l 1,5,-1
 413 127 l 1,6,-1
 413 336 l 1,7,-1
 40 336 l 1,8,-1
 40 405 l 1,9,-1
 578 405 l 1,10,-1
 578 676 l 1,11,-1
 237 676 l 1,12,-1
 237 745 l 1,13,-1
 653 745 l 1,14,-1
 653 405 l 1,15,-1
 860 405 l 1,16,-1
 860 336 l 1,17,-1
 487 336 l 1,18,-1
 487 127 l 1,19,-1
 653 127 l 1,20,-1
 653 58 l 1,21,-1
 322 58 l 1,22,-1
 322 -126 l 1,23,-1
 663 -126 l 1,24,-1
 663 -195 l 1,0,-1
EndSplineSet
EndChar

StartChar: uniAD74
Encoding: 44404 44404 387
Width: 900
Flags: W
LayerCount: 2
Fore
SplineSet
663 -215 m 1,0,-1
 315 -215 l 2,1,2
 287 -215 287 -215 267 -195 c 128,-1,3
 247 -175 247 -175 247 -147 c 2,4,-1
 247 13 l 1,5,-1
 578 13 l 1,6,-1
 578 115 l 1,7,-1
 247 115 l 1,8,-1
 247 178 l 1,9,-1
 413 178 l 1,10,-1
 413 346 l 1,11,-1
 40 346 l 1,12,-1
 40 415 l 1,13,-1
 578 415 l 1,14,-1
 578 676 l 1,15,-1
 237 676 l 1,16,-1
 237 745 l 1,17,-1
 653 745 l 1,18,-1
 653 415 l 1,19,-1
 860 415 l 1,20,-1
 860 346 l 1,21,-1
 487 346 l 1,22,-1
 487 178 l 1,23,-1
 653 178 l 1,24,-1
 653 -48 l 1,25,-1
 322 -48 l 1,26,-1
 322 -151 l 1,27,-1
 663 -151 l 1,28,-1
 663 -215 l 1,0,-1
EndSplineSet
EndChar

StartChar: uniAD75
Encoding: 44405 44405 388
Width: 900
Flags: W
LayerCount: 2
Fore
SplineSet
461 -215 m 1,0,-1
 269 -215 l 2,1,2
 241 -215 241 -215 220.5 -195 c 128,-1,3
 200 -175 200 -175 200 -147 c 2,4,-1
 200 13 l 1,5,-1
 376 13 l 1,6,-1
 376 115 l 1,7,-1
 200 115 l 1,8,-1
 200 178 l 1,9,-1
 413 178 l 1,10,-1
 413 346 l 1,11,-1
 40 346 l 1,12,-1
 40 415 l 1,13,-1
 578 415 l 1,14,-1
 578 676 l 1,15,-1
 237 676 l 1,16,-1
 237 745 l 1,17,-1
 653 745 l 1,18,-1
 653 415 l 1,19,-1
 860 415 l 1,20,-1
 860 346 l 1,21,-1
 487 346 l 1,22,-1
 487 178 l 1,23,-1
 700 178 l 1,24,-1
 700 -215 l 1,25,-1
 625 -215 l 1,26,-1
 625 109 l 1,27,-1
 451 109 l 1,28,-1
 451 -48 l 1,29,-1
 275 -48 l 1,30,-1
 275 -151 l 1,31,-1
 461 -151 l 1,32,-1
 461 -215 l 1,0,-1
EndSplineSet
EndChar

StartChar: uniAD76
Encoding: 44406 44406 389
Width: 900
Flags: W
LayerCount: 2
Fore
SplineSet
725 -147 m 2,0,1
 725 -175 725 -175 705.5 -195 c 128,-1,2
 686 -215 686 -215 657 -215 c 2,3,-1
 543 -215 l 2,4,5
 515 -215 515 -215 495 -195 c 128,-1,6
 475 -175 475 -175 475 -147 c 2,7,-1
 475 146 l 1,8,-1
 413 146 l 1,9,-1
 413 346 l 1,10,-1
 40 346 l 1,11,-1
 40 415 l 1,12,-1
 578 415 l 1,13,-1
 578 676 l 1,14,-1
 237 676 l 1,15,-1
 237 745 l 1,16,-1
 653 745 l 1,17,-1
 653 415 l 1,18,-1
 860 415 l 1,19,-1
 860 346 l 1,20,-1
 487 346 l 1,21,-1
 487 178 l 1,22,-1
 725 178 l 1,23,-1
 725 -147 l 2,0,1
651 -146 m 1,24,-1
 651 109 l 1,25,-1
 549 109 l 1,26,-1
 549 -146 l 1,27,-1
 651 -146 l 1,24,-1
415 -215 m 1,28,-1
 243 -215 l 2,29,30
 215 -215 215 -215 195 -195 c 128,-1,31
 175 -175 175 -175 175 -147 c 2,32,-1
 175 13 l 1,33,-1
 330 13 l 1,34,-1
 330 115 l 1,35,-1
 175 115 l 1,36,-1
 175 178 l 1,37,-1
 404 178 l 1,38,-1
 404 -48 l 1,39,-1
 249 -48 l 1,40,-1
 249 -151 l 1,41,-1
 415 -151 l 1,42,-1
 415 -215 l 1,28,-1
EndSplineSet
EndChar

StartChar: uniAD7B
Encoding: 44411 44411 390
Width: 900
Flags: W
LayerCount: 2
Fore
SplineSet
487 146 m 1,0,-1
 413 146 l 1,1,-1
 413 346 l 1,2,-1
 40 346 l 1,3,-1
 40 415 l 1,4,-1
 578 415 l 1,5,-1
 578 676 l 1,6,-1
 237 676 l 1,7,-1
 237 745 l 1,8,-1
 653 745 l 1,9,-1
 653 415 l 1,10,-1
 860 415 l 1,11,-1
 860 346 l 1,12,-1
 487 346 l 1,13,-1
 487 146 l 1,0,-1
706 73 m 1,14,15
 744 24 744 24 744 -43 c 0,16,17
 744 -114 744 -114 700 -165 c 0,18,19
 657 -215 657 -215 600 -215 c 0,20,21
 541 -215 541 -215 500 -166 c 0,22,23
 456 -113 456 -113 456 -44 c 128,-1,24
 456 25 456 25 495 73 c 1,25,-1
 423 73 l 1,26,-1
 423 142 l 1,27,-1
 563 142 l 1,28,-1
 563 209 l 1,29,-1
 637 209 l 1,30,-1
 637 142 l 1,31,-1
 777 142 l 1,32,-1
 777 73 l 1,33,-1
 706 73 l 1,14,15
628.5 -138.5 m 128,-1,35
 641 -129 641 -129 655 -105 c 128,-1,36
 669 -81 669 -81 669 -53 c 128,-1,37
 669 -25 669 -25 664 -6.5 c 128,-1,38
 659 12 659 12 650 27.5 c 128,-1,39
 641 43 641 43 628.5 52.5 c 128,-1,40
 616 62 616 62 600 62 c 128,-1,41
 584 62 584 62 571.5 52.5 c 128,-1,42
 559 43 559 43 550 28 c 128,-1,43
 541 13 541 13 536 -6 c 128,-1,44
 531 -25 531 -25 531 -43 c 128,-1,45
 531 -61 531 -61 536 -80 c 128,-1,46
 541 -99 541 -99 550 -114 c 128,-1,47
 559 -129 559 -129 571.5 -138.5 c 128,-1,48
 584 -148 584 -148 600 -148 c 128,-1,34
 616 -148 616 -148 628.5 -138.5 c 128,-1,35
415 -205 m 1,49,-1
 243 -205 l 2,50,51
 215 -205 215 -205 195 -185 c 128,-1,52
 175 -165 175 -165 175 -137 c 2,53,-1
 175 23 l 1,54,-1
 330 23 l 1,55,-1
 330 125 l 1,56,-1
 175 125 l 1,57,-1
 175 189 l 1,58,-1
 404 189 l 1,59,-1
 404 -38 l 1,60,-1
 249 -38 l 1,61,-1
 249 -141 l 1,62,-1
 415 -141 l 1,63,-1
 415 -205 l 1,49,-1
EndSplineSet
EndChar

StartChar: uniAD7C
Encoding: 44412 44412 391
Width: 900
Flags: W
LayerCount: 2
Fore
SplineSet
653 -127 m 2,0,1
 653 -155 653 -155 633 -175 c 128,-1,2
 613 -195 613 -195 585 -195 c 2,3,-1
 315 -195 l 2,4,5
 287 -195 287 -195 267 -175 c 128,-1,6
 247 -155 247 -155 247 -127 c 2,7,-1
 247 127 l 1,8,-1
 413 127 l 1,9,-1
 413 336 l 1,10,-1
 40 336 l 1,11,-1
 40 405 l 1,12,-1
 578 405 l 1,13,-1
 578 676 l 1,14,-1
 237 676 l 1,15,-1
 237 745 l 1,16,-1
 653 745 l 1,17,-1
 653 405 l 1,18,-1
 860 405 l 1,19,-1
 860 336 l 1,20,-1
 487 336 l 1,21,-1
 487 127 l 1,22,-1
 653 127 l 1,23,-1
 653 -127 l 2,0,1
578 -126 m 1,24,-1
 578 58 l 1,25,-1
 322 58 l 1,26,-1
 322 -126 l 1,27,-1
 578 -126 l 1,24,-1
EndSplineSet
EndChar

StartChar: uniAD7D
Encoding: 44413 44413 392
Width: 900
Flags: W
LayerCount: 2
Fore
SplineSet
487 156 m 1,0,-1
 413 156 l 1,1,-1
 413 336 l 1,2,-1
 40 336 l 1,3,-1
 40 405 l 1,4,-1
 578 405 l 1,5,-1
 578 676 l 1,6,-1
 237 676 l 1,7,-1
 237 745 l 1,8,-1
 653 745 l 1,9,-1
 653 405 l 1,10,-1
 860 405 l 1,11,-1
 860 336 l 1,12,-1
 487 336 l 1,13,-1
 487 156 l 1,0,-1
653 -137 m 2,14,15
 653 -165 653 -165 633 -185 c 128,-1,16
 613 -205 613 -205 585 -205 c 2,17,-1
 315 -205 l 2,18,19
 287 -205 287 -205 267 -185 c 128,-1,20
 247 -165 247 -165 247 -137 c 2,21,22
 247 -137 247 -137 247 153 c 1,23,-1
 322 153 l 1,24,-1
 322 60 l 1,25,-1
 578 60 l 1,26,-1
 578 156 l 1,27,-1
 653 156 l 1,28,-1
 653 -137 l 2,14,15
578 -136 m 1,29,-1
 578 -9 l 1,30,-1
 322 -9 l 1,31,-1
 322 -136 l 1,32,-1
 578 -136 l 1,29,-1
EndSplineSet
EndChar

StartChar: uniAD7F
Encoding: 44415 44415 393
Width: 900
Flags: W
LayerCount: 2
Fore
SplineSet
699 -154 m 1,0,-1
 642 -199 l 1,1,-1
 450 29 l 1,2,-1
 258 -199 l 1,3,-1
 201 -154 l 1,4,-1
 413 96 l 1,5,-1
 413 336 l 1,6,-1
 40 336 l 1,7,-1
 40 405 l 1,8,-1
 578 405 l 1,9,-1
 578 676 l 1,10,-1
 237 676 l 1,11,-1
 237 745 l 1,12,-1
 653 745 l 1,13,-1
 653 405 l 1,14,-1
 860 405 l 1,15,-1
 860 336 l 1,16,-1
 487 336 l 1,17,-1
 487 96 l 1,18,-1
 699 -154 l 1,0,-1
EndSplineSet
EndChar

StartChar: uniAD81
Encoding: 44417 44417 394
Width: 900
Flags: W
LayerCount: 2
Fore
SplineSet
642 -44 m 0,0,1
 642 -77 642 -77 626.5 -108.5 c 128,-1,2
 611 -140 611 -140 585 -164 c 0,3,4
 528 -215 528 -215 450 -215 c 256,5,6
 372 -215 372 -215 316 -164 c 0,7,8
 258 -114 258 -114 258 -42 c 0,9,10
 258 20 258 20 303 68 c 0,11,12
 347 116 347 116 413 128 c 1,13,-1
 413 336 l 1,14,-1
 40 336 l 1,15,-1
 40 405 l 1,16,-1
 578 405 l 1,17,-1
 578 676 l 1,18,-1
 237 676 l 1,19,-1
 237 745 l 1,20,-1
 653 745 l 1,21,-1
 653 405 l 1,22,-1
 860 405 l 1,23,-1
 860 336 l 1,24,-1
 487 336 l 1,25,-1
 487 128 l 1,26,27
 553 116 553 116 598 68 c 0,28,29
 642 19 642 19 642 -44 c 0,0,1
567 -42 m 0,30,31
 567 -18 567 -18 557.5 1.5 c 128,-1,32
 548 21 548 21 532 35 c 0,33,34
 499 64 499 64 450 64 c 0,35,36
 404 64 404 64 370 35 c 0,37,38
 333 4 333 4 333 -42 c 128,-1,39
 333 -88 333 -88 370 -119 c 0,40,41
 404 -148 404 -148 450 -148 c 0,42,43
 499 -148 499 -148 532 -119 c 0,44,45
 567 -88 567 -88 567 -42 c 0,30,31
EndSplineSet
EndChar

StartChar: uniAD82
Encoding: 44418 44418 395
Width: 900
Flags: W
LayerCount: 2
Fore
SplineSet
487 154 m 1,0,-1
 413 154 l 1,1,-1
 413 336 l 1,2,-1
 40 336 l 1,3,-1
 40 405 l 1,4,-1
 578 405 l 1,5,-1
 578 676 l 1,6,-1
 237 676 l 1,7,-1
 237 745 l 1,8,-1
 653 745 l 1,9,-1
 653 405 l 1,10,-1
 860 405 l 1,11,-1
 860 336 l 1,12,-1
 487 336 l 1,13,-1
 487 154 l 1,0,-1
693 -149 m 1,14,-1
 640 -199 l 1,15,-1
 450 -5 l 1,16,-1
 260 -199 l 1,17,-1
 207 -149 l 1,18,-1
 412 58 l 1,19,-1
 247 58 l 1,20,-1
 247 127 l 1,21,-1
 653 127 l 1,22,-1
 653 58 l 1,23,-1
 488 58 l 1,24,-1
 693 -149 l 1,14,-1
EndSplineSet
EndChar

StartChar: uniAD88
Encoding: 44424 44424 396
Width: 900
Flags: W
LayerCount: 2
Fore
SplineSet
760 35 m 1,0,-1
 685 35 l 1,1,-1
 685 170 l 1,2,-1
 498 170 l 1,3,-1
 498 238 l 1,4,-1
 685 238 l 1,5,-1
 685 765 l 1,6,-1
 760 765 l 1,7,-1
 760 35 l 1,0,-1
354 56 m 1,8,-1
 280 56 l 1,9,-1
 280 342 l 1,10,-1
 30 342 l 1,11,-1
 30 411 l 1,12,-1
 446 411 l 1,13,-1
 446 675 l 1,14,-1
 165 675 l 1,15,-1
 165 744 l 1,16,-1
 521 744 l 1,17,-1
 521 411 l 1,18,-1
 573 411 l 1,19,-1
 573 342 l 1,20,-1
 354 342 l 1,21,-1
 354 56 l 1,8,-1
EndSplineSet
EndChar

StartChar: uniAD89
Encoding: 44425 44425 397
Width: 900
Flags: W
LayerCount: 2
Fore
SplineSet
354 176 m 1,0,-1
 280 176 l 1,1,-1
 280 366 l 1,2,-1
 30 366 l 1,3,-1
 30 435 l 1,4,-1
 446 435 l 1,5,-1
 446 675 l 1,6,-1
 165 675 l 1,7,-1
 165 744 l 1,8,-1
 521 744 l 1,9,-1
 521 435 l 1,10,-1
 573 435 l 1,11,-1
 573 366 l 1,12,-1
 354 366 l 1,13,-1
 354 176 l 1,0,-1
760 -195 m 1,14,-1
 685 -195 l 1,15,-1
 685 26 l 1,16,-1
 342 26 l 1,17,-1
 342 95 l 1,18,-1
 685 95 l 1,19,-1
 685 207 l 1,20,-1
 498 207 l 1,21,-1
 498 274 l 1,22,-1
 685 274 l 1,23,-1
 685 765 l 1,24,-1
 760 765 l 1,25,-1
 760 -195 l 1,14,-1
EndSplineSet
EndChar

StartChar: uniAD8C
Encoding: 44428 44428 398
Width: 900
Flags: W
LayerCount: 2
Fore
SplineSet
760 83 m 1,0,-1
 685 83 l 1,1,-1
 685 186 l 1,2,-1
 498 186 l 1,3,-1
 498 253 l 1,4,-1
 685 253 l 1,5,-1
 685 765 l 1,6,-1
 760 765 l 1,7,-1
 760 83 l 1,0,-1
354 155 m 1,8,-1
 279 155 l 1,9,-1
 279 346 l 1,10,-1
 30 346 l 1,11,-1
 30 415 l 1,12,-1
 446 415 l 1,13,-1
 446 675 l 1,14,-1
 165 675 l 1,15,-1
 165 744 l 1,16,-1
 521 744 l 1,17,-1
 521 415 l 1,18,-1
 573 415 l 1,19,-1
 573 346 l 1,20,-1
 354 346 l 1,21,-1
 354 155 l 1,8,-1
770 -195 m 1,22,-1
 421 -195 l 2,23,24
 393 -195 393 -195 372.5 -175 c 128,-1,25
 352 -155 352 -155 352 -127 c 2,26,-1
 352 75 l 1,27,-1
 427 75 l 1,28,-1
 427 -126 l 1,29,-1
 770 -126 l 1,30,-1
 770 -195 l 1,22,-1
EndSplineSet
EndChar

StartChar: uniAD90
Encoding: 44432 44432 399
Width: 900
Flags: W
LayerCount: 2
Fore
SplineSet
354 197 m 1,0,-1
 279 197 l 1,1,-1
 279 377 l 1,2,-1
 30 377 l 1,3,-1
 30 446 l 1,4,-1
 446 446 l 1,5,-1
 446 675 l 1,6,-1
 165 675 l 1,7,-1
 165 744 l 1,8,-1
 521 744 l 1,9,-1
 521 446 l 1,10,-1
 573 446 l 1,11,-1
 573 377 l 1,12,-1
 354 377 l 1,13,-1
 354 197 l 1,0,-1
770 -215 m 1,14,-1
 421 -215 l 2,15,16
 393 -215 393 -215 372.5 -195 c 128,-1,17
 352 -175 352 -175 352 -147 c 2,18,-1
 352 -3 l 1,19,-1
 685 -3 l 1,20,-1
 685 84 l 1,21,-1
 352 84 l 1,22,-1
 352 147 l 1,23,-1
 685 147 l 1,24,-1
 685 228 l 1,25,-1
 498 228 l 1,26,-1
 498 295 l 1,27,-1
 685 295 l 1,28,-1
 685 765 l 1,29,-1
 760 765 l 1,30,-1
 760 -64 l 1,31,-1
 427 -64 l 1,32,-1
 427 -151 l 1,33,-1
 770 -151 l 1,34,-1
 770 -215 l 1,14,-1
EndSplineSet
EndChar

StartChar: uniAD9C
Encoding: 44444 44444 400
Width: 900
Flags: W
LayerCount: 2
Fore
SplineSet
759 84 m 1,0,-1
 684 84 l 1,1,-1
 684 207 l 1,2,-1
 497 207 l 1,3,-1
 497 274 l 1,4,-1
 684 274 l 1,5,-1
 684 765 l 1,6,-1
 759 765 l 1,7,-1
 759 84 l 1,0,-1
354 176 m 1,8,-1
 279 176 l 1,9,-1
 279 367 l 1,10,-1
 30 367 l 1,11,-1
 30 436 l 1,12,-1
 445 436 l 1,13,-1
 445 675 l 1,14,-1
 165 675 l 1,15,-1
 165 744 l 1,16,-1
 520 744 l 1,17,-1
 520 436 l 1,18,-1
 572 436 l 1,19,-1
 572 367 l 1,20,-1
 354 367 l 1,21,-1
 354 176 l 1,8,-1
785 -183 m 1,22,-1
 721 -211 l 1,23,-1
 624 -29 l 1,24,-1
 503 -194 l 1,25,-1
 384 -29 l 1,26,-1
 287 -211 l 1,27,-1
 223 -183 l 1,28,-1
 377 100 l 1,29,-1
 503 -82 l 1,30,-1
 631 100 l 1,31,-1
 785 -183 l 1,22,-1
EndSplineSet
EndChar

StartChar: uniAD9D
Encoding: 44445 44445 401
Width: 900
Flags: W
LayerCount: 2
Fore
SplineSet
578 121 m 0,0,1
 621 121 621 121 685 89 c 1,2,-1
 685 217 l 1,3,-1
 498 217 l 1,4,-1
 498 284 l 1,5,-1
 685 284 l 1,6,-1
 685 765 l 1,7,-1
 760 765 l 1,8,-1
 760 -47 l 2,9,10
 760 -114 760 -114 706 -164 c 0,11,12
 651 -215 651 -215 574 -215 c 0,13,14
 498 -215 498 -215 442 -165 c 0,15,16
 388 -116 388 -116 388 -47 c 128,-1,17
 388 22 388 22 442 71 c 0,18,19
 498 121 498 121 578 121 c 0,0,1
685 -47 m 128,-1,21
 685 -26 685 -26 675.5 -7.5 c 128,-1,22
 666 11 666 11 650.5 24.5 c 128,-1,23
 635 38 635 38 615 46 c 128,-1,24
 595 54 595 54 574 54 c 128,-1,25
 553 54 553 54 533 46.5 c 128,-1,26
 513 39 513 39 497.5 25.5 c 128,-1,27
 482 12 482 12 472.5 -6.5 c 128,-1,28
 463 -25 463 -25 463 -47 c 128,-1,29
 463 -69 463 -69 472.5 -87.5 c 128,-1,30
 482 -106 482 -106 497.5 -119.5 c 128,-1,31
 513 -133 513 -133 533 -140.5 c 128,-1,32
 553 -148 553 -148 574 -148 c 128,-1,33
 595 -148 595 -148 615 -140 c 128,-1,34
 635 -132 635 -132 650.5 -118.5 c 128,-1,35
 666 -105 666 -105 675.5 -86.5 c 128,-1,20
 685 -68 685 -68 685 -47 c 128,-1,21
354 176 m 1,36,-1
 280 176 l 1,37,-1
 280 367 l 1,38,-1
 30 367 l 1,39,-1
 30 436 l 1,40,-1
 446 436 l 1,41,-1
 446 675 l 1,42,-1
 165 675 l 1,43,-1
 165 744 l 1,44,-1
 521 744 l 1,45,-1
 521 436 l 1,46,-1
 573 436 l 1,47,-1
 573 367 l 1,48,-1
 354 367 l 1,49,-1
 354 176 l 1,36,-1
EndSplineSet
EndChar

StartChar: uniADA4
Encoding: 44452 44452 402
Width: 900
Flags: W
LayerCount: 2
Fore
SplineSet
780 35 m 1,0,-1
 705 35 l 1,1,-1
 705 765 l 1,2,-1
 780 765 l 1,3,-1
 780 35 l 1,0,-1
614 160 m 1,4,-1
 373 160 l 1,5,-1
 373 227 l 1,6,-1
 541 227 l 1,7,-1
 541 765 l 1,8,-1
 614 765 l 1,9,-1
 614 160 l 1,4,-1
282 56 m 1,10,-1
 207 56 l 1,11,-1
 207 342 l 1,12,-1
 10 342 l 1,13,-1
 10 411 l 1,14,-1
 332 411 l 1,15,-1
 332 675 l 1,16,-1
 114 675 l 1,17,-1
 114 744 l 1,18,-1
 406 744 l 1,19,-1
 406 411 l 1,20,-1
 448 411 l 1,21,-1
 448 342 l 1,22,-1
 282 342 l 1,23,-1
 282 56 l 1,10,-1
EndSplineSet
EndChar

StartChar: uniADB7
Encoding: 44471 44471 403
Width: 900
Flags: W
LayerCount: 2
Fore
SplineSet
779 83 m 1,0,-1
 704 83 l 1,1,-1
 704 765 l 1,2,-1
 779 765 l 1,3,-1
 779 83 l 1,0,-1
613 186 m 1,4,-1
 373 186 l 1,5,-1
 373 253 l 1,6,-1
 541 253 l 1,7,-1
 541 765 l 1,8,-1
 613 765 l 1,9,-1
 613 186 l 1,4,-1
281 176 m 1,10,-1
 207 176 l 1,11,-1
 207 366 l 1,12,-1
 10 366 l 1,13,-1
 10 435 l 1,14,-1
 331 435 l 1,15,-1
 331 675 l 1,16,-1
 114 675 l 1,17,-1
 114 744 l 1,18,-1
 406 744 l 1,19,-1
 406 435 l 1,20,-1
 447 435 l 1,21,-1
 447 366 l 1,22,-1
 281 366 l 1,23,-1
 281 176 l 1,10,-1
804 -155 m 1,24,-1
 746 -200 l 1,25,-1
 555 8 l 1,26,-1
 364 -200 l 1,27,-1
 306 -155 l 1,28,-1
 555 110 l 1,29,-1
 804 -155 l 1,24,-1
EndSplineSet
EndChar

StartChar: uniADC0
Encoding: 44480 44480 404
Width: 900
Flags: W
LayerCount: 2
Fore
SplineSet
354 56 m 1,0,-1
 280 56 l 1,1,-1
 280 321 l 1,2,-1
 30 321 l 1,3,-1
 30 391 l 1,4,-1
 446 391 l 1,5,-1
 446 675 l 1,6,-1
 165 675 l 1,7,-1
 165 744 l 1,8,-1
 521 744 l 1,9,-1
 521 391 l 1,10,-1
 685 391 l 1,11,-1
 685 765 l 1,12,-1
 760 765 l 1,13,-1
 760 35 l 1,14,-1
 685 35 l 1,15,-1
 685 321 l 1,16,-1
 354 321 l 1,17,-1
 354 56 l 1,0,-1
EndSplineSet
EndChar

StartChar: uniADC1
Encoding: 44481 44481 405
Width: 900
Flags: W
LayerCount: 2
Fore
SplineSet
760 -195 m 1,0,-1
 685 -195 l 1,1,-1
 685 26 l 1,2,-1
 342 26 l 1,3,-1
 342 95 l 1,4,-1
 685 95 l 1,5,-1
 685 335 l 1,6,-1
 354 335 l 1,7,-1
 354 176 l 1,8,-1
 280 176 l 1,9,-1
 280 335 l 1,10,-1
 30 335 l 1,11,-1
 30 404 l 1,12,-1
 446 404 l 1,13,-1
 446 675 l 1,14,-1
 165 675 l 1,15,-1
 165 744 l 1,16,-1
 521 744 l 1,17,-1
 521 404 l 1,18,-1
 685 404 l 1,19,-1
 685 765 l 1,20,-1
 760 765 l 1,21,-1
 760 -195 l 1,0,-1
EndSplineSet
EndChar

StartChar: uniADC4
Encoding: 44484 44484 406
Width: 900
Flags: W
LayerCount: 2
Fore
SplineSet
354 155 m 1,0,-1
 279 155 l 1,1,-1
 279 315 l 1,2,-1
 30 315 l 1,3,-1
 30 384 l 1,4,-1
 446 384 l 1,5,-1
 446 675 l 1,6,-1
 165 675 l 1,7,-1
 165 744 l 1,8,-1
 521 744 l 1,9,-1
 521 384 l 1,10,-1
 685 384 l 1,11,-1
 685 765 l 1,12,-1
 760 765 l 1,13,-1
 760 83 l 1,14,-1
 685 83 l 1,15,-1
 685 315 l 1,16,-1
 354 315 l 1,17,-1
 354 155 l 1,0,-1
770 -195 m 1,18,-1
 421 -195 l 2,19,20
 393 -195 393 -195 372.5 -175 c 128,-1,21
 352 -155 352 -155 352 -127 c 2,22,-1
 352 75 l 1,23,-1
 427 75 l 1,24,-1
 427 -126 l 1,25,-1
 770 -126 l 1,26,-1
 770 -195 l 1,18,-1
EndSplineSet
EndChar

StartChar: uniADC8
Encoding: 44488 44488 407
Width: 900
Flags: W
LayerCount: 2
Fore
SplineSet
770 -215 m 1,0,-1
 421 -215 l 2,1,2
 393 -215 393 -215 372.5 -195 c 128,-1,3
 352 -175 352 -175 352 -147 c 2,4,-1
 352 -3 l 1,5,-1
 685 -3 l 1,6,-1
 685 84 l 1,7,-1
 352 84 l 1,8,-1
 352 147 l 1,9,-1
 685 147 l 1,10,-1
 685 356 l 1,11,-1
 354 356 l 1,12,-1
 354 197 l 1,13,-1
 279 197 l 1,14,-1
 279 356 l 1,15,-1
 30 356 l 1,16,-1
 30 425 l 1,17,-1
 446 425 l 1,18,-1
 446 675 l 1,19,-1
 165 675 l 1,20,-1
 165 744 l 1,21,-1
 521 744 l 1,22,-1
 521 425 l 1,23,-1
 685 425 l 1,24,-1
 685 765 l 1,25,-1
 760 765 l 1,26,-1
 760 -64 l 1,27,-1
 427 -64 l 1,28,-1
 427 -151 l 1,29,-1
 770 -151 l 1,30,-1
 770 -215 l 1,0,-1
EndSplineSet
EndChar

StartChar: uniADD0
Encoding: 44496 44496 408
Width: 900
Flags: W
LayerCount: 2
Fore
SplineSet
760 -127 m 2,0,1
 760 -155 760 -155 740 -175 c 128,-1,2
 720 -195 720 -195 691 -195 c 2,3,-1
 421 -195 l 2,4,5
 393 -195 393 -195 372.5 -175 c 128,-1,6
 352 -155 352 -155 352 -127 c 2,7,-1
 352 116 l 1,8,-1
 685 116 l 1,9,-1
 685 346 l 1,10,-1
 354 346 l 1,11,-1
 354 186 l 1,12,-1
 280 186 l 1,13,-1
 280 346 l 1,14,-1
 30 346 l 1,15,-1
 30 415 l 1,16,-1
 446 415 l 1,17,-1
 446 675 l 1,18,-1
 165 675 l 1,19,-1
 165 744 l 1,20,-1
 521 744 l 1,21,-1
 521 415 l 1,22,-1
 685 415 l 1,23,-1
 685 765 l 1,24,-1
 760 765 l 1,25,-1
 760 -127 l 2,0,1
685 -126 m 1,26,-1
 685 47 l 1,27,-1
 427 47 l 1,28,-1
 427 -126 l 1,29,-1
 685 -126 l 1,26,-1
EndSplineSet
EndChar

StartChar: uniADD1
Encoding: 44497 44497 409
Width: 900
Flags: W
LayerCount: 2
Fore
SplineSet
760 -137 m 2,0,1
 760 -165 760 -165 740 -185 c 128,-1,2
 720 -205 720 -205 691 -205 c 2,3,-1
 421 -205 l 2,4,5
 393 -205 393 -205 372.5 -185 c 128,-1,6
 352 -165 352 -165 352 -137 c 2,7,-1
 352 132 l 1,8,-1
 427 132 l 1,9,-1
 427 49 l 1,10,-1
 685 49 l 1,11,-1
 685 356 l 1,12,-1
 354 356 l 1,13,-1
 354 197 l 1,14,-1
 280 197 l 1,15,-1
 280 356 l 1,16,-1
 30 356 l 1,17,-1
 30 425 l 1,18,-1
 446 425 l 1,19,-1
 446 675 l 1,20,-1
 165 675 l 1,21,-1
 165 744 l 1,22,-1
 521 744 l 1,23,-1
 521 425 l 1,24,-1
 685 425 l 1,25,-1
 685 765 l 1,26,-1
 760 765 l 1,27,-1
 760 -137 l 2,0,1
685 -136 m 1,28,-1
 685 -20 l 1,29,-1
 427 -20 l 1,30,-1
 427 -136 l 1,31,-1
 685 -136 l 1,28,-1
EndSplineSet
EndChar

StartChar: uniADD3
Encoding: 44499 44499 410
Width: 900
Flags: W
LayerCount: 2
Fore
SplineSet
354 125 m 1,0,-1
 279 125 l 1,1,-1
 279 336 l 1,2,-1
 30 336 l 1,3,-1
 30 405 l 1,4,-1
 445 405 l 1,5,-1
 445 675 l 1,6,-1
 165 675 l 1,7,-1
 165 744 l 1,8,-1
 520 744 l 1,9,-1
 520 405 l 1,10,-1
 684 405 l 1,11,-1
 684 765 l 1,12,-1
 759 765 l 1,13,-1
 759 83 l 1,14,-1
 684 83 l 1,15,-1
 684 336 l 1,16,-1
 354 336 l 1,17,-1
 354 125 l 1,0,-1
784 -155 m 1,18,-1
 726 -200 l 1,19,-1
 535 8 l 1,20,-1
 343 -200 l 1,21,-1
 285 -155 l 1,22,-1
 535 125 l 1,23,-1
 784 -155 l 1,18,-1
EndSplineSet
EndChar

StartChar: uniADDC
Encoding: 44508 44508 411
Width: 900
Flags: W
LayerCount: 2
Fore
SplineSet
373 -15 m 1,0,-1
 299 -15 l 1,1,-1
 299 281 l 1,2,-1
 40 281 l 1,3,-1
 40 350 l 1,4,-1
 578 350 l 1,5,-1
 578 675 l 1,6,-1
 237 675 l 1,7,-1
 237 745 l 1,8,-1
 653 745 l 1,9,-1
 653 350 l 1,10,-1
 860 350 l 1,11,-1
 860 281 l 1,12,-1
 601 281 l 1,13,-1
 601 -15 l 1,14,-1
 527 -15 l 1,15,-1
 527 281 l 1,16,-1
 373 281 l 1,17,-1
 373 -15 l 1,0,-1
EndSplineSet
EndChar

StartChar: uniADE0
Encoding: 44512 44512 412
Width: 900
Flags: W
LayerCount: 2
Fore
SplineSet
415 73 m 1,0,-1
 340 73 l 1,1,-1
 340 305 l 1,2,-1
 40 305 l 1,3,-1
 40 374 l 1,4,-1
 578 374 l 1,5,-1
 578 676 l 1,6,-1
 237 676 l 1,7,-1
 237 745 l 1,8,-1
 653 745 l 1,9,-1
 653 374 l 1,10,-1
 860 374 l 1,11,-1
 860 305 l 1,12,-1
 622 305 l 1,13,-1
 622 73 l 1,14,-1
 547 73 l 1,15,-1
 547 305 l 1,16,-1
 415 305 l 1,17,-1
 415 73 l 1,0,-1
663 -195 m 1,18,-1
 315 -195 l 2,19,20
 287 -195 287 -195 267 -175 c 128,-1,21
 247 -155 247 -155 247 -127 c 2,22,-1
 247 75 l 1,23,-1
 322 75 l 1,24,-1
 322 -126 l 1,25,-1
 663 -126 l 1,26,-1
 663 -195 l 1,18,-1
EndSplineSet
EndChar

